<svg width="125" height="18" viewBox="0 0 125 18" fill="none" xmlns="http://www.w3.org/2000/svg">
<g opacity="0.9">
<path d="M198.828 4.30233C202.737 4.29926 205.541 4.37967 207.24 4.54509C209.107 4.70616 210.381 4.94083 211.058 5.24907C211.736 5.5168 211.988 5.83353 211.816 6.20004C211.643 6.56656 211.555 6.93167 211.553 7.29385C207.129 7.83252 201.517 8.29561 194.714 8.68387C188.082 9.06778 180.772 9.40596 172.78 9.69835C164.789 9.99076 156.459 10.2303 147.789 10.4162C139.119 10.6426 130.704 10.8438 122.543 11.019C114.384 11.1943 106.818 11.3567 99.8485 11.5062C92.8788 11.6558 87.0988 11.8 82.5083 11.9388C68.3966 12.4432 57.4305 12.88 49.6081 13.2498C41.7867 13.6189 36.4304 13.9353 33.5394 14.199C28.4389 14.2682 24.4456 14.2127 21.5576 14.0332C18.4989 13.8565 16.0361 13.6078 14.1694 13.2847C12.3017 12.9624 10.69 12.5938 9.33337 12.1791C7.97736 11.7246 6.3661 11.2759 4.49965 10.832C5.52251 10.4875 5.78119 10.0183 5.27566 9.4246C4.60027 8.83441 2.98925 8.42539 0.44079 8.19828C2.48138 8.07386 4.01337 7.79887 5.03669 7.3741C6.06007 6.94855 6.14699 6.64495 5.29849 6.46099C9.54953 6.20859 14.141 6.00985 19.0712 5.86319C23.8316 5.72086 28.5916 5.59877 33.3513 5.49616C38.1116 5.35383 42.617 5.19697 46.8676 5.02479C51.1188 4.8129 54.8598 4.55091 58.0921 4.23962C71.182 3.959 84.867 3.66478 99.1468 3.3585C113.427 3.01174 126.773 2.66465 139.183 2.31801C143.601 2.42423 148.786 2.43387 154.735 2.34689C160.855 2.25557 166.804 2.22856 172.583 2.26585C178.532 2.2591 183.885 2.38589 188.642 2.64624C193.569 2.9038 196.964 3.45584 198.828 4.30233Z" fill="#FF3F4D"/>
</g>
</svg>
