<svg width="28" height="33" viewBox="0 0 28 33" fill="none" xmlns="http://www.w3.org/2000/svg">
<path d="M26.2875 32.6537H1.08753C0.590479 32.6537 0.187536 32.2443 0.187536 31.7394V27.3801C0.180441 25.7624 1.22619 24.3345 2.75343 23.8766L8.72671 22.0562C9.06164 21.9531 9.30736 21.6621 9.35671 21.3102L9.50251 20.2816C5.64602 20.8768 3.48333 19.8071 3.38253 19.7577C3.15137 19.6405 2.98096 19.428 2.91466 19.1743C2.84836 18.9206 2.89256 18.6503 3.03603 18.432C4.50491 16.1137 5.38184 13.46 5.58752 10.7109V8.88229C5.58752 6.60466 6.5168 4.4289 8.15415 2.87298C9.79151 1.31706 11.9904 0.520169 14.2275 0.672011C18.5438 1.03756 21.8459 4.73321 21.7875 9.1328V10.7109C21.9924 13.4597 22.8683 16.1134 24.3363 18.432C24.4797 18.6503 24.5239 18.9206 24.4576 19.1743C24.3913 19.428 24.2209 19.6405 23.9898 19.7577C23.8908 19.8071 21.7281 20.8759 17.8698 20.2816L18.0156 21.3102C18.0649 21.6621 18.3107 21.9531 18.6456 22.0562L24.6216 23.8766C26.1488 24.3345 27.1946 25.7624 27.1875 27.3801V31.7394C27.1875 32.2443 26.7845 32.6537 26.2875 32.6537Z" fill="#3E76FE"/>
</svg>
