<svg width="40" height="35" viewBox="0 0 40 35" fill="none" xmlns="http://www.w3.org/2000/svg">
<path opacity="0.4" d="M22.6764 32.7277H2.84106C2.35256 32.7277 1.95654 32.3328 1.95654 31.8457V11.5612C1.95654 11.0742 2.35256 10.6793 2.84106 10.6793H36.4529C36.9414 10.6793 37.3374 11.0742 37.3374 11.5612V21.9566C37.9836 22.3788 38.5775 22.8758 39.1064 23.4374V2.7419C39.1064 1.76774 38.3144 0.978027 37.3374 0.978027H32.0303V4.50577C32.0303 5.967 30.8422 7.15157 29.3767 7.15157C27.9112 7.15157 26.7231 5.967 26.7231 4.50577V0.978027H12.5708V4.50577C12.5708 5.967 11.3828 7.15157 9.91723 7.15157C8.45171 7.15157 7.26367 5.967 7.26367 4.50577V0.978027H1.95654C0.979527 0.978027 0.1875 1.76774 0.1875 2.7419V32.7277C0.1875 33.7018 0.979527 34.4915 1.95654 34.4915H23.3708C23.0816 33.9278 22.849 33.337 22.6764 32.7277Z" fill="#0C21C1"/>
</svg>
