<svg width="48" height="33" viewBox="0 0 48 33" fill="none" xmlns="http://www.w3.org/2000/svg">
<path opacity="0.4" d="M47.0119 21.0807L40.2177 11.0807C40.0363 10.8133 39.7396 10.6539 39.4228 10.6537H35.5405V18.6537C35.5405 21.4151 33.3677 23.6537 30.6875 23.6537H14.1875V29.6537C14.1875 31.3105 15.4911 32.6537 17.0993 32.6537H39.4228C39.7399 32.6538 40.037 32.4944 40.2187 32.2267L47.0128 22.2267C47.2461 21.8824 47.2457 21.4246 47.0119 21.0807Z" fill="#4FB7EF"/>
<path d="M30.2757 22.6537H7.95179C7.63525 22.6537 7.33857 22.4947 7.15687 22.2277L0.36264 12.2277C0.12912 11.8836 0.12912 11.4258 0.36264 11.0817L7.15687 1.08169C7.33814 0.813872 7.63489 0.654096 7.95179 0.653687H30.2757C31.8838 0.653687 33.1875 1.99683 33.1875 3.65369V19.6537C33.1875 21.3105 31.8838 22.6537 30.2757 22.6537Z" fill="#0C21C1"/>
</svg>
