<svg width="80" height="80" viewBox="0 0 80 80" fill="none" xmlns="http://www.w3.org/2000/svg">
<path d="M20 60.0001C31.0457 71.0458 48.9543 71.0458 60 60.0001C71.0457 48.9544 71.0457 31.0457 60 20C48.9543 8.95432 31.0457 8.95432 20 20C8.95426 31.0457 8.95426 48.9544 20 60.0001Z" fill="#55F5A3"/>
<path d="M42.5376 37.6916C43.9367 39.0906 43.9367 41.3589 42.5376 42.7579C41.1386 44.1569 38.8703 44.1569 37.4712 42.7579C36.0722 41.3589 36.0722 39.0906 37.4712 37.6916C38.8703 36.2926 41.1386 36.2926 42.5376 37.6916Z" fill="black"/>
<path d="M53.7614 43.8277C54.716 43.8575 55.6572 43.4902 56.3857 42.7616C57.7834 41.3639 57.7835 39.0949 56.3843 37.6957C54.9866 36.298 52.7176 36.298 51.3199 37.6957C50.5913 38.4243 50.1884 39.419 50.2523 40.3602C50.2999 41.2316 50.1066 42.1059 49.4523 42.7601C48.7981 43.4144 47.9 43.5303 46.9944 43.5586C46.1329 43.5255 45.3174 43.821 44.6348 44.4001C44.555 44.467 44.4777 44.5379 44.4028 44.6128C44.4 44.6155 44.3973 44.6183 44.3946 44.621C44.3924 44.6232 44.3901 44.6255 44.3879 44.6277C44.1986 44.817 44.0349 45.0222 43.8969 45.239C43.4946 45.862 43.2892 46.5834 43.3352 47.2774C43.3828 48.1487 43.1895 49.023 42.5352 49.6772C41.881 50.3315 40.9829 50.4475 40.0773 50.4757C39.1094 50.4385 38.1994 50.8162 37.4708 51.5448C36.0731 52.9425 36.0731 55.2115 37.4738 56.6092C38.8715 58.0069 41.139 58.0084 42.5382 56.6092C43.2668 55.8806 43.643 54.8948 43.5998 53.9447C43.5924 53.1284 43.75 52.1975 44.4043 51.5433C45.0585 50.8891 45.8762 50.7255 46.8055 50.7448H46.8442C47.5928 50.7682 48.3333 50.5473 48.9694 50.0995C49.1402 49.9803 49.3028 49.8445 49.4552 49.6921C49.4578 49.6896 49.4604 49.687 49.4629 49.6845C49.4648 49.6826 49.4668 49.6806 49.4687 49.6787C49.8354 49.312 50.1059 48.8856 50.2802 48.4309C50.4567 47.9781 50.5383 47.4985 50.517 47.0276C50.5095 46.2112 50.6671 45.2804 51.3214 44.6262C51.9755 43.972 52.7934 43.8084 53.7228 43.8277H53.7614Z" fill="black"/>
<path d="M39.9088 29.9755C40.8634 30.0052 41.8047 29.6379 42.5332 28.9093C43.9309 27.5117 43.9309 25.2426 42.5318 23.8434C41.1341 22.4457 38.865 22.4457 37.4673 23.8434C36.7387 24.572 36.3358 25.5668 36.3997 26.508C36.4473 27.3793 36.254 28.2536 35.5998 28.9079C34.9455 29.5621 34.0474 29.6781 33.1419 29.7063C32.2804 29.6733 31.4648 29.9688 30.7822 30.5478C30.7026 30.6147 30.6251 30.6856 30.5502 30.7606C30.5475 30.7633 30.5447 30.766 30.542 30.7688C30.5398 30.771 30.5376 30.7732 30.5353 30.7754C30.346 30.9647 30.1824 31.1699 30.0443 31.3867C29.6421 32.0098 29.4366 32.7311 29.4826 33.4251C29.5302 34.2964 29.3369 35.1707 28.6826 35.825C28.0284 36.4792 27.1303 36.5952 26.2248 36.6234C25.2568 36.5863 24.3468 36.964 23.6182 37.6925C22.2205 39.0902 22.2205 41.3593 23.6212 42.757C25.0189 44.1547 27.2864 44.1562 28.6856 42.757C29.4142 42.0284 29.7904 41.0426 29.7473 40.0924C29.7398 39.2761 29.8974 38.3453 30.5517 37.6911C31.2059 37.0368 32.0237 36.8733 32.9531 36.8926H32.9917C33.7404 36.9159 34.4808 36.695 35.1168 36.2472C35.2876 36.1281 35.4503 35.9923 35.6027 35.8398C35.6053 35.8373 35.6078 35.8348 35.6103 35.8322C35.6123 35.8303 35.6142 35.8284 35.6161 35.8265C35.9828 35.4598 36.2533 35.0334 36.4277 34.5786C36.6041 34.1259 36.6858 33.6462 36.6644 33.1753C36.657 32.359 36.8146 31.4282 37.4688 30.7739C38.1231 30.1197 38.9409 29.9561 39.8702 29.9755H39.9088Z" fill="black"/>
</svg>
