<svg width="444" height="536" viewBox="0 0 444 536" fill="none" xmlns="http://www.w3.org/2000/svg">
<g clip-path="url(#clip0_1885_1114)">
<path d="M412.103 45.3741H61.8738C49.0262 45.3741 38.5791 55.8081 38.5791 68.6397V308.342C38.5791 321.173 49.0262 331.607 61.8738 331.607H412.103C424.95 331.607 435.397 321.173 435.397 308.342V68.6397C435.397 55.8081 424.95 45.3741 412.103 45.3741Z" fill="#F2F2F2"/>
<path d="M374.105 63.8373H23.8767C11.0292 63.8373 0.582031 74.2714 0.582031 87.1029V326.805C0.582031 339.637 11.0292 350.071 23.8767 350.071H374.105C386.953 350.071 397.4 339.637 397.4 326.805V87.1029C397.4 74.2714 386.953 63.8373 374.105 63.8373ZM394.951 256.254C394.951 306.716 353.992 347.624 303.467 347.624H23.8767C12.3642 347.624 3.03153 338.303 3.03153 326.805V87.1029C3.03153 75.6048 12.3642 66.2838 23.8767 66.2838H374.105C385.618 66.2838 394.951 75.6049 394.951 87.103V256.254Z" fill="#3F3D56"/>
<path d="M50.6089 298.124L48.5361 296.821C49.8835 294.682 51.2739 292.609 52.6673 290.659L54.6611 292.08C53.2946 293.991 51.9317 296.024 50.6089 298.124Z" fill="#CCCCCC"/>
<path d="M64.1147 280.689L62.3613 278.981C66.099 275.156 70.0327 271.871 74.0526 269.22L75.403 271.261C71.5284 273.817 67.7304 276.989 64.1147 280.689ZM125.224 265.247C122.299 265.247 119.634 264.874 117.639 264.547L118.035 262.133C120.057 262.464 122.491 262.801 125.224 262.801C127.638 262.801 130.01 262.536 132.476 261.991L133.005 264.38C130.363 264.964 127.818 265.247 125.224 265.247ZM88.572 264.924L87.8352 262.591C90.4665 261.762 93.1923 261.141 95.9366 260.743C98.2934 260.403 100.547 260.238 102.825 260.238H102.975V262.684H102.825C100.665 262.684 98.5273 262.841 96.2877 263.165C93.6737 263.543 91.0771 264.135 88.572 264.924ZM146.957 257.854L145.392 255.972C148.772 253.168 151.194 249.777 153.76 246.187L154.783 244.759L156.771 246.189L155.754 247.608C153.094 251.331 150.581 254.848 146.957 257.854ZM166.601 235.423L165.094 233.493C168.396 230.92 172.126 228.835 176.498 227.119C177.242 226.827 177.954 226.566 178.637 226.333L179.428 228.648C178.778 228.87 178.102 229.118 177.394 229.396C173.245 231.025 169.715 232.996 166.601 235.423ZM196.173 226.925C195.349 226.925 194.567 226.917 193.816 226.909L193.845 224.463C194.612 224.471 195.414 224.473 196.262 224.479C199.144 224.479 203.159 224.397 208.665 223.76L208.948 226.19C203.259 226.848 199.181 226.917 196.173 226.925ZM223.848 223.721L223.362 221.324C227.762 220.435 232.88 219.377 237.947 218.072L238.559 220.44C233.435 221.761 228.279 222.827 223.848 223.721ZM252.988 215.803L252.072 213.534C256.984 211.556 261.248 209.326 265.11 206.715L266.483 208.74C262.477 211.45 258.062 213.76 252.988 215.803ZM277.737 198.322L275.75 196.892C276.433 195.944 277.024 195.02 277.595 194.127C279.282 191.489 281.026 188.762 285.179 185.413L285.47 185.181L286.988 187.101L286.718 187.316C282.875 190.415 281.314 192.858 279.659 195.444C279.07 196.366 278.46 197.319 277.737 198.322ZM299.712 179.973L298.818 177.695C303.184 175.986 308.115 174.61 313.473 173.606L313.926 176.011C308.717 176.987 303.935 178.32 299.712 179.973Z" fill="#CCCCCC"/>
<path d="M328.898 174.214L328.745 171.773C331.125 171.624 333.614 171.526 336.141 171.481L336.186 173.927C333.694 173.971 331.242 174.068 328.898 174.214Z" fill="#CCCCCC"/>
<path d="M77.9227 90.346H43.5563C41.8294 90.346 40.4209 91.7527 40.4209 93.4775C40.4209 95.2144 41.8294 96.6211 43.5563 96.6211H77.9227C79.6496 96.6211 81.0581 95.2144 81.0581 93.4775C81.0581 91.7528 79.6496 90.346 77.9227 90.346Z" fill="#E6E6E6"/>
<path d="M135.486 90.346H101.12C99.3929 90.346 97.9844 91.7527 97.9844 93.4775C97.9844 95.2144 99.3929 96.6211 101.12 96.6211H135.486C137.213 96.6211 138.622 95.2144 138.622 93.4775C138.622 91.7528 137.213 90.346 135.486 90.346Z" fill="#E6E6E6"/>
<path d="M193.049 90.346H158.682C156.955 90.346 155.547 91.7527 155.547 93.4775C155.547 95.2144 156.955 96.6211 158.682 96.6211H193.049C194.776 96.6211 196.184 95.2144 196.184 93.4775C196.184 91.7528 194.776 90.346 193.049 90.346Z" fill="#E6E6E6"/>
<path d="M352.697 296.249H40.3867V298.695H352.697V296.249Z" fill="#E6E6E6"/>
<path d="M336.199 117.659C313.97 118.234 297.387 124.766 286.879 137.047C282.996 141.597 281.416 145.181 279.751 148.973C278.097 152.716 276.407 156.57 272.476 161.597V157.438C274.913 153.866 276.223 150.882 277.509 147.983C279.248 144.019 280.902 140.276 285.017 135.469C295.991 122.625 313.186 115.812 336.126 115.213L336.199 117.659Z" fill="#CCCCCC"/>
<path d="M279.751 148.973C278.098 152.716 276.408 156.57 272.476 161.597C272.011 162.196 271.509 162.82 270.97 163.469C256.787 180.312 237.84 185.841 222.604 190.294C221.649 190.575 220.718 190.832 219.812 191.077C206.266 194.746 198.844 194.612 193.321 194.526C187.773 194.428 184.111 194.367 177.558 198.11C165.543 204.948 160.62 214.954 155.856 224.63C150.944 234.586 146.315 243.993 134.508 248.409C126.315 251.467 120.558 249.95 114.471 248.36C109.242 246.978 99.8164 212.955 91.4707 207.994C74.2385 211.602 63.7669 267.846 50.6988 297.961L48.4453 296.983C61.8563 266.109 72.9035 209.388 90.9562 205.596C99.0028 203.908 109.597 244.544 115.096 245.987C120.803 247.492 126.18 248.898 133.651 246.109C144.551 242.048 148.764 233.473 153.651 223.553C158.354 214.012 163.682 203.199 176.333 195.982C183.474 191.908 187.626 191.982 193.357 192.08C198.82 192.178 206.193 192.3 219.812 188.545C220.498 188.349 221.196 188.153 221.918 187.945C236.836 183.59 255.391 178.172 269.083 161.903C270.431 160.3 271.545 158.82 272.476 157.438C274.913 153.866 276.224 150.882 277.51 147.983C279.249 144.019 281.417 145.181 279.751 148.973Z" fill="#6C63FF"/>
<path d="M149.145 428.822C148.175 425.45 146.515 422.574 144.538 420.523L137.357 387.826L121.703 391.656L130.673 424.411C130.084 427.182 130.202 430.491 131.171 433.863C133.386 441.565 139.205 446.681 144.168 445.289C149.131 443.897 151.36 436.524 149.145 428.822Z" fill="#FFB6B6"/>
<path d="M146.979 214.341C146.979 214.341 122.258 213.836 115.972 231.815C110.251 248.181 103.469 293.142 107.135 295.74L122.742 406.424L144.996 403.369L139.285 270.566L146.979 214.341Z" fill="#0C21C1"/>
<path d="M261.453 419.794L257.068 536H198.893L196.541 483.928L186.204 536H123.853L131.63 446.485L139.664 427.659L145.102 414.901L261.453 419.794Z" fill="#2F2E41"/>
<path d="M214.913 192.275L174.496 189.829L161.024 206.954L131.63 217.963L145.102 348.847L138.978 427.133C138.978 427.133 224.711 495.634 261.453 419.794L251.655 328.053L254.105 221.633L225.935 209.4L214.913 192.275Z" fill="#0C21C1"/>
<path d="M292.721 162.504C293.159 166.745 292.602 170.733 291.32 173.93L298.053 214.066L278.837 216.707L274.076 175.709C272.166 172.841 270.805 169.05 270.367 164.809C269.365 155.121 273.557 146.751 279.73 146.115C285.903 145.478 291.719 152.815 292.721 162.504Z" fill="#FFB6B6"/>
<path d="M259.251 226.228C252.626 214.92 236.194 213.854 228.834 224.699C226.823 227.664 227.383 230.996 226.903 235C224.863 251.999 257.478 302.229 280.045 308.012C283.006 308.771 284.693 311.961 287.682 312.603C296.536 314.504 304.78 307.484 304.303 298.452L298.173 182.603L272.42 191.376L274.068 251.522L259.251 226.228Z" fill="#0C21C1"/>
<path d="M198.899 186.663C218.561 186.663 234.5 170.744 234.5 151.107C234.5 131.47 218.561 115.551 198.899 115.551C179.238 115.551 163.299 131.47 163.299 151.107C163.299 170.744 179.238 186.663 198.899 186.663Z" fill="#FFB6B6"/>
<path d="M232.06 124.998C231.753 125.072 236.746 120.212 236.959 120.105C241.858 117.659 236.824 141.573 233.284 140.9C224.576 139.249 220.816 135.971 217.436 144.154C216.493 146.429 215.905 148.998 214.068 150.625C211.545 152.839 207.357 152.655 205.299 155.297C203.645 157.426 204.123 160.557 205.348 162.955C206.573 165.365 208.434 167.407 209.549 169.866C210.798 172.631 205.47 181.425 203.437 186.367V186.379L203.425 186.408C202.885 187.705 201.601 183.971 200.246 183.598C198.624 183.152 196.235 186.977 193.652 186.282C193.639 186.282 193.627 186.269 193.615 186.269C191.153 185.584 188.41 184.85 185.691 184.116H185.678C178.024 182.037 176.089 185.022 175.721 184.936L170.969 179.97C169.338 178.784 169.523 174.955 168.373 173.927C167.432 173.086 165.088 175.029 164.397 174.221C161.009 170.258 160.229 166.293 158.232 158.466C156.407 151.31 152.623 129.891 160.4 128.925C167.736 128.007 162.372 117.806 169.757 118.185C169.316 116.326 170.136 114.332 171.471 112.962C172.794 111.58 174.558 110.723 176.334 109.989C185.091 106.418 183.633 103.347 192.868 105.427C193.786 104.142 207.124 104.999 208.789 105.427C208.912 105.451 204.662 106.467 211.239 105.427C210.994 106.931 215.158 107.592 214.913 109.096C215.832 107.861 225.703 114.956 225.936 116.436C226.242 118.283 223.45 117.341 225.311 117.622C226.414 117.794 228.3 120.032 228.116 121.145C228.912 120.069 229.708 119.005 230.516 117.928C230.663 117.94 230.798 117.965 230.945 117.989C234.668 118.699 230.4 130.855 230.553 127.066C230.835 120.105 235.771 124.179 232.06 124.998Z" fill="#2F2E41"/>
<path d="M368.448 314.244C368.722 314.919 369.669 314.919 369.943 314.244C371.855 309.536 374.578 304.262 377.539 300.233C378.013 299.587 377.36 298.725 376.606 298.998L370.258 301.291V262.043H368.133V301.291L361.782 298.997C361.029 298.725 360.375 299.587 360.849 300.232C363.811 304.262 366.534 309.536 368.448 314.244Z" fill="#3F3D56"/>
<path d="M410.077 354.656C409.871 355.355 410.613 355.943 411.248 355.585C415.677 353.085 421.093 350.647 425.921 349.331C426.694 349.12 426.719 348.039 425.96 347.784L419.56 345.637L444 314.902L442.336 313.582L417.896 344.317L414.352 338.576C413.931 337.895 412.882 338.164 412.852 338.964C412.662 343.959 411.51 349.78 410.077 354.656Z" fill="#3F3D56"/>
<path d="M390.196 380.848H348.896C346.332 380.848 344.246 378.765 344.246 376.204C338.785 360.263 338.893 344.643 344.246 329.326C344.246 326.765 346.332 324.682 348.896 324.682H390.196C392.76 324.682 394.846 326.765 394.846 329.326V376.204C394.846 378.765 392.76 380.848 390.196 380.848Z" fill="#E6E6E6"/>
<path d="M357.745 326.066C351.054 326.066 345.631 331.482 345.631 338.164V375.209C345.631 377.559 347.538 379.464 349.891 379.464H372.731C384.179 379.464 393.461 370.195 393.461 358.76V330.321C393.461 327.971 391.553 326.066 389.2 326.066H357.745Z" fill="white"/>
<path d="M379.164 339.688H359.827C359.34 339.688 358.943 339.292 358.943 338.805C358.943 338.318 359.34 337.923 359.827 337.923H379.164C379.651 337.923 380.048 338.318 380.048 338.805C380.048 339.292 379.651 339.688 379.164 339.688Z" fill="#E6E6E6"/>
<path d="M379.164 358.517H359.827C359.34 358.517 358.943 358.121 358.943 357.634C358.943 357.147 359.34 356.751 359.827 356.751H379.164C379.651 356.751 380.048 357.147 380.048 357.634C380.048 358.121 379.651 358.517 379.164 358.517Z" fill="#E6E6E6"/>
<path d="M389.54 349.109H349.452C348.964 349.109 348.567 348.713 348.567 348.226C348.567 347.739 348.964 347.343 349.452 347.343H389.54C390.027 347.343 390.424 347.739 390.424 348.226C390.424 348.713 390.027 349.109 389.54 349.109Z" fill="#E6E6E6"/>
<path d="M390.013 366.172H373.286C372.798 366.172 372.401 365.776 372.401 365.289C372.401 364.803 372.798 364.407 373.286 364.407H390.013C390.5 364.407 390.897 364.803 390.897 365.289C390.897 365.776 390.5 366.172 390.013 366.172Z" fill="#E6E6E6"/>
<path d="M15.2644 30.241C23.6946 30.241 30.5287 23.5592 30.5287 15.3169C30.5287 7.07449 23.6946 0.392731 15.2644 0.392731C6.83409 0.392731 0 7.07449 0 15.3169C0 23.5592 6.83409 30.241 15.2644 30.241Z" fill="#4FB7EF"/>
<path d="M137.632 10.2112H55.4704C52.6517 10.2112 50.3584 7.92077 50.3584 5.10562C50.3584 2.29047 52.6517 0 55.4704 0H137.632C140.451 0 142.744 2.29047 142.744 5.10562C142.744 7.92077 140.451 10.2112 137.632 10.2112Z" fill="#F2F2F2"/>
<path d="M201.752 27.4918H55.4704C52.6517 27.4918 50.3584 25.2013 50.3584 22.3862C50.3584 19.571 52.6517 17.2805 55.4704 17.2805H201.752C204.571 17.2805 206.864 19.571 206.864 22.3862C206.864 25.2013 204.571 27.4918 201.752 27.4918Z" fill="#F2F2F2"/>
</g>
<defs>
<clipPath id="clip0_1885_1114">
<rect width="444" height="536" fill="white"/>
</clipPath>
</defs>
</svg>
