<svg width="81" height="21" viewBox="0 0 81 21" fill="none" xmlns="http://www.w3.org/2000/svg">
<path d="M42.5029 8.72461H37.958V11.1304H43.1377V12.8125H36.0474V3.45605H42.9092V5.11279H37.958V7.09961H42.5029V8.72461ZM51.9595 3.45605V5.11279H49.1602V12.8125H47.1924V5.11279H44.3804V3.45605H51.9595ZM60.2417 5.11279H55.5508V7.26465H59.6577V8.88965H55.5508V12.8125H53.6084V3.46875H60.2417V5.11279ZM63.7124 4.82715C63.7124 5.46615 63.5558 5.96973 63.2427 6.33789C62.9338 6.70605 62.4979 6.94515 61.9351 7.05518V6.38867C62.3498 6.25749 62.6354 6.03532 62.792 5.72217C62.8766 5.53597 62.9126 5.34766 62.8999 5.15723H61.9033V3.48779H63.7124V4.82715ZM69.5698 11.4604C70.0311 11.4604 70.4056 11.4097 70.6934 11.3081C71.2393 11.1134 71.5122 10.7516 71.5122 10.2227C71.5122 9.91374 71.3768 9.67464 71.106 9.50537C70.8351 9.34033 70.4098 9.19434 69.8301 9.06738L68.8398 8.84521C67.8665 8.62516 67.1937 8.38607 66.8213 8.12793C66.1908 7.69629 65.8755 7.02132 65.8755 6.10303C65.8755 5.26514 66.1802 4.56901 66.7896 4.01465C67.3989 3.46029 68.2939 3.18311 69.4746 3.18311C70.4606 3.18311 71.3006 3.44548 71.9946 3.97021C72.6929 4.49072 73.0589 5.24821 73.0928 6.24268H71.2139C71.18 5.67985 70.9346 5.27995 70.4775 5.04297C70.1729 4.88639 69.7941 4.80811 69.3413 4.80811C68.8377 4.80811 68.4357 4.90967 68.1353 5.11279C67.8348 5.31592 67.6846 5.59945 67.6846 5.96338C67.6846 6.29769 67.8327 6.54736 68.1289 6.7124C68.3193 6.82243 68.7256 6.9515 69.3477 7.09961L70.96 7.48682C71.6667 7.65609 72.1999 7.88249 72.5596 8.16602C73.1182 8.60612 73.3975 9.243 73.3975 10.0767C73.3975 10.9315 73.0695 11.6424 72.4136 12.2095C71.7619 12.7723 70.8394 13.0537 69.646 13.0537C68.4272 13.0537 67.4688 12.7765 66.7705 12.2222C66.0723 11.6636 65.7231 10.8976 65.7231 9.92432H67.5894C67.6486 10.3517 67.765 10.6712 67.9385 10.8828C68.2559 11.2679 68.7996 11.4604 69.5698 11.4604Z" fill="#FF2638"/>
<g clip-path="url(#clip0_1695_4100)">
<path d="M10 5.8125L20 15.8125H0L10 5.8125Z" fill="#FF2638"/>
</g>
<defs>
<clipPath id="clip0_1695_4100">
<rect width="20" height="20" fill="white" transform="translate(0 0.8125)"/>
</clipPath>
</defs>
</svg>
