<svg width="133" height="20" viewBox="0 0 133 20" fill="none" xmlns="http://www.w3.org/2000/svg">
<path d="M43.1758 12.248C42.4238 12.9362 41.4622 13.2803 40.291 13.2803C38.8418 13.2803 37.7025 12.8154 36.873 11.8857C36.0436 10.9515 35.6289 9.6709 35.6289 8.04395C35.6289 6.28483 36.1006 4.92904 37.0439 3.97656C37.8643 3.14714 38.9079 2.73242 40.1748 2.73242C41.8701 2.73242 43.1097 3.28841 43.8936 4.40039C44.3265 5.02474 44.5589 5.65137 44.5908 6.28027H42.4854C42.3486 5.7972 42.1732 5.43262 41.959 5.18652C41.5762 4.74902 41.0088 4.53027 40.2568 4.53027C39.4912 4.53027 38.8874 4.84017 38.4453 5.45996C38.0033 6.0752 37.7822 6.94792 37.7822 8.07812C37.7822 9.20833 38.0146 10.056 38.4795 10.6211C38.9489 11.1816 39.5436 11.4619 40.2637 11.4619C41.002 11.4619 41.5648 11.2204 41.9521 10.7373C42.1663 10.4775 42.3441 10.0879 42.4854 9.56836H44.5703C44.388 10.6667 43.9232 11.5599 43.1758 12.248ZM52.6445 9.11719V2.92383H54.7842V9.11719C54.7842 10.1882 54.6178 11.0221 54.2852 11.6191C53.6654 12.7129 52.4827 13.2598 50.7373 13.2598C48.9919 13.2598 47.807 12.7129 47.1826 11.6191C46.8499 11.0221 46.6836 10.1882 46.6836 9.11719V2.92383H48.8232V9.11719C48.8232 9.8099 48.9053 10.3158 49.0693 10.6348C49.3245 11.1999 49.8805 11.4824 50.7373 11.4824C51.5895 11.4824 52.1432 11.1999 52.3984 10.6348C52.5625 10.3158 52.6445 9.8099 52.6445 9.11719ZM61.5801 9.04883H59.4062V13H57.3486V2.92383H62.291C62.9974 2.9375 63.5397 3.02409 63.918 3.18359C64.3008 3.3431 64.6243 3.5778 64.8887 3.8877C65.1074 4.1429 65.2806 4.42546 65.4082 4.73535C65.5358 5.04525 65.5996 5.39844 65.5996 5.79492C65.5996 6.27344 65.4788 6.74512 65.2373 7.20996C64.9958 7.67025 64.597 7.99609 64.041 8.1875C64.5059 8.37435 64.834 8.64095 65.0254 8.9873C65.2214 9.3291 65.3193 9.85319 65.3193 10.5596V11.2363C65.3193 11.6966 65.3376 12.0088 65.374 12.1729C65.4287 12.4326 65.5563 12.624 65.7568 12.7471V13H63.4395C63.3757 12.7767 63.3301 12.5967 63.3027 12.46C63.248 12.1774 63.2184 11.888 63.2139 11.5918L63.2002 10.6553C63.1911 10.0127 63.0726 9.58431 62.8447 9.37012C62.6214 9.15592 62.1999 9.04883 61.5801 9.04883ZM62.8584 7.2168C63.2777 7.02539 63.4873 6.64714 63.4873 6.08203C63.4873 5.47135 63.2845 5.0612 62.8789 4.85156C62.651 4.73307 62.3092 4.67383 61.8535 4.67383H59.4062V7.38086H61.792C62.266 7.38086 62.6214 7.32617 62.8584 7.2168ZM72.1973 9.04883H70.0234V13H67.9658V2.92383H72.9082C73.6146 2.9375 74.1569 3.02409 74.5352 3.18359C74.918 3.3431 75.2415 3.5778 75.5059 3.8877C75.7246 4.1429 75.8978 4.42546 76.0254 4.73535C76.153 5.04525 76.2168 5.39844 76.2168 5.79492C76.2168 6.27344 76.096 6.74512 75.8545 7.20996C75.613 7.67025 75.2142 7.99609 74.6582 8.1875C75.123 8.37435 75.4512 8.64095 75.6426 8.9873C75.8385 9.3291 75.9365 9.85319 75.9365 10.5596V11.2363C75.9365 11.6966 75.9548 12.0088 75.9912 12.1729C76.0459 12.4326 76.1735 12.624 76.374 12.7471V13H74.0566C73.9928 12.7767 73.9473 12.5967 73.9199 12.46C73.8652 12.1774 73.8356 11.888 73.8311 11.5918L73.8174 10.6553C73.8083 10.0127 73.6898 9.58431 73.4619 9.37012C73.2386 9.15592 72.8171 9.04883 72.1973 9.04883ZM73.4756 7.2168C73.8949 7.02539 74.1045 6.64714 74.1045 6.08203C74.1045 5.47135 73.9017 5.0612 73.4961 4.85156C73.2682 4.73307 72.9264 4.67383 72.4707 4.67383H70.0234V7.38086H72.4092C72.8831 7.38086 73.2386 7.32617 73.4756 7.2168ZM85.5488 8.59766H80.6543V11.1885H86.2324V13H78.5967V2.92383H85.9863V4.70801H80.6543V6.84766H85.5488V8.59766ZM96.5215 13H94.416L90.3008 5.84277V13H88.3389V2.92383H90.5469L94.5596 9.95801V2.92383H96.5215V13ZM106.1 12.248C105.348 12.9362 104.386 13.2803 103.215 13.2803C101.766 13.2803 100.626 12.8154 99.7969 11.8857C98.9674 10.9515 98.5527 9.6709 98.5527 8.04395C98.5527 6.28483 99.0244 4.92904 99.9678 3.97656C100.788 3.14714 101.832 2.73242 103.099 2.73242C104.794 2.73242 106.034 3.28841 106.817 4.40039C107.25 5.02474 107.483 5.65137 107.515 6.28027H105.409C105.272 5.7972 105.097 5.43262 104.883 5.18652C104.5 4.74902 103.933 4.53027 103.181 4.53027C102.415 4.53027 101.811 4.84017 101.369 5.45996C100.927 6.0752 100.706 6.94792 100.706 8.07812C100.706 9.20833 100.938 10.056 101.403 10.6211C101.873 11.1816 102.467 11.4619 103.188 11.4619C103.926 11.4619 104.489 11.2204 104.876 10.7373C105.09 10.4775 105.268 10.0879 105.409 9.56836H107.494C107.312 10.6667 106.847 11.5599 106.1 12.248ZM109.443 2.92383H111.535V13H109.443V2.92383ZM121.018 8.59766H116.123V11.1885H121.701V13H114.065V2.92383H121.455V4.70801H116.123V6.84766H121.018V8.59766ZM127.499 11.5439C127.996 11.5439 128.399 11.4893 128.709 11.3799C129.297 11.1702 129.591 10.7806 129.591 10.2109C129.591 9.87826 129.445 9.62077 129.153 9.43848C128.862 9.26074 128.404 9.10352 127.779 8.9668L126.713 8.72754C125.665 8.49056 124.94 8.23307 124.539 7.95508C123.86 7.49023 123.521 6.76335 123.521 5.77441C123.521 4.87207 123.849 4.1224 124.505 3.52539C125.161 2.92839 126.125 2.62988 127.396 2.62988C128.458 2.62988 129.363 2.91243 130.11 3.47754C130.862 4.03809 131.257 4.85384 131.293 5.9248H129.27C129.233 5.31868 128.969 4.88802 128.477 4.63281C128.148 4.46419 127.741 4.37988 127.253 4.37988C126.711 4.37988 126.278 4.48926 125.954 4.70801C125.631 4.92676 125.469 5.2321 125.469 5.62402C125.469 5.98405 125.628 6.25293 125.947 6.43066C126.152 6.54915 126.59 6.68815 127.26 6.84766L128.996 7.26465C129.757 7.44694 130.331 7.69076 130.719 7.99609C131.32 8.47005 131.621 9.15592 131.621 10.0537C131.621 10.9743 131.268 11.7399 130.562 12.3506C129.86 12.9567 128.866 13.2598 127.581 13.2598C126.269 13.2598 125.236 12.9613 124.484 12.3643C123.732 11.7627 123.356 10.9378 123.356 9.88965H125.366C125.43 10.3499 125.555 10.694 125.742 10.9219C126.084 11.3366 126.67 11.5439 127.499 11.5439Z" fill="#005CE6"/>
<g clip-path="url(#clip0_1695_4123)">
<path d="M10 0L0 10L10 20L20 10L10 0Z" fill="#005CE6"/>
</g>
<defs>
<clipPath id="clip0_1695_4123">
<rect width="20" height="20" fill="white"/>
</clipPath>
</defs>
</svg>
