<svg width="734" height="534" viewBox="0 0 734 534" fill="none" xmlns="http://www.w3.org/2000/svg">
<g filter="url(#filter0_b_1695_4081)">
<g clip-path="url(#clip0_1695_4081)">
<rect width="514.739" height="332.6" rx="31.6762" transform="matrix(0.866025 -0.5 0.866025 0.5 0 366.842)" fill="black" fill-opacity="0.7"/>
<path d="M138.912 347.543C142.719 349.798 148.357 349.028 152.262 348.25C156.272 347.451 158.02 347.414 159.184 348.098C160.96 349.146 159.621 350.835 157.657 352.005C154.231 354.045 151.214 354.64 148.854 355.135L153.466 359.246C155.824 358.743 159.462 357.392 162.589 355.619C169.864 351.419 171.033 346.598 165.491 343.368C158.453 339.272 148.259 344.706 145.167 342.844C144.233 342.277 144.125 341.16 145.867 339.853C146.727 339.205 149.363 337.568 153.894 336.601L149.435 332.621C147.16 333.234 144.434 334.136 141.764 335.677C134.917 339.63 133.741 344.513 138.912 347.543ZM160.435 325.462C159.106 326.229 158.762 327.323 159.451 328.298L173.872 348.624L181.142 344.426L178.591 341.283L187.474 336.154L192.311 337.978L198.719 334.279L166.35 322.047L160.435 325.462ZM168.685 329.051L180.838 333.645L175.093 336.963L168.685 329.051ZM121.737 347.805L142.783 366.572L149.711 362.573L128.661 343.806L121.736 347.804L121.737 347.805ZM111.488 353.721L122.504 368.407L104.09 361.144C102.018 360.342 99.6679 360.546 98.167 361.413L86.3803 368.218L86.9927 368.762C89.9376 367.668 93.5337 366.57 96.1055 366.131C97.6784 365.862 98.453 365.974 100.103 366.54L126.996 375.688L134.317 371.461L118.763 349.521L111.489 353.721" fill="white"/>
<path d="M228.135 444.046L210.482 433.854L210.12 434.063L214.586 440.648L212.082 442.094L211.901 441.99L206.982 434.585L211.901 431.746L230.67 442.582L236.645 439.133L238.998 440.491L224.514 448.854L222.16 447.495L228.135 444.046ZM254.91 428.587L257.264 429.946L242.961 438.204L239.34 436.113C238.374 435.556 237.7 434.981 237.318 434.389C236.915 433.785 236.755 433.169 236.835 432.542C236.915 431.891 237.207 431.224 237.71 430.538C238.213 429.853 238.877 429.133 239.702 428.378C241.09 427.112 241.804 426.038 241.844 425.155C241.905 424.261 241.392 423.5 240.305 422.873L240.124 422.768C239.581 422.454 238.957 422.199 238.253 422.002C237.549 421.804 236.795 421.694 235.99 421.67C235.185 421.647 234.361 421.74 233.516 421.949C232.671 422.135 231.836 422.466 231.011 422.942C229.462 423.837 228.728 424.806 228.808 425.852C228.909 426.885 229.744 427.855 231.313 428.761L232.641 429.528L230.106 430.991L228.597 430.12C227.631 429.563 226.867 428.935 226.304 428.239C225.74 427.542 225.429 426.816 225.368 426.061C225.308 425.306 225.539 424.545 226.062 423.779C226.585 423.012 227.45 422.28 228.657 421.583C229.885 420.875 231.142 420.37 232.429 420.068C233.697 419.754 234.944 419.603 236.171 419.615C237.378 419.615 238.515 419.76 239.581 420.05C240.647 420.317 241.583 420.683 242.387 421.148L242.93 421.461C244.54 422.391 245.415 423.477 245.556 424.719C245.676 425.95 244.872 427.344 243.142 428.901C241.633 430.26 240.778 431.404 240.577 432.333C240.356 433.25 240.909 434.092 242.236 434.859L243.142 435.382L254.91 428.587ZM255.976 418.564L252.475 416.543L254.95 410.027L254.587 409.818L242.638 416.717L240.284 415.358L254.406 407.205L258.269 409.435L255.795 415.951L256.157 416.16L257.364 415.463C258.168 414.998 259.074 414.627 260.079 414.348C261.085 414.069 262.121 413.912 263.188 413.878C264.274 413.831 265.36 413.924 266.447 414.156C267.533 414.365 268.559 414.749 269.524 415.306L270.068 415.62C270.973 416.142 271.637 416.735 272.059 417.397C272.482 418.059 272.663 418.744 272.602 419.453C272.522 420.149 272.21 420.852 271.667 421.561C271.124 422.246 270.339 422.885 269.313 423.477C268.126 424.162 266.879 424.673 265.571 425.01C264.264 425.347 262.966 425.527 261.679 425.55C260.371 425.562 259.114 425.428 257.907 425.15C256.7 424.848 255.613 424.418 254.648 423.86L253.018 422.92L255.553 421.456L257.002 422.292C257.766 422.734 258.571 423.059 259.416 423.268C260.261 423.454 261.115 423.541 261.981 423.529C262.846 423.494 263.701 423.361 264.545 423.129C265.39 422.896 266.175 422.571 266.899 422.153C267.563 421.77 268.066 421.352 268.408 420.899C268.77 420.434 268.971 419.969 269.011 419.505C269.032 419.029 268.901 418.57 268.619 418.129C268.317 417.676 267.865 417.275 267.261 416.926L267.08 416.822C265.813 416.09 264.425 415.753 262.916 415.811C261.387 415.858 260.019 416.23 258.812 416.926L255.976 418.564ZM265.55 400.771L270.469 397.931L285.255 406.468L288.514 404.586L290.868 405.945L287.609 407.827L291.592 410.127L289.057 411.59L285.074 409.29L275.297 414.935L271.797 412.914L265.55 400.771ZM274.754 412.113L275.116 412.322L282.72 407.931L269.021 400.022L268.659 400.231L274.754 412.113ZM307.151 389.645L295.986 383.199L309.203 375.568L311.557 376.927L300.814 383.129L308.358 387.485L308.72 387.276C308.519 386.927 308.398 386.556 308.358 386.161C308.298 385.754 308.338 385.348 308.479 384.941C308.64 384.523 308.911 384.111 309.293 383.704C309.655 383.286 310.168 382.885 310.832 382.502C311.798 381.945 312.844 381.527 313.971 381.248C315.117 380.957 316.274 380.812 317.441 380.812C318.608 380.812 319.764 380.957 320.911 381.248C322.078 381.527 323.164 381.956 324.17 382.537L324.713 382.851C325.719 383.431 326.514 384.076 327.097 384.784C327.66 385.481 327.982 386.213 328.063 386.98C328.123 387.735 327.892 388.495 327.369 389.262C326.846 390.028 325.981 390.76 324.773 391.457C323.546 392.166 322.279 392.688 320.971 393.025C319.664 393.362 318.366 393.53 317.079 393.53C315.791 393.53 314.544 393.379 313.337 393.077C312.13 392.752 311.013 392.293 309.987 391.701L309.143 391.213L311.677 389.75L312.341 390.133C314.011 391.097 315.731 391.556 317.501 391.509C319.271 391.44 320.911 390.969 322.42 390.098C323.224 389.634 323.788 389.146 324.11 388.635C324.432 388.1 324.552 387.578 324.472 387.067C324.391 386.532 324.13 386.021 323.687 385.534C323.224 385.034 322.641 384.581 321.937 384.175L321.756 384.07C321.132 383.71 320.438 383.437 319.674 383.251C318.929 383.054 318.165 382.949 317.38 382.938C316.616 382.915 315.852 382.996 315.087 383.182C314.323 383.344 313.629 383.606 313.005 383.966C312.583 384.21 312.251 384.471 312.009 384.75C311.788 385.017 311.647 385.284 311.587 385.551C311.506 385.807 311.496 386.056 311.557 386.3C311.637 386.532 311.758 386.73 311.919 386.893L307.151 389.645ZM331.934 369.552C330.627 368.797 329.178 368.426 327.589 368.437C325.98 368.437 324.461 368.85 323.033 369.674C322.349 370.069 321.836 370.505 321.494 370.981C321.172 371.446 321.031 371.933 321.071 372.444C321.111 372.932 321.323 373.426 321.705 373.925C322.107 374.413 322.68 374.872 323.425 375.302L326.563 377.114L326.925 376.904C326.523 376.115 326.513 375.319 326.895 374.518C327.297 373.705 328.052 372.979 329.158 372.34C330.124 371.782 331.18 371.358 332.327 371.068C333.453 370.766 334.61 370.621 335.797 370.633C337.004 370.633 338.201 370.789 339.388 371.103C340.575 371.393 341.711 371.852 342.798 372.479L343.16 372.688C344.206 373.292 344.97 373.954 345.453 374.674C345.956 375.383 346.187 376.109 346.147 376.852C346.127 377.584 345.835 378.31 345.272 379.03C344.729 379.738 343.934 380.395 342.888 380.999C341.842 381.603 340.695 382.067 339.448 382.392C338.221 382.706 336.974 382.88 335.706 382.915C334.439 382.927 333.192 382.799 331.965 382.532C330.737 382.241 329.611 381.8 328.585 381.208L320.89 376.765C319.784 376.126 318.969 375.435 318.446 374.692C317.923 373.949 317.681 373.205 317.722 372.462C317.742 371.707 318.013 370.981 318.536 370.284C319.079 369.576 319.854 368.931 320.86 368.35C321.866 367.77 322.952 367.317 324.119 366.991C325.286 366.666 326.473 366.492 327.68 366.469C328.866 366.434 330.043 366.556 331.21 366.835C332.377 367.09 333.463 367.508 334.469 368.089L331.934 369.552ZM340.655 379.709C341.379 379.291 341.922 378.85 342.285 378.385C342.647 377.897 342.828 377.41 342.828 376.922C342.828 376.434 342.647 375.958 342.285 375.493C341.922 375.029 341.389 374.593 340.685 374.187L340.323 373.978C339.619 373.571 338.855 373.269 338.03 373.072C337.205 372.874 336.37 372.775 335.525 372.775C334.68 372.775 333.845 372.886 333.021 373.106C332.196 373.304 331.441 373.6 330.757 373.995C330.074 374.39 329.561 374.825 329.219 375.302C328.877 375.778 328.695 376.266 328.675 376.765C328.675 377.253 328.836 377.729 329.158 378.194C329.48 378.658 329.963 379.076 330.607 379.448L331.18 379.779C331.844 380.162 332.578 380.459 333.383 380.668C334.167 380.865 334.982 380.964 335.827 380.964C336.672 380.964 337.507 380.865 338.332 380.668C339.156 380.447 339.931 380.127 340.655 379.709ZM332.758 361.969L346.88 353.815L350.562 355.941L355.118 368.85C355.34 369.466 355.571 369.971 355.812 370.366C356.054 370.761 356.416 371.098 356.899 371.376L357.804 371.899L355.33 373.328L354.243 372.7C353.881 372.491 353.569 372.277 353.308 372.056C353.066 371.824 352.855 371.574 352.674 371.307C352.493 371.016 352.332 370.703 352.191 370.366C352.051 370.006 351.9 369.594 351.739 369.129L347.424 356.637L347.062 356.428L335.112 363.327L332.758 361.969ZM379.57 359.82C378.504 360.436 377.397 360.912 376.251 361.249C375.084 361.574 373.937 361.772 372.811 361.841C371.664 361.899 370.578 361.83 369.552 361.632C368.526 361.412 367.6 361.063 366.775 360.587L366.413 360.378C365.689 359.96 365.156 359.524 364.814 359.071C364.472 358.618 364.271 358.165 364.211 357.712C364.15 357.259 364.211 356.818 364.392 356.388C364.593 355.947 364.874 355.54 365.236 355.169L364.874 354.96C364.271 355.145 363.627 355.273 362.943 355.343C362.259 355.413 361.565 355.43 360.861 355.395C360.177 355.349 359.503 355.238 358.839 355.064C358.155 354.878 357.522 354.617 356.938 354.28L356.576 354.071C355.771 353.607 355.198 353.09 354.856 352.521C354.494 351.94 354.363 351.342 354.464 350.726C354.584 350.099 354.916 349.478 355.46 348.862C356.003 348.223 356.777 347.613 357.783 347.033L357.964 346.928C358.95 346.359 359.996 345.918 361.102 345.604C362.189 345.279 363.265 345.087 364.331 345.029C365.418 344.959 366.464 345.029 367.469 345.238C368.455 345.436 369.35 345.767 370.155 346.231L370.517 346.44C371.101 346.777 371.553 347.143 371.875 347.538C372.177 347.921 372.358 348.316 372.418 348.723C372.499 349.117 372.469 349.518 372.328 349.925C372.207 350.32 371.996 350.685 371.694 351.022L372.056 351.231C372.7 351.022 373.394 350.865 374.138 350.761C374.903 350.645 375.677 350.604 376.462 350.639C377.246 350.674 378.031 350.79 378.816 350.987C379.6 351.185 380.354 351.493 381.079 351.911L381.441 352.12C382.266 352.596 382.859 353.136 383.221 353.74C383.583 354.321 383.714 354.942 383.613 355.604C383.493 356.255 383.151 356.917 382.587 357.59C382.004 358.252 381.179 358.891 380.113 359.507L379.57 359.82ZM377.729 358.235C379.097 357.445 379.852 356.603 379.992 355.709C380.153 354.803 379.671 354.025 378.544 353.374L378.363 353.27C377.116 352.55 375.707 352.248 374.138 352.364C372.589 352.468 371.121 352.921 369.733 353.723L369.552 353.827C368.164 354.629 367.369 355.482 367.168 356.388C366.987 357.283 367.52 358.09 368.767 358.81L368.948 358.914C370.075 359.565 371.412 359.849 372.961 359.768C374.531 359.675 375.999 359.234 377.367 358.444L377.729 358.235ZM367.288 352.416C368.556 351.684 369.25 350.9 369.371 350.064C369.491 349.228 369.049 348.519 368.043 347.939L367.862 347.834C366.836 347.242 365.619 346.992 364.211 347.085C362.802 347.155 361.454 347.561 360.167 348.304C358.879 349.048 358.165 349.832 358.024 350.656C357.884 351.458 358.326 352.155 359.352 352.747L359.533 352.852C360.539 353.432 361.766 353.688 363.215 353.618C364.663 353.548 366.021 353.148 367.288 352.416ZM405.781 337.092C407.088 337.846 408.547 338.224 410.156 338.224C411.745 338.212 413.254 337.794 414.683 336.97C415.367 336.575 415.87 336.145 416.191 335.68C416.533 335.204 416.684 334.722 416.644 334.234C416.604 333.723 416.393 333.23 416.01 332.753C415.628 332.254 415.055 331.784 414.29 331.342L411.152 329.53L410.79 329.739C411.212 330.518 411.243 331.302 410.88 332.091C410.518 332.881 409.764 333.607 408.617 334.269C407.632 334.838 406.575 335.274 405.449 335.576C404.322 335.878 403.166 336.035 401.979 336.046C400.772 336.046 399.575 335.901 398.388 335.611C397.221 335.309 396.094 334.844 395.008 334.217L394.646 334.008C393.6 333.404 392.825 332.748 392.322 332.039C391.799 331.319 391.548 330.593 391.568 329.861C391.588 329.106 391.87 328.375 392.413 327.666C392.956 326.935 393.761 326.261 394.827 325.645C395.893 325.03 397.05 324.571 398.297 324.269C399.544 323.944 400.802 323.775 402.069 323.764C403.357 323.741 404.614 323.874 405.841 324.164C407.068 324.455 408.195 324.896 409.221 325.489L416.825 329.879C417.952 330.529 418.776 331.226 419.299 331.969C419.823 332.69 420.074 333.427 420.054 334.182C420.034 334.914 419.752 335.634 419.209 336.342C418.666 337.051 417.881 337.701 416.855 338.294C415.829 338.886 414.733 339.345 413.566 339.67C412.399 339.995 411.222 340.175 410.036 340.21C408.829 340.233 407.652 340.111 406.505 339.844C405.338 339.565 404.252 339.136 403.246 338.555L405.781 337.092ZM397.06 326.935C396.336 327.353 395.793 327.806 395.431 328.293C395.089 328.77 394.928 329.257 394.948 329.757C394.968 330.256 395.169 330.744 395.551 331.22C395.913 331.685 396.436 332.115 397.12 332.51L397.482 332.719C398.187 333.125 398.951 333.427 399.776 333.625C400.581 333.81 401.405 333.903 402.25 333.903C403.075 333.892 403.89 333.781 404.694 333.572C405.499 333.363 406.254 333.055 406.958 332.649C407.642 332.254 408.165 331.824 408.527 331.36C408.869 330.884 409.05 330.407 409.07 329.931C409.11 329.443 408.969 328.967 408.647 328.503C408.326 328.038 407.843 327.62 407.199 327.248L406.626 326.917C405.962 326.534 405.228 326.238 404.423 326.029C403.618 325.82 402.793 325.715 401.948 325.715C401.083 325.703 400.228 325.802 399.384 326.011C398.559 326.209 397.784 326.516 397.06 326.935ZM414.511 324.246C411.775 322.667 410.306 321.064 410.105 319.438C409.904 317.812 410.97 316.325 413.304 314.978C415.637 313.63 418.212 313.015 421.029 313.131C423.845 313.247 426.621 314.095 429.357 315.675L434.065 318.392C436.881 320.019 438.37 321.633 438.531 323.236C438.692 324.839 437.605 326.314 435.272 327.661C432.938 329.008 430.383 329.635 427.607 329.543C424.831 329.45 422.035 328.59 419.218 326.964L414.511 324.246ZM432.978 326.337C434.608 325.396 435.262 324.368 434.94 323.253C434.618 322.115 433.421 320.948 431.349 319.751L427.003 317.243C426.038 316.685 425.062 316.238 424.076 315.901C423.071 315.553 422.075 315.338 421.089 315.257C420.103 315.152 419.138 315.187 418.192 315.361C417.267 315.524 416.402 315.837 415.597 316.302C414.772 316.778 414.219 317.283 413.937 317.818C413.656 318.352 413.595 318.909 413.756 319.49C413.917 320.048 414.3 320.617 414.903 321.197C415.486 321.767 416.261 322.33 417.227 322.887L421.572 325.396C423.644 326.592 425.656 327.289 427.607 327.487C429.558 327.661 431.349 327.278 432.978 326.337ZM422.356 322.434C421.833 322.132 421.572 321.761 421.572 321.319C421.572 320.878 421.833 320.506 422.356 320.204C422.879 319.902 423.523 319.751 424.288 319.751C425.052 319.751 425.696 319.902 426.219 320.204C426.742 320.506 427.003 320.878 427.003 321.319C427.003 321.761 426.742 322.132 426.219 322.434C425.696 322.736 425.052 322.887 424.288 322.887C423.523 322.887 422.879 322.736 422.356 322.434ZM432.987 313.579C430.252 311.999 428.783 310.396 428.582 308.77C428.381 307.144 429.447 305.658 431.78 304.31C434.114 302.963 436.689 302.347 439.505 302.464C442.322 302.58 445.098 303.428 447.834 305.007L452.541 307.725C455.358 309.351 456.846 310.965 457.007 312.568C457.168 314.171 456.082 315.646 453.748 316.993C451.415 318.341 448.86 318.968 446.084 318.875C443.308 318.782 440.511 317.923 437.695 316.297L432.987 313.579ZM451.455 315.669C453.084 314.729 453.738 313.701 453.416 312.586C453.095 311.447 451.898 310.28 449.825 309.084L445.48 306.575C444.515 306.018 443.539 305.57 442.553 305.234C441.547 304.885 440.551 304.67 439.566 304.589C438.58 304.484 437.614 304.519 436.669 304.694C435.744 304.856 434.878 305.17 434.074 305.634C433.249 306.111 432.696 306.616 432.414 307.15C432.132 307.684 432.072 308.242 432.233 308.823C432.394 309.38 432.776 309.949 433.38 310.53C433.963 311.099 434.738 311.662 435.703 312.22L440.049 314.729C442.121 315.925 444.132 316.622 446.084 316.819C448.035 316.993 449.825 316.61 451.455 315.669ZM440.833 311.767C440.31 311.465 440.049 311.093 440.049 310.652C440.049 310.21 440.31 309.839 440.833 309.537C441.356 309.235 442 309.084 442.764 309.084C443.529 309.084 444.173 309.235 444.696 309.537C445.219 309.839 445.48 310.21 445.48 310.652C445.48 311.093 445.219 311.465 444.696 311.767C444.173 312.069 443.529 312.22 442.764 312.22C442 312.22 441.356 312.069 440.833 311.767ZM451.464 302.911C448.728 301.332 447.26 299.729 447.059 298.103C446.857 296.477 447.924 294.99 450.257 293.643C452.591 292.295 455.166 291.68 457.982 291.796C460.798 291.912 463.575 292.76 466.311 294.34L471.018 297.057C473.834 298.683 475.323 300.298 475.484 301.901C475.645 303.504 474.559 304.979 472.225 306.326C469.891 307.673 467.337 308.3 464.56 308.207C461.784 308.115 458.988 307.255 456.172 305.629L451.464 302.911ZM469.932 305.002C471.561 304.061 472.215 303.033 471.893 301.918C471.571 300.78 470.374 299.613 468.302 298.416L463.957 295.908C462.991 295.35 462.016 294.903 461.03 294.566C460.024 294.218 459.028 294.003 458.042 293.921C457.057 293.817 456.091 293.852 455.146 294.026C454.22 294.189 453.355 294.502 452.55 294.967C451.726 295.443 451.172 295.948 450.891 296.483C450.609 297.017 450.549 297.574 450.71 298.155C450.871 298.713 451.253 299.282 451.856 299.862C452.44 300.431 453.214 300.995 454.18 301.552L458.525 304.061C460.597 305.257 462.609 305.954 464.56 306.152C466.512 306.326 468.302 305.943 469.932 305.002ZM459.31 301.099C458.787 300.797 458.525 300.426 458.525 299.984C458.525 299.543 458.787 299.171 459.31 298.869C459.833 298.567 460.477 298.416 461.241 298.416C462.006 298.416 462.649 298.567 463.172 298.869C463.695 299.171 463.957 299.543 463.957 299.984C463.957 300.426 463.695 300.797 463.172 301.099C462.649 301.401 462.006 301.552 461.241 301.552C460.477 301.552 459.833 301.401 459.31 301.099ZM488.418 281.576C485.682 279.997 484.213 278.394 484.012 276.768C483.811 275.142 484.877 273.655 487.211 272.308C489.544 270.96 492.119 270.345 494.935 270.461C497.752 270.577 500.528 271.425 503.264 273.005L507.971 275.722C510.788 277.348 512.276 278.963 512.437 280.566C512.598 282.168 511.512 283.644 509.178 284.991C506.845 286.338 504.29 286.965 501.514 286.872C498.738 286.779 495.941 285.92 493.125 284.294L488.418 281.576ZM506.885 283.667C508.515 282.726 509.168 281.698 508.846 280.583C508.525 279.445 507.328 278.278 505.256 277.081L500.91 274.573C499.945 274.015 498.969 273.568 497.983 273.231C496.977 272.883 495.982 272.668 494.996 272.586C494.01 272.482 493.044 272.517 492.099 272.691C491.174 272.854 490.309 273.167 489.504 273.632C488.679 274.108 488.126 274.613 487.844 275.147C487.563 275.682 487.502 276.239 487.663 276.82C487.824 277.377 488.206 277.947 488.81 278.527C489.393 279.096 490.168 279.66 491.133 280.217L495.479 282.726C497.551 283.922 499.562 284.619 501.514 284.817C503.465 284.991 505.256 284.608 506.885 283.667ZM496.263 279.764C495.74 279.462 495.479 279.091 495.479 278.649C495.479 278.208 495.74 277.836 496.263 277.534C496.786 277.232 497.43 277.081 498.194 277.081C498.959 277.081 499.603 277.232 500.126 277.534C500.649 277.836 500.91 278.208 500.91 278.649C500.91 279.091 500.649 279.462 500.126 279.764C499.603 280.066 498.959 280.217 498.194 280.217C497.43 280.217 496.786 280.066 496.263 279.764ZM506.894 270.909C504.158 269.329 502.69 267.726 502.489 266.1C502.287 264.474 503.354 262.987 505.687 261.64C508.021 260.293 510.596 259.677 513.412 259.793C516.229 259.91 519.005 260.757 521.741 262.337L526.448 265.055C529.264 266.681 530.753 268.295 530.914 269.898C531.075 271.501 529.989 272.976 527.655 274.323C525.322 275.671 522.767 276.298 519.99 276.205C517.214 276.112 514.418 275.252 511.602 273.626L506.894 270.909ZM525.362 272.999C526.991 272.058 527.645 271.031 527.323 269.916C527.001 268.777 525.804 267.61 523.732 266.414L519.387 263.905C518.421 263.348 517.446 262.9 516.46 262.564C515.454 262.215 514.458 262 513.473 261.919C512.487 261.814 511.521 261.849 510.576 262.023C509.65 262.186 508.785 262.5 507.981 262.964C507.156 263.44 506.603 263.946 506.321 264.48C506.039 265.014 505.979 265.572 506.14 266.152C506.301 266.71 506.683 267.279 507.287 267.86C507.87 268.429 508.644 268.992 509.61 269.55L513.955 272.058C516.027 273.255 518.039 273.952 519.99 274.149C521.942 274.323 523.732 273.94 525.362 272.999ZM514.74 269.097C514.217 268.795 513.955 268.423 513.955 267.982C513.955 267.54 514.217 267.169 514.74 266.867C515.263 266.565 515.907 266.414 516.671 266.414C517.436 266.414 518.079 266.565 518.602 266.867C519.125 267.169 519.387 267.54 519.387 267.982C519.387 268.423 519.125 268.795 518.602 269.097C518.079 269.399 517.436 269.55 516.671 269.55C515.907 269.55 515.263 269.399 514.74 269.097ZM525.371 260.241C522.635 258.662 521.166 257.059 520.965 255.433C520.764 253.807 521.83 252.32 524.164 250.973C526.498 249.625 529.072 249.01 531.889 249.126C534.705 249.242 537.481 250.09 540.217 251.67L544.925 254.387C547.741 256.013 549.23 257.628 549.391 259.231C549.552 260.833 548.465 262.308 546.132 263.656C543.798 265.003 541.243 265.63 538.467 265.537C535.691 265.444 532.895 264.585 530.078 262.959L525.371 260.241ZM543.838 262.332C545.468 261.391 546.122 260.363 545.8 259.248C545.478 258.11 544.281 256.943 542.209 255.746L537.864 253.237C536.898 252.68 535.922 252.233 534.937 251.896C533.931 251.548 532.935 251.333 531.949 251.251C530.964 251.147 529.998 251.182 529.052 251.356C528.127 251.519 527.262 251.832 526.457 252.297C525.632 252.773 525.079 253.278 524.798 253.812C524.516 254.347 524.456 254.904 524.617 255.485C524.777 256.042 525.16 256.612 525.763 257.192C526.347 257.761 527.121 258.325 528.087 258.882L532.432 261.391C534.504 262.587 536.516 263.284 538.467 263.482C540.419 263.656 542.209 263.273 543.838 262.332ZM533.217 258.429C532.694 258.127 532.432 257.756 532.432 257.314C532.432 256.873 532.694 256.501 533.217 256.199C533.74 255.897 534.383 255.746 535.148 255.746C535.912 255.746 536.556 255.897 537.079 256.199C537.602 256.501 537.864 256.873 537.864 257.314C537.864 257.756 537.602 258.127 537.079 258.429C536.556 258.731 535.912 258.882 535.148 258.882C534.383 258.882 533.74 258.731 533.217 258.429ZM543.848 249.574C541.112 247.994 539.643 246.391 539.442 244.765C539.241 243.139 540.307 241.652 542.641 240.305C544.974 238.958 547.549 238.342 550.366 238.458C553.182 238.575 555.958 239.422 558.694 241.002L563.401 243.72C566.218 245.346 567.707 246.96 567.867 248.563C568.028 250.166 566.942 251.641 564.609 252.988C562.275 254.336 559.72 254.963 556.944 254.87C554.168 254.777 551.371 253.917 548.555 252.291L543.848 249.574ZM562.315 251.664C563.945 250.723 564.598 249.696 564.277 248.581C563.955 247.442 562.758 246.275 560.686 245.079L556.34 242.57C555.375 242.012 554.399 241.565 553.413 241.228C552.407 240.88 551.412 240.665 550.426 240.584C549.44 240.479 548.475 240.514 547.529 240.688C546.604 240.851 545.739 241.165 544.934 241.629C544.109 242.105 543.556 242.611 543.274 243.145C542.993 243.679 542.932 244.237 543.093 244.817C543.254 245.375 543.636 245.944 544.24 246.525C544.823 247.094 545.598 247.657 546.563 248.215L550.909 250.723C552.981 251.92 554.993 252.617 556.944 252.814C558.895 252.988 560.686 252.605 562.315 251.664ZM551.693 247.762C551.17 247.46 550.909 247.088 550.909 246.647C550.909 246.205 551.17 245.834 551.693 245.532C552.216 245.23 552.86 245.079 553.625 245.079C554.389 245.079 555.033 245.23 555.556 245.532C556.079 245.834 556.34 246.205 556.34 246.647C556.34 247.088 556.079 247.46 555.556 247.762C555.033 248.064 554.389 248.215 553.625 248.215C552.86 248.215 552.216 248.064 551.693 247.762Z" fill="white"/>
<path d="M275.143 479.565L266.022 474.299L267.742 473.306L271.365 475.398L271.599 475.262L270.935 471.463L273.137 470.192L273.827 474.984L282.388 475.383L280.121 476.692L273.397 476.3L273.163 476.436L276.863 478.572L275.143 479.565ZM282.675 475.217L275.951 468.567L278.948 466.837L290.467 470.718L288.695 471.742L286.193 470.869L282.935 472.75L284.447 474.194L282.675 475.217ZM281.749 471.599L284.199 470.184L278.648 468.258L278.414 468.394L281.749 471.599ZM291.559 470.088L282.437 464.822L286.399 462.535C286.972 462.204 287.571 461.973 288.197 461.843C288.822 461.712 289.435 461.685 290.034 461.76C290.633 461.835 291.181 462.016 291.676 462.302L291.832 462.392C292.38 462.708 292.692 463.039 292.77 463.385C292.849 463.731 292.775 464.06 292.549 464.371L292.783 464.506C293.148 464.315 293.539 464.23 293.956 464.25C294.364 464.265 294.751 464.378 295.116 464.589L298.1 466.311L296.38 467.305L293.643 465.725C293.435 465.604 293.209 465.539 292.966 465.529C292.731 465.514 292.488 465.579 292.236 465.725L289.839 467.109L293.279 469.095L291.559 470.088ZM288.275 466.206L290.334 465.018C290.742 464.782 290.951 464.536 290.959 464.28C290.968 464.014 290.79 463.776 290.425 463.566L290.295 463.49C289.93 463.28 289.526 463.177 289.083 463.182C288.631 463.182 288.197 463.302 287.78 463.543L285.721 464.732L288.275 466.206ZM301.75 464.204L294.192 459.841L291.534 461.375L289.97 460.473L297.007 456.41L298.57 457.313L295.912 458.848L303.47 463.211L301.75 464.204ZM307.299 461L298.178 455.734L299.898 454.741L309.019 460.007L307.299 461ZM310.735 459.016L301.614 453.75L303.334 452.757L306.956 454.849L307.191 454.713L306.526 450.914L308.729 449.643L309.419 454.435L317.98 454.834L315.713 456.143L308.989 455.751L308.755 455.887L312.455 458.023L310.735 459.016ZM321.94 452.547L320.428 451.675L321.627 450.983L315.529 447.462L314.33 448.154L312.819 447.281L317.509 444.573C318.065 444.252 318.643 444.029 319.243 443.903C319.842 443.768 320.428 443.735 321.002 443.806C321.575 443.866 322.101 444.034 322.578 444.31L322.709 444.385C323.126 444.626 323.391 444.869 323.503 445.115C323.608 445.355 323.625 445.581 323.556 445.792C323.486 445.992 323.386 446.165 323.256 446.311L323.49 446.446C323.734 446.366 324.042 446.303 324.416 446.258C324.78 446.208 325.176 446.216 325.601 446.281C326.036 446.341 326.47 446.496 326.904 446.747L327.035 446.822C327.539 447.113 327.856 447.432 327.986 447.778C328.108 448.119 328.055 448.465 327.83 448.816C327.612 449.162 327.23 449.493 326.683 449.809L321.94 452.547ZM323.295 449.96L324.911 449.027C325.284 448.811 325.493 448.585 325.536 448.35C325.588 448.109 325.445 447.891 325.106 447.695L324.976 447.62C324.637 447.424 324.264 447.339 323.855 447.364C323.447 447.389 323.052 447.512 322.67 447.733L321.054 448.666L323.295 449.96ZM319.49 447.763L321.08 446.845C321.436 446.639 321.636 446.419 321.679 446.183C321.731 445.942 321.597 445.729 321.275 445.543L321.145 445.468C320.815 445.278 320.45 445.197 320.05 445.228C319.642 445.253 319.256 445.37 318.891 445.581L317.301 446.499L319.49 447.763ZM330.152 447.806L323.428 441.156L326.425 439.426L337.944 443.308L336.172 444.331L333.67 443.458L330.412 445.339L331.924 446.783L330.152 447.806ZM329.226 444.188L331.676 442.773L326.125 440.848L325.891 440.983L329.226 444.188ZM339.036 442.677L329.914 437.411L333.185 435.523L342.945 439.066L343.179 438.931L335.231 434.342L336.925 433.364L346.046 438.63L342.775 440.518L333.016 436.975L332.781 437.11L340.73 441.699L339.036 442.677ZM351.114 435.915C350.41 436.321 349.663 436.607 348.873 436.772C348.082 436.938 347.3 436.973 346.527 436.878C345.754 436.782 345.037 436.544 344.377 436.163L344.012 435.952L345.706 434.974L346.071 435.185C346.618 435.501 347.2 435.641 347.817 435.606C348.425 435.566 349.02 435.378 349.602 435.042C350.193 434.701 350.514 434.38 350.566 434.079C350.627 433.773 350.475 433.515 350.11 433.304C349.858 433.159 349.581 433.083 349.276 433.078C348.981 433.068 348.647 433.116 348.273 433.221C347.9 433.317 347.474 433.452 346.996 433.628L346.631 433.763C345.867 434.044 345.155 434.254 344.494 434.395C343.834 434.525 343.209 434.56 342.618 434.5C342.036 434.435 341.467 434.242 340.911 433.921C340.355 433.6 340.012 433.251 339.882 432.875C339.751 432.489 339.821 432.098 340.09 431.702C340.359 431.295 340.82 430.904 341.471 430.528C342.123 430.152 342.813 429.884 343.543 429.723C344.273 429.553 345.002 429.512 345.732 429.603C346.462 429.683 347.157 429.914 347.817 430.295L348.208 430.52L346.514 431.498L346.123 431.273C345.776 431.072 345.428 430.952 345.081 430.912C344.733 430.862 344.386 430.882 344.038 430.972C343.682 431.057 343.33 431.2 342.983 431.401C342.462 431.702 342.175 431.982 342.123 432.243C342.071 432.494 342.214 432.717 342.553 432.913C342.779 433.043 343.026 433.121 343.296 433.146C343.573 433.166 343.882 433.139 344.221 433.063C344.559 432.988 344.95 432.868 345.393 432.702L345.758 432.567C346.549 432.271 347.292 432.048 347.986 431.897C348.69 431.742 349.355 431.689 349.98 431.739C350.606 431.789 351.196 431.975 351.752 432.296C352.308 432.617 352.656 432.983 352.795 433.394C352.934 433.796 352.864 434.217 352.586 434.658C352.308 435.09 351.817 435.508 351.114 435.915ZM355.042 433.436L348.318 426.786L351.315 425.055L362.834 428.937L361.062 429.96L358.56 429.088L355.302 430.969L356.814 432.413L355.042 433.436ZM354.117 429.817L356.566 428.403L351.015 426.477L350.781 426.613L354.117 429.817ZM363.926 428.307L354.804 423.041L356.524 422.048L364.082 426.411L368.252 424.004L369.815 424.906L363.926 428.307Z" fill="white"/>
<path d="M431.968 179.407C432.924 179.471 433.879 179.659 434.727 179.908C435.575 180.157 436.423 180.531 437.163 180.965C437.904 181.4 438.538 181.896 438.959 182.392C439.381 182.888 439.696 183.445 439.798 184.002C440.005 184.745 441.17 185.304 442.446 185.183C443.722 185.063 444.683 184.385 444.475 183.642C444.269 182.776 443.849 182.032 443.218 181.165C442.587 180.298 441.635 179.615 440.577 178.994C439.519 178.373 438.248 177.875 436.87 177.439C435.597 177.065 434.112 176.814 432.625 176.687C431.351 176.56 430.178 177.114 429.961 177.856C429.743 178.597 430.694 179.28 431.968 179.407Z" fill="white"/>
<path d="M434.768 174.218C438.058 174.659 441.238 175.656 443.778 177.146C446.317 178.637 448.004 180.496 448.734 182.415C448.941 183.158 450.319 183.594 451.595 183.473C452.978 183.291 453.62 182.55 453.413 181.808C452.474 179.393 450.472 177.1 447.192 175.175C444.018 173.312 439.989 172.066 435.849 171.499C434.575 171.373 433.191 171.802 432.973 172.544C432.755 173.286 433.388 174.029 434.768 174.218Z" fill="white"/>
<path d="M437.781 168.783C442.557 169.474 447.009 170.969 450.712 173.143C454.416 175.316 456.84 177.981 458.096 180.706C458.516 181.449 459.681 181.884 461.064 181.702C462.34 181.458 463.089 180.779 462.776 179.974C461.418 176.693 458.571 173.656 454.233 171.11C449.895 168.564 444.701 166.882 439.075 166.065C437.802 165.814 436.524 166.306 436.093 167.047C435.769 167.85 436.508 168.532 437.781 168.783Z" fill="white"/>
<path d="M440.795 163.347C446.95 164.351 452.886 166.221 457.754 169.077C462.621 171.934 465.89 175.343 467.458 178.996C467.878 179.739 469.043 180.175 470.426 179.993C471.702 179.748 472.451 179.07 472.138 178.265C470.254 174.179 466.669 170.336 461.167 167.106C455.665 163.877 449.093 161.759 442.089 160.629C440.816 160.379 439.537 160.87 439.107 161.612C438.677 162.353 439.521 163.097 440.795 163.347Z" fill="white"/>
<path d="M391.695 407.517C391.407 407.348 391.264 407.14 391.266 406.892C391.267 406.645 391.413 406.437 391.704 406.27C391.994 406.102 392.351 406.019 392.776 406.02C393.201 406.021 393.558 406.106 393.845 406.275C394.133 406.444 394.276 406.652 394.275 406.899C394.273 407.147 394.127 407.354 393.837 407.522C393.546 407.689 393.189 407.773 392.764 407.772C392.339 407.771 391.982 407.686 391.695 407.517ZM388.477 408.222C387.326 407.546 386.723 406.854 386.668 406.147C386.622 405.434 387.116 404.78 388.148 404.183C389.181 403.587 390.305 403.308 391.52 403.345C392.744 403.378 393.932 403.732 395.083 404.408L397.063 405.57C398.248 406.266 398.855 406.965 398.884 407.667C398.922 408.365 398.424 409.012 397.392 409.608C396.359 410.204 395.239 410.491 394.032 410.469C392.834 410.441 391.642 410.079 390.457 409.384L388.477 408.222ZM395.868 408.714C396.175 408.537 396.385 408.361 396.497 408.189C396.6 408.011 396.627 407.833 396.577 407.654C396.527 407.476 396.405 407.3 396.211 407.127C396.017 406.953 395.771 406.779 395.475 406.605L393.291 405.324C393.012 405.16 392.72 405.023 392.414 404.913C392.109 404.804 391.804 404.734 391.498 404.703C391.192 404.673 390.886 404.687 390.58 404.746C390.265 404.799 389.962 404.91 389.672 405.078C389.382 405.245 389.189 405.42 389.095 405.603C388.991 405.781 388.965 405.959 389.014 406.137C389.064 406.316 389.182 406.494 389.368 406.672C389.553 406.851 389.786 407.022 390.065 407.186L392.249 408.468C392.545 408.642 392.842 408.786 393.138 408.9C393.435 409.015 393.736 409.087 394.042 409.118C394.348 409.148 394.654 409.134 394.96 409.076C395.258 409.012 395.561 408.891 395.868 408.714ZM397.966 404.458L393.039 401.567L399.031 398.107L400.63 399.046L396.329 401.53L398.741 402.946L398.972 402.813C398.761 402.55 398.699 402.255 398.787 401.929C398.874 401.593 399.195 401.265 399.75 400.944C400.168 400.703 400.616 400.528 401.092 400.42C401.569 400.313 402.05 400.267 402.534 400.283C403.018 400.299 403.498 400.377 403.973 400.516C404.457 400.651 404.91 400.843 405.333 401.091L405.409 401.136C405.858 401.399 406.205 401.692 406.449 402.014C406.701 402.331 406.835 402.663 406.85 403.009C406.864 403.346 406.751 403.687 406.511 404.033C406.27 404.379 405.877 404.709 405.331 405.025C404.785 405.34 404.23 405.576 403.668 405.733C403.098 405.885 402.536 405.968 401.984 405.981C401.431 405.985 400.896 405.924 400.378 405.8C399.861 405.665 399.386 405.471 398.955 405.217L398.65 405.038L400.34 404.063L400.492 404.152C400.941 404.415 401.45 404.555 402.019 404.571C402.589 404.578 403.142 404.426 403.68 404.115C404.218 403.805 404.496 403.476 404.516 403.13C404.544 402.779 404.304 402.454 403.796 402.156C403.313 401.873 402.838 401.728 402.371 401.722C401.895 401.711 401.469 401.814 401.094 402.031C400.846 402.174 400.701 402.322 400.657 402.475C400.605 402.624 400.63 402.752 400.731 402.861L397.966 404.458ZM411.286 389.184L413.203 388.61L420.98 397.63L419.05 398.212L411.286 389.184ZM437.755 384.235L439.355 385.174L433.056 388.81L431.304 387.782C430.839 387.509 430.509 387.236 430.315 386.963C430.13 386.686 430.052 386.406 430.079 386.124C430.115 385.837 430.245 385.546 430.468 385.249C430.682 384.948 430.969 384.634 431.329 384.309C431.594 384.067 431.787 383.857 431.907 383.679C432.027 383.492 432.092 383.326 432.102 383.182C432.103 383.034 432.053 382.905 431.951 382.796C431.85 382.677 431.707 382.563 431.52 382.454C431.165 382.245 430.736 382.148 430.235 382.161C429.742 382.17 429.265 382.307 428.804 382.573C428.317 382.854 428.077 383.165 428.083 383.507C428.081 383.843 428.338 384.163 428.854 384.466L429.413 384.794L427.723 385.77L427.012 385.352C426.597 385.109 426.276 384.836 426.049 384.534C425.821 384.221 425.705 383.905 425.699 383.583C425.692 383.251 425.809 382.923 426.05 382.597C426.282 382.266 426.649 381.955 427.153 381.664C427.691 381.354 428.24 381.13 428.802 380.993C429.356 380.85 429.892 380.778 430.41 380.774C430.937 380.765 431.434 380.823 431.901 380.948C432.368 381.063 432.779 381.225 433.134 381.433L433.287 381.523C434.031 381.96 434.436 382.446 434.5 382.98C434.573 383.51 434.241 384.115 433.505 384.796C433.197 385.083 432.962 385.332 432.799 385.544C432.636 385.747 432.541 385.925 432.515 386.078C432.488 386.231 432.517 386.367 432.601 386.486C432.685 386.595 432.816 386.702 432.994 386.806L433.146 386.896L437.755 384.235ZM434.092 377.865L437.293 376.017L442.905 379.311L444.21 378.557L445.81 379.496L444.504 380.25L446.18 381.233L444.49 382.209L442.814 381.225L438.82 383.531L436.509 382.175L434.092 377.865ZM438.451 381.616L438.68 381.75L441.215 380.286L436.441 377.484L436.21 377.617L438.451 381.616Z" fill="white"/>
<path d="M609.636 280.948C602.376 276.687 599.441 270.876 600.815 265.364C595.323 266.03 590.088 267.597 585.808 270.068C574.024 276.872 573.945 287.948 585.632 294.807C597.319 301.666 616.346 301.711 628.13 294.907C632.41 292.436 635.146 289.402 636.335 286.211C626.855 286.965 616.896 285.209 609.636 280.948Z" fill="white"/>
<path d="M602.779 264.018C604.02 260.927 606.721 257.994 610.879 255.594C622.663 248.79 641.69 248.835 653.377 255.694C665.064 262.553 664.986 273.629 653.201 280.433C649.043 282.833 643.984 284.381 638.663 285.078C640.189 279.493 637.276 273.57 629.906 269.245C622.537 264.92 612.387 263.176 602.779 264.018Z" fill="white"/>
</g>
<rect x="2.20737" width="512.19" height="330.052" rx="30.4018" transform="matrix(0.866025 -0.5 0.866025 0.5 0.295731 367.945)" stroke="url(#paint0_linear_1695_4081)" stroke-width="2.54885"/>
</g>
<g filter="url(#filter1_b_1695_4081)">
<g clip-path="url(#clip1_1695_4081)">
<rect width="514.739" height="332.6" rx="31.6762" transform="matrix(0.866025 -0.5 0.866025 0.5 0 257.369)" fill="black" fill-opacity="0.7"/>
<path d="M138.912 238.07C142.719 240.325 148.357 239.555 152.262 238.778C156.272 237.978 158.02 237.941 159.184 238.625C160.96 239.674 159.621 241.362 157.657 242.532C154.231 244.572 151.214 245.167 148.854 245.662L153.466 249.773C155.824 249.27 159.462 247.919 162.589 246.147C169.864 241.946 171.033 237.125 165.491 233.896C158.453 229.799 148.259 235.233 145.167 233.371C144.233 232.805 144.125 231.687 145.867 230.381C146.727 229.733 149.363 228.095 153.894 227.129L149.435 223.149C147.16 223.761 144.434 224.663 141.764 226.204C134.917 230.158 133.741 235.04 138.912 238.07ZM160.435 215.99C159.106 216.757 158.762 217.85 159.451 218.825L173.872 239.151L181.142 234.954L178.591 231.81L187.474 226.681L192.311 228.505L198.719 224.806L166.35 212.574L160.435 215.99ZM168.685 219.579L180.838 224.173L175.093 227.49L168.685 219.579ZM121.737 238.332L142.783 257.1L149.711 253.1L128.661 234.334L121.736 238.332L121.737 238.332ZM111.488 244.248L122.504 258.934L104.09 251.671C102.018 250.87 99.6679 251.073 98.167 251.94L86.3803 258.745L86.9927 259.289C89.9376 258.195 93.5337 257.097 96.1055 256.658C97.6784 256.39 98.453 256.501 100.103 257.067L126.996 266.215L134.317 261.988L118.763 240.049L111.489 244.249" fill="white"/>
<path d="M228.135 334.573L210.482 324.381L210.12 324.59L214.586 331.176L212.082 332.622L211.901 332.517L206.982 325.113L211.901 322.273L230.67 333.109L236.645 329.66L238.998 331.019L224.514 339.381L222.16 338.022L228.135 334.573ZM254.91 319.114L257.264 320.473L242.961 328.731L239.34 326.641C238.374 326.083 237.7 325.508 237.318 324.916C236.915 324.312 236.755 323.696 236.835 323.069C236.915 322.419 237.207 321.751 237.71 321.066C238.213 320.38 238.877 319.66 239.702 318.905C241.09 317.639 241.804 316.565 241.844 315.682C241.905 314.788 241.392 314.027 240.305 313.4L240.124 313.295C239.581 312.982 238.957 312.726 238.253 312.529C237.549 312.331 236.795 312.221 235.99 312.198C235.185 312.175 234.361 312.268 233.516 312.477C232.671 312.662 231.836 312.993 231.011 313.47C229.462 314.364 228.728 315.334 228.808 316.379C228.909 317.413 229.744 318.383 231.313 319.289L232.641 320.055L230.106 321.519L228.597 320.647C227.631 320.09 226.867 319.463 226.304 318.766C225.74 318.069 225.429 317.343 225.368 316.588C225.308 315.833 225.539 315.072 226.062 314.306C226.585 313.539 227.45 312.808 228.657 312.111C229.885 311.402 231.142 310.897 232.429 310.595C233.697 310.281 234.944 310.13 236.171 310.142C237.378 310.142 238.515 310.287 239.581 310.578C240.647 310.845 241.583 311.211 242.387 311.675L242.93 311.989C244.54 312.918 245.415 314.004 245.556 315.247C245.676 316.478 244.872 317.872 243.142 319.428C241.633 320.787 240.778 321.931 240.577 322.86C240.356 323.778 240.909 324.62 242.236 325.386L243.142 325.909L254.91 319.114ZM255.976 309.091L252.475 307.07L254.95 300.555L254.587 300.346L242.638 307.245L240.284 305.886L254.406 297.732L258.269 299.962L255.795 306.478L256.157 306.687L257.364 305.99C258.168 305.526 259.074 305.154 260.079 304.875C261.085 304.597 262.121 304.44 263.188 304.405C264.274 304.358 265.36 304.451 266.447 304.684C267.533 304.893 268.559 305.276 269.524 305.834L270.068 306.147C270.973 306.67 271.637 307.262 272.059 307.924C272.482 308.586 272.663 309.271 272.602 309.98C272.522 310.677 272.21 311.38 271.667 312.088C271.124 312.773 270.339 313.412 269.313 314.004C268.126 314.69 266.879 315.201 265.571 315.538C264.264 315.874 262.966 316.054 261.679 316.078C260.371 316.089 259.114 315.956 257.907 315.677C256.7 315.375 255.613 314.945 254.648 314.388L253.018 313.447L255.553 311.983L257.002 312.82C257.766 313.261 258.571 313.586 259.416 313.795C260.261 313.981 261.115 314.068 261.981 314.057C262.846 314.022 263.701 313.888 264.545 313.656C265.39 313.424 266.175 313.098 266.899 312.68C267.563 312.297 268.066 311.879 268.408 311.426C268.77 310.961 268.971 310.497 269.011 310.032C269.032 309.556 268.901 309.097 268.619 308.656C268.317 308.203 267.865 307.802 267.261 307.454L267.08 307.349C265.813 306.618 264.425 306.281 262.916 306.339C261.387 306.385 260.019 306.757 258.812 307.454L255.976 309.091ZM265.55 291.298L270.469 288.459L285.255 296.995L288.514 295.114L290.868 296.473L287.609 298.354L291.592 300.654L289.057 302.117L285.074 299.818L275.297 305.462L271.797 303.441L265.55 291.298ZM274.754 302.64L275.116 302.849L282.72 298.459L269.021 290.549L268.659 290.758L274.754 302.64ZM307.151 280.173L295.986 273.726L309.203 266.096L311.557 267.455L300.814 273.657L308.358 278.012L308.72 277.803C308.519 277.455 308.398 277.083 308.358 276.688C308.298 276.282 308.338 275.875 308.479 275.469C308.64 275.05 308.911 274.638 309.293 274.232C309.655 273.814 310.168 273.413 310.832 273.03C311.798 272.472 312.844 272.054 313.971 271.775C315.117 271.485 316.274 271.34 317.441 271.34C318.608 271.34 319.764 271.485 320.911 271.775C322.078 272.054 323.164 272.484 324.17 273.064L324.713 273.378C325.719 273.959 326.514 274.603 327.097 275.312C327.66 276.009 327.982 276.74 328.063 277.507C328.123 278.262 327.892 279.023 327.369 279.789C326.846 280.556 325.981 281.288 324.773 281.984C323.546 282.693 322.279 283.216 320.971 283.552C319.664 283.889 318.366 284.058 317.079 284.058C315.791 284.058 314.544 283.907 313.337 283.605C312.13 283.279 311.013 282.821 309.987 282.228L309.143 281.741L311.677 280.277L312.341 280.66C314.011 281.624 315.731 282.083 317.501 282.037C319.271 281.967 320.911 281.497 322.42 280.626C323.224 280.161 323.788 279.673 324.11 279.162C324.432 278.628 324.552 278.105 324.472 277.594C324.391 277.06 324.13 276.549 323.687 276.061C323.224 275.562 322.641 275.109 321.937 274.702L321.756 274.598C321.132 274.237 320.438 273.965 319.674 273.779C318.929 273.581 318.165 273.477 317.38 273.465C316.616 273.442 315.852 273.523 315.087 273.709C314.323 273.872 313.629 274.133 313.005 274.493C312.583 274.737 312.251 274.998 312.009 275.277C311.788 275.544 311.647 275.811 311.587 276.078C311.506 276.334 311.496 276.584 311.557 276.828C311.637 277.06 311.758 277.257 311.919 277.42L307.151 280.173ZM331.934 260.08C330.627 259.325 329.178 258.953 327.589 258.965C325.98 258.965 324.461 259.377 323.033 260.202C322.349 260.597 321.836 261.032 321.494 261.508C321.172 261.973 321.031 262.461 321.071 262.972C321.111 263.46 321.323 263.953 321.705 264.453C322.107 264.94 322.68 265.399 323.425 265.829L326.563 267.641L326.925 267.432C326.523 266.642 326.513 265.846 326.895 265.045C327.297 264.232 328.052 263.506 329.158 262.867C330.124 262.31 331.18 261.886 332.327 261.595C333.453 261.293 334.61 261.148 335.797 261.16C337.004 261.16 338.201 261.317 339.388 261.63C340.575 261.921 341.711 262.379 342.798 263.007L343.16 263.216C344.206 263.82 344.97 264.482 345.453 265.202C345.956 265.91 346.187 266.636 346.147 267.38C346.127 268.111 345.835 268.837 345.272 269.557C344.729 270.266 343.934 270.922 342.888 271.526C341.842 272.13 340.695 272.594 339.448 272.92C338.221 273.233 336.974 273.408 335.706 273.442C334.439 273.454 333.192 273.326 331.965 273.059C330.737 272.769 329.611 272.327 328.585 271.735L320.89 267.292C319.784 266.654 318.969 265.963 318.446 265.219C317.923 264.476 317.681 263.733 317.722 262.989C317.742 262.234 318.013 261.508 318.536 260.811C319.079 260.103 319.854 259.458 320.86 258.878C321.866 258.297 322.952 257.844 324.119 257.519C325.286 257.194 326.473 257.019 327.68 256.996C328.866 256.961 330.043 257.083 331.21 257.362C332.377 257.617 333.463 258.036 334.469 258.616L331.934 260.08ZM340.655 270.237C341.379 269.819 341.922 269.377 342.285 268.913C342.647 268.425 342.828 267.937 342.828 267.449C342.828 266.961 342.647 266.485 342.285 266.021C341.922 265.556 341.389 265.12 340.685 264.714L340.323 264.505C339.619 264.098 338.855 263.796 338.03 263.599C337.205 263.402 336.37 263.303 335.525 263.303C334.68 263.303 333.845 263.413 333.021 263.634C332.196 263.831 331.441 264.127 330.757 264.522C330.074 264.917 329.561 265.353 329.219 265.829C328.877 266.305 328.695 266.793 328.675 267.292C328.675 267.78 328.836 268.256 329.158 268.721C329.48 269.186 329.963 269.604 330.607 269.975L331.18 270.306C331.844 270.69 332.578 270.986 333.383 271.195C334.167 271.392 334.982 271.491 335.827 271.491C336.672 271.491 337.507 271.392 338.332 271.195C339.156 270.974 339.931 270.655 340.655 270.237ZM332.758 252.496L346.88 244.342L350.562 246.468L355.118 259.378C355.34 259.993 355.571 260.498 355.812 260.893C356.054 261.288 356.416 261.625 356.899 261.904L357.804 262.426L355.33 263.855L354.243 263.228C353.881 263.019 353.569 262.804 353.308 262.583C353.066 262.351 352.855 262.101 352.674 261.834C352.493 261.544 352.332 261.23 352.191 260.893C352.051 260.533 351.9 260.121 351.739 259.656L347.424 247.165L347.062 246.956L335.112 253.855L332.758 252.496ZM379.57 250.348C378.504 250.963 377.397 251.439 376.251 251.776C375.084 252.101 373.937 252.299 372.811 252.369C371.664 252.427 370.578 252.357 369.552 252.16C368.526 251.939 367.6 251.59 366.775 251.114L366.413 250.905C365.689 250.487 365.156 250.052 364.814 249.599C364.472 249.146 364.271 248.693 364.211 248.24C364.15 247.787 364.211 247.345 364.392 246.916C364.593 246.474 364.874 246.068 365.236 245.696L364.874 245.487C364.271 245.673 363.627 245.801 362.943 245.87C362.259 245.94 361.565 245.957 360.861 245.923C360.177 245.876 359.503 245.766 358.839 245.591C358.155 245.406 357.522 245.144 356.938 244.808L356.576 244.598C355.771 244.134 355.198 243.617 354.856 243.048C354.494 242.467 354.363 241.869 354.464 241.253C354.584 240.626 354.916 240.005 355.46 239.389C356.003 238.75 356.777 238.141 357.783 237.56L357.964 237.455C358.95 236.886 359.996 236.445 361.102 236.131C362.189 235.806 363.265 235.615 364.331 235.556C365.418 235.487 366.464 235.556 367.469 235.766C368.455 235.963 369.35 236.294 370.155 236.759L370.517 236.968C371.101 237.304 371.553 237.67 371.875 238.065C372.177 238.449 372.358 238.843 372.418 239.25C372.499 239.645 372.469 240.046 372.328 240.452C372.207 240.847 371.996 241.213 371.694 241.55L372.056 241.759C372.7 241.55 373.394 241.393 374.138 241.288C374.903 241.172 375.677 241.131 376.462 241.166C377.246 241.201 378.031 241.317 378.816 241.515C379.6 241.712 380.354 242.02 381.079 242.438L381.441 242.647C382.266 243.123 382.859 243.663 383.221 244.267C383.583 244.848 383.714 245.47 383.613 246.132C383.493 246.782 383.151 247.444 382.587 248.118C382.004 248.78 381.179 249.419 380.113 250.034L379.57 250.348ZM377.729 248.762C379.097 247.972 379.852 247.13 379.992 246.236C380.153 245.33 379.671 244.552 378.544 243.902L378.363 243.797C377.116 243.077 375.707 242.775 374.138 242.891C372.589 242.996 371.121 243.449 369.733 244.25L369.552 244.355C368.164 245.156 367.369 246.01 367.168 246.916C366.987 247.81 367.52 248.617 368.767 249.337L368.948 249.442C370.075 250.092 371.412 250.377 372.961 250.295C374.531 250.203 375.999 249.761 377.367 248.971L377.729 248.762ZM367.288 242.943C368.556 242.212 369.25 241.428 369.371 240.591C369.491 239.755 369.049 239.047 368.043 238.466L367.862 238.361C366.836 237.769 365.619 237.519 364.211 237.612C362.802 237.682 361.454 238.088 360.167 238.832C358.879 239.575 358.165 240.359 358.024 241.184C357.884 241.985 358.326 242.682 359.352 243.274L359.533 243.379C360.539 243.96 361.766 244.215 363.215 244.145C364.663 244.076 366.021 243.675 367.288 242.943ZM405.781 227.619C407.088 228.374 408.547 228.751 410.156 228.751C411.745 228.74 413.254 228.322 414.683 227.497C415.367 227.102 415.87 226.672 416.191 226.208C416.533 225.732 416.684 225.249 416.644 224.762C416.604 224.251 416.393 223.757 416.01 223.281C415.628 222.781 415.055 222.311 414.29 221.87L411.152 220.058L410.79 220.267C411.212 221.045 411.243 221.829 410.88 222.619C410.518 223.409 409.764 224.134 408.617 224.797C407.632 225.366 406.575 225.801 405.449 226.103C404.322 226.405 403.166 226.562 401.979 226.574C400.772 226.574 399.575 226.428 398.388 226.138C397.221 225.836 396.094 225.371 395.008 224.744L394.646 224.535C393.6 223.931 392.825 223.275 392.322 222.567C391.799 221.846 391.548 221.12 391.568 220.389C391.588 219.634 391.87 218.902 392.413 218.194C392.956 217.462 393.761 216.788 394.827 216.173C395.893 215.557 397.05 215.098 398.297 214.796C399.544 214.471 400.802 214.303 402.069 214.291C403.357 214.268 404.614 214.401 405.841 214.692C407.068 214.982 408.195 215.424 409.221 216.016L416.825 220.406C417.952 221.057 418.776 221.753 419.299 222.497C419.823 223.217 420.074 223.954 420.054 224.709C420.034 225.441 419.752 226.161 419.209 226.87C418.666 227.578 417.881 228.229 416.855 228.821C415.829 229.413 414.733 229.872 413.566 230.197C412.399 230.523 411.222 230.703 410.036 230.737C408.829 230.761 407.652 230.639 406.505 230.372C405.338 230.093 404.252 229.663 403.246 229.082L405.781 227.619ZM397.06 217.462C396.336 217.88 395.793 218.333 395.431 218.821C395.089 219.297 394.928 219.785 394.948 220.284C394.968 220.784 395.169 221.271 395.551 221.748C395.913 222.212 396.436 222.642 397.12 223.037L397.482 223.246C398.187 223.652 398.951 223.954 399.776 224.152C400.581 224.338 401.405 224.431 402.25 224.431C403.075 224.419 403.89 224.309 404.694 224.1C405.499 223.891 406.254 223.583 406.958 223.176C407.642 222.781 408.165 222.352 408.527 221.887C408.869 221.411 409.05 220.935 409.07 220.458C409.11 219.971 408.969 219.494 408.647 219.03C408.326 218.565 407.843 218.147 407.199 217.775L406.626 217.444C405.962 217.061 405.228 216.765 404.423 216.556C403.618 216.347 402.793 216.242 401.948 216.242C401.083 216.231 400.228 216.329 399.384 216.539C398.559 216.736 397.784 217.044 397.06 217.462ZM414.511 214.774C411.775 213.194 410.306 211.591 410.105 209.965C409.904 208.339 410.97 206.852 413.304 205.505C415.637 204.158 418.212 203.542 421.029 203.658C423.845 203.775 426.621 204.622 429.357 206.202L434.065 208.92C436.881 210.546 438.37 212.16 438.531 213.763C438.692 215.366 437.605 216.841 435.272 218.188C432.938 219.536 430.383 220.163 427.607 220.07C424.831 219.977 422.035 219.117 419.218 217.491L414.511 214.774ZM432.978 216.864C434.608 215.923 435.262 214.896 434.94 213.781C434.618 212.642 433.421 211.475 431.349 210.279L427.003 207.77C426.038 207.212 425.062 206.765 424.076 206.428C423.071 206.08 422.075 205.865 421.089 205.784C420.103 205.679 419.138 205.714 418.192 205.888C417.267 206.051 416.402 206.365 415.597 206.829C414.772 207.305 414.219 207.811 413.937 208.345C413.656 208.879 413.595 209.437 413.756 210.017C413.917 210.575 414.3 211.144 414.903 211.725C415.486 212.294 416.261 212.857 417.227 213.415L421.572 215.923C423.644 217.12 425.656 217.817 427.607 218.014C429.558 218.188 431.349 217.805 432.978 216.864ZM422.356 212.962C421.833 212.66 421.572 212.288 421.572 211.847C421.572 211.405 421.833 211.034 422.356 210.732C422.879 210.43 423.523 210.279 424.288 210.279C425.052 210.279 425.696 210.43 426.219 210.732C426.742 211.034 427.003 211.405 427.003 211.847C427.003 212.288 426.742 212.66 426.219 212.962C425.696 213.264 425.052 213.415 424.288 213.415C423.523 213.415 422.879 213.264 422.356 212.962ZM432.987 204.106C430.252 202.526 428.783 200.924 428.582 199.298C428.381 197.672 429.447 196.185 431.78 194.838C434.114 193.49 436.689 192.875 439.505 192.991C442.322 193.107 445.098 193.955 447.834 195.534L452.541 198.252C455.358 199.878 456.846 201.493 457.007 203.096C457.168 204.698 456.082 206.173 453.748 207.521C451.415 208.868 448.86 209.495 446.084 209.402C443.308 209.309 440.511 208.45 437.695 206.824L432.987 204.106ZM451.455 206.197C453.084 205.256 453.738 204.228 453.416 203.113C453.095 201.975 451.898 200.808 449.825 199.611L445.48 197.102C444.515 196.545 443.539 196.098 442.553 195.761C441.547 195.413 440.551 195.198 439.566 195.116C438.58 195.012 437.614 195.047 436.669 195.221C435.744 195.383 434.878 195.697 434.074 196.162C433.249 196.638 432.696 197.143 432.414 197.677C432.132 198.212 432.072 198.769 432.233 199.35C432.394 199.907 432.776 200.477 433.38 201.057C433.963 201.626 434.738 202.19 435.703 202.747L440.049 205.256C442.121 206.452 444.132 207.149 446.084 207.347C448.035 207.521 449.825 207.137 451.455 206.197ZM440.833 202.294C440.31 201.992 440.049 201.621 440.049 201.179C440.049 200.738 440.31 200.366 440.833 200.064C441.356 199.762 442 199.611 442.764 199.611C443.529 199.611 444.173 199.762 444.696 200.064C445.219 200.366 445.48 200.738 445.48 201.179C445.48 201.621 445.219 201.992 444.696 202.294C444.173 202.596 443.529 202.747 442.764 202.747C442 202.747 441.356 202.596 440.833 202.294ZM451.464 193.439C448.728 191.859 447.26 190.256 447.059 188.63C446.857 187.004 447.924 185.517 450.257 184.17C452.591 182.823 455.166 182.207 457.982 182.323C460.798 182.439 463.575 183.287 466.311 184.867L471.018 187.585C473.834 189.211 475.323 190.825 475.484 192.428C475.645 194.031 474.559 195.506 472.225 196.853C469.891 198.201 467.337 198.828 464.56 198.735C461.784 198.642 458.988 197.782 456.172 196.156L451.464 193.439ZM469.932 195.529C471.561 194.588 472.215 193.56 471.893 192.445C471.571 191.307 470.374 190.14 468.302 188.944L463.957 186.435C462.991 185.877 462.016 185.43 461.03 185.093C460.024 184.745 459.028 184.53 458.042 184.449C457.057 184.344 456.091 184.379 455.146 184.553C454.22 184.716 453.355 185.03 452.55 185.494C451.726 185.97 451.172 186.476 450.891 187.01C450.609 187.544 450.549 188.102 450.71 188.682C450.871 189.24 451.253 189.809 451.856 190.39C452.44 190.959 453.214 191.522 454.18 192.08L458.525 194.588C460.597 195.785 462.609 196.482 464.56 196.679C466.512 196.853 468.302 196.47 469.932 195.529ZM459.31 191.627C458.787 191.325 458.525 190.953 458.525 190.512C458.525 190.07 458.787 189.699 459.31 189.397C459.833 189.095 460.477 188.944 461.241 188.944C462.006 188.944 462.649 189.095 463.172 189.397C463.695 189.699 463.957 190.07 463.957 190.512C463.957 190.953 463.695 191.325 463.172 191.627C462.649 191.929 462.006 192.08 461.241 192.08C460.477 192.08 459.833 191.929 459.31 191.627ZM488.418 172.103C485.682 170.524 484.213 168.921 484.012 167.295C483.811 165.669 484.877 164.182 487.211 162.835C489.544 161.488 492.119 160.872 494.935 160.988C497.752 161.104 500.528 161.952 503.264 163.532L507.971 166.25C510.788 167.876 512.276 169.49 512.437 171.093C512.598 172.696 511.512 174.171 509.178 175.518C506.845 176.865 504.29 177.493 501.514 177.4C498.738 177.307 495.941 176.447 493.125 174.821L488.418 172.103ZM506.885 174.194C508.515 173.253 509.168 172.225 508.846 171.11C508.525 169.972 507.328 168.805 505.256 167.609L500.91 165.1C499.945 164.542 498.969 164.095 497.983 163.758C496.977 163.41 495.982 163.195 494.996 163.114C494.01 163.009 493.044 163.044 492.099 163.218C491.174 163.381 490.309 163.695 489.504 164.159C488.679 164.635 488.126 165.141 487.844 165.675C487.563 166.209 487.502 166.767 487.663 167.347C487.824 167.905 488.206 168.474 488.81 169.055C489.393 169.624 490.168 170.187 491.133 170.745L495.479 173.253C497.551 174.45 499.562 175.147 501.514 175.344C503.465 175.518 505.256 175.135 506.885 174.194ZM496.263 170.292C495.74 169.99 495.479 169.618 495.479 169.177C495.479 168.735 495.74 168.364 496.263 168.062C496.786 167.76 497.43 167.609 498.194 167.609C498.959 167.609 499.603 167.76 500.126 168.062C500.649 168.364 500.91 168.735 500.91 169.177C500.91 169.618 500.649 169.99 500.126 170.292C499.603 170.594 498.959 170.745 498.194 170.745C497.43 170.745 496.786 170.594 496.263 170.292ZM506.894 161.436C504.158 159.856 502.69 158.254 502.489 156.628C502.287 155.001 503.354 153.515 505.687 152.167C508.021 150.82 510.596 150.205 513.412 150.321C516.229 150.437 519.005 151.285 521.741 152.864L526.448 155.582C529.264 157.208 530.753 158.823 530.914 160.425C531.075 162.028 529.989 163.503 527.655 164.851C525.322 166.198 522.767 166.825 519.99 166.732C517.214 166.639 514.418 165.78 511.602 164.154L506.894 161.436ZM525.362 163.527C526.991 162.586 527.645 161.558 527.323 160.443C527.001 159.305 525.804 158.137 523.732 156.941L519.387 154.432C518.421 153.875 517.446 153.428 516.46 153.091C515.454 152.742 514.458 152.528 513.473 152.446C512.487 152.342 511.521 152.377 510.576 152.551C509.65 152.713 508.785 153.027 507.981 153.492C507.156 153.968 506.603 154.473 506.321 155.007C506.039 155.542 505.979 156.099 506.14 156.68C506.301 157.237 506.683 157.806 507.287 158.387C507.87 158.956 508.644 159.52 509.61 160.077L513.955 162.586C516.027 163.782 518.039 164.479 519.99 164.676C521.942 164.851 523.732 164.467 525.362 163.527ZM514.74 159.624C514.217 159.322 513.955 158.95 513.955 158.509C513.955 158.068 514.217 157.696 514.74 157.394C515.263 157.092 515.907 156.941 516.671 156.941C517.436 156.941 518.079 157.092 518.602 157.394C519.125 157.696 519.387 158.068 519.387 158.509C519.387 158.95 519.125 159.322 518.602 159.624C518.079 159.926 517.436 160.077 516.671 160.077C515.907 160.077 515.263 159.926 514.74 159.624ZM525.371 150.768C522.635 149.189 521.166 147.586 520.965 145.96C520.764 144.334 521.83 142.847 524.164 141.5C526.498 140.153 529.072 139.537 531.889 139.653C534.705 139.769 537.481 140.617 540.217 142.197L544.925 144.915C547.741 146.541 549.23 148.155 549.391 149.758C549.552 151.361 548.465 152.836 546.132 154.183C543.798 155.53 541.243 156.158 538.467 156.065C535.691 155.972 532.895 155.112 530.078 153.486L525.371 150.768ZM543.838 152.859C545.468 151.918 546.122 150.89 545.8 149.775C545.478 148.637 544.281 147.47 542.209 146.274L537.864 143.765C536.898 143.207 535.922 142.76 534.937 142.423C533.931 142.075 532.935 141.86 531.949 141.779C530.964 141.674 529.998 141.709 529.052 141.883C528.127 142.046 527.262 142.359 526.457 142.824C525.632 143.3 525.079 143.805 524.798 144.34C524.516 144.874 524.456 145.432 524.617 146.012C524.777 146.57 525.16 147.139 525.763 147.72C526.347 148.289 527.121 148.852 528.087 149.41L532.432 151.918C534.504 153.115 536.516 153.811 538.467 154.009C540.419 154.183 542.209 153.8 543.838 152.859ZM533.217 148.957C532.694 148.655 532.432 148.283 532.432 147.842C532.432 147.4 532.694 147.029 533.217 146.727C533.74 146.425 534.383 146.274 535.148 146.274C535.912 146.274 536.556 146.425 537.079 146.727C537.602 147.029 537.864 147.4 537.864 147.842C537.864 148.283 537.602 148.655 537.079 148.957C536.556 149.259 535.912 149.41 535.148 149.41C534.383 149.41 533.74 149.259 533.217 148.957ZM543.848 140.101C541.112 138.521 539.643 136.919 539.442 135.292C539.241 133.666 540.307 132.18 542.641 130.832C544.974 129.485 547.549 128.87 550.366 128.986C553.182 129.102 555.958 129.95 558.694 131.529L563.401 134.247C566.218 135.873 567.707 137.488 567.867 139.09C568.028 140.693 566.942 142.168 564.609 143.516C562.275 144.863 559.72 145.49 556.944 145.397C554.168 145.304 551.371 144.445 548.555 142.819L543.848 140.101ZM562.315 142.192C563.945 141.251 564.598 140.223 564.277 139.108C563.955 137.97 562.758 136.802 560.686 135.606L556.34 133.097C555.375 132.54 554.399 132.093 553.413 131.756C552.407 131.407 551.412 131.192 550.426 131.111C549.44 131.007 548.475 131.042 547.529 131.216C546.604 131.378 545.739 131.692 544.934 132.157C544.109 132.633 543.556 133.138 543.274 133.672C542.993 134.206 542.932 134.764 543.093 135.345C543.254 135.902 543.636 136.471 544.24 137.052C544.823 137.621 545.598 138.184 546.563 138.742L550.909 141.251C552.981 142.447 554.993 143.144 556.944 143.341C558.895 143.516 560.686 143.132 562.315 142.192ZM551.693 138.289C551.17 137.987 550.909 137.615 550.909 137.174C550.909 136.733 551.17 136.361 551.693 136.059C552.216 135.757 552.86 135.606 553.625 135.606C554.389 135.606 555.033 135.757 555.556 136.059C556.079 136.361 556.34 136.733 556.34 137.174C556.34 137.615 556.079 137.987 555.556 138.289C555.033 138.591 554.389 138.742 553.625 138.742C552.86 138.742 552.216 138.591 551.693 138.289Z" fill="white"/>
<path d="M275.143 370.093L266.022 364.827L267.742 363.834L271.365 365.925L271.599 365.79L270.935 361.99L273.137 360.719L273.827 365.511L282.388 365.91L280.121 367.219L273.397 366.828L273.163 366.963L276.863 369.1L275.143 370.093ZM282.675 365.745L275.951 359.094L278.948 357.364L290.467 361.246L288.695 362.269L286.193 361.396L282.935 363.277L284.447 364.721L282.675 365.745ZM281.749 362.126L284.199 360.712L278.648 358.786L278.414 358.921L281.749 362.126ZM291.559 360.615L282.437 355.349L286.399 353.062C286.972 352.731 287.571 352.501 288.197 352.37C288.822 352.24 289.435 352.212 290.034 352.287C290.633 352.363 291.181 352.543 291.676 352.829L291.832 352.919C292.38 353.235 292.692 353.566 292.77 353.912C292.849 354.258 292.775 354.587 292.549 354.898L292.783 355.033C293.148 354.843 293.539 354.757 293.956 354.777C294.364 354.793 294.751 354.905 295.116 355.116L298.1 356.839L296.38 357.832L293.643 356.252C293.435 356.132 293.209 356.066 292.966 356.056C292.731 356.041 292.488 356.107 292.236 356.252L289.839 357.636L293.279 359.622L291.559 360.615ZM288.275 356.734L290.334 355.545C290.742 355.309 290.951 355.063 290.959 354.808C290.968 354.542 290.79 354.304 290.425 354.093L290.295 354.018C289.93 353.807 289.526 353.704 289.083 353.709C288.631 353.709 288.197 353.83 287.78 354.07L285.721 355.259L288.275 356.734ZM301.75 354.731L294.192 350.368L291.534 351.903L289.97 351L297.007 346.938L298.57 347.84L295.912 349.375L303.47 353.738L301.75 354.731ZM307.299 351.527L298.178 346.261L299.898 345.268L309.019 350.534L307.299 351.527ZM310.735 349.544L301.614 344.278L303.334 343.285L306.956 345.376L307.191 345.241L306.526 341.441L308.729 340.17L309.419 344.962L317.98 345.361L315.713 346.67L308.989 346.279L308.755 346.414L312.455 348.551L310.735 349.544ZM321.94 343.075L320.428 342.202L321.627 341.51L315.529 337.989L314.33 338.681L312.819 337.809L317.509 335.1C318.065 334.779 318.643 334.556 319.243 334.431C319.842 334.295 320.428 334.263 321.002 334.333C321.575 334.393 322.101 334.561 322.578 334.837L322.709 334.912C323.126 335.153 323.391 335.396 323.503 335.642C323.608 335.883 323.625 336.108 323.556 336.319C323.486 336.52 323.386 336.693 323.256 336.838L323.49 336.974C323.734 336.893 324.042 336.831 324.416 336.786C324.78 336.735 325.176 336.743 325.601 336.808C326.036 336.868 326.47 337.024 326.904 337.275L327.035 337.35C327.539 337.641 327.856 337.959 327.986 338.305C328.108 338.646 328.055 338.992 327.83 339.343C327.612 339.689 327.23 340.02 326.683 340.336L321.94 343.075ZM323.295 340.487L324.911 339.554C325.284 339.338 325.493 339.113 325.536 338.877C325.588 338.636 325.445 338.418 325.106 338.222L324.976 338.147C324.637 337.952 324.264 337.866 323.855 337.891C323.447 337.916 323.052 338.039 322.67 338.26L321.054 339.193L323.295 340.487ZM319.49 338.29L321.08 337.372C321.436 337.167 321.636 336.946 321.679 336.71C321.731 336.47 321.597 336.256 321.275 336.071L321.145 335.996C320.815 335.805 320.45 335.725 320.05 335.755C319.642 335.78 319.256 335.898 318.891 336.108L317.301 337.026L319.49 338.29ZM330.152 338.334L323.428 331.683L326.425 329.953L337.944 333.835L336.172 334.858L333.67 333.985L330.412 335.866L331.924 337.311L330.152 338.334ZM329.226 334.715L331.676 333.301L326.125 331.375L325.891 331.51L329.226 334.715ZM339.036 333.205L329.914 327.938L333.185 326.05L342.945 329.593L343.179 329.458L335.231 324.869L336.925 323.891L346.046 329.157L342.775 331.045L333.016 327.502L332.781 327.637L340.73 332.227L339.036 333.205ZM351.114 326.442C350.41 326.848 349.663 327.134 348.873 327.3C348.082 327.465 347.3 327.5 346.527 327.405C345.754 327.31 345.037 327.071 344.377 326.69L344.012 326.48L345.706 325.502L346.071 325.712C346.618 326.028 347.2 326.169 347.817 326.133C348.425 326.093 349.02 325.905 349.602 325.569C350.193 325.228 350.514 324.907 350.566 324.606C350.627 324.3 350.475 324.042 350.11 323.831C349.858 323.686 349.581 323.611 349.276 323.606C348.981 323.596 348.647 323.643 348.273 323.749C347.9 323.844 347.474 323.979 346.996 324.155L346.631 324.29C345.867 324.571 345.155 324.782 344.494 324.922C343.834 325.053 343.209 325.088 342.618 325.028C342.036 324.962 341.467 324.769 340.911 324.448C340.355 324.127 340.012 323.779 339.882 323.403C339.751 323.016 339.821 322.625 340.09 322.229C340.359 321.823 340.82 321.432 341.471 321.055C342.123 320.679 342.813 320.411 343.543 320.25C344.273 320.08 345.002 320.04 345.732 320.13C346.462 320.21 347.157 320.441 347.817 320.822L348.208 321.048L346.514 322.026L346.123 321.8C345.776 321.6 345.428 321.479 345.081 321.439C344.733 321.389 344.386 321.409 344.038 321.499C343.682 321.584 343.33 321.727 342.983 321.928C342.462 322.229 342.175 322.51 342.123 322.771C342.071 323.021 342.214 323.245 342.553 323.44C342.779 323.571 343.026 323.648 343.296 323.673C343.573 323.693 343.882 323.666 344.221 323.591C344.559 323.515 344.95 323.395 345.393 323.23L345.758 323.094C346.549 322.798 347.292 322.575 347.986 322.425C348.69 322.269 349.355 322.216 349.98 322.267C350.606 322.317 351.196 322.502 351.752 322.823C352.308 323.144 352.656 323.51 352.795 323.922C352.934 324.323 352.864 324.744 352.586 325.186C352.308 325.617 351.817 326.036 351.114 326.442ZM355.042 323.963L348.318 317.313L351.315 315.583L362.834 319.465L361.062 320.488L358.56 319.615L355.302 321.496L356.814 322.94L355.042 323.963ZM354.117 320.345L356.566 318.93L351.015 317.005L350.781 317.14L354.117 320.345ZM363.926 318.834L354.804 313.568L356.524 312.575L364.082 316.938L368.252 314.531L369.815 315.434L363.926 318.834Z" fill="white"/>
<path d="M431.968 69.9341C432.924 69.9982 433.879 70.186 434.727 70.4354C435.575 70.6848 436.423 71.0579 437.163 71.4926C437.904 71.9273 438.538 72.4235 438.959 72.9193C439.381 73.4151 439.696 73.9725 439.798 74.5293C440.005 75.272 441.17 75.8314 442.446 75.7107C443.722 75.59 444.683 74.912 444.475 74.1693C444.269 73.303 443.849 72.5598 443.218 71.6924C442.587 70.8251 441.635 70.1425 440.577 69.5215C439.519 68.9006 438.248 68.4028 436.87 67.9666C435.597 67.5925 434.112 67.3416 432.625 67.2144C431.351 67.0876 430.178 67.6415 429.961 68.3831C429.743 69.1248 430.694 69.8074 431.968 69.9341Z" fill="white"/>
<path d="M434.768 64.7455C438.058 65.1863 441.238 66.1833 443.778 67.6737C446.317 69.164 448.004 71.0235 448.734 72.9425C448.941 73.6851 450.319 74.1213 451.595 74.0006C452.978 73.8184 453.62 73.0777 453.413 72.3351C452.474 69.9208 450.472 67.6277 447.192 65.7027C444.018 63.8397 439.989 62.5932 435.849 62.0268C434.575 61.9001 433.191 62.3297 432.973 63.0714C432.755 63.8131 433.388 64.5567 434.768 64.7455Z" fill="white"/>
<path d="M437.781 59.3101C442.557 60.0017 447.009 61.4966 450.712 63.67C454.416 65.8435 456.84 68.5086 458.096 71.2329C458.516 71.9761 459.681 72.4118 461.064 72.2295C462.34 71.9851 463.089 71.3066 462.776 70.5018C461.418 67.2207 458.571 64.1834 454.233 61.6374C449.895 59.0914 444.701 57.4092 439.075 56.5919C437.802 56.3415 436.524 56.8332 436.093 57.5744C435.769 58.3776 436.508 59.0597 437.781 59.3101Z" fill="white"/>
<path d="M440.795 53.8747C446.95 54.8788 452.886 56.7483 457.754 59.6048C462.621 62.4613 465.89 65.8707 467.458 69.5234C467.878 70.2665 469.043 70.7022 470.426 70.52C471.702 70.2756 472.451 69.597 472.138 68.7923C470.254 64.7059 466.669 60.8629 461.167 57.6338C455.665 54.4047 449.093 52.2863 442.089 51.1565C440.816 50.9061 439.537 51.3978 439.107 52.139C438.677 52.8801 439.521 53.6243 440.795 53.8747Z" fill="white"/>
<path d="M391.695 298.044C391.407 297.875 391.264 297.667 391.266 297.42C391.267 297.172 391.413 296.965 391.704 296.797C391.994 296.63 392.351 296.546 392.776 296.547C393.201 296.548 393.558 296.633 393.845 296.802C394.133 296.971 394.276 297.179 394.275 297.427C394.273 297.674 394.127 297.882 393.837 298.049C393.546 298.217 393.189 298.3 392.764 298.299C392.339 298.298 391.982 298.213 391.695 298.044ZM388.477 298.749C387.326 298.073 386.723 297.382 386.668 296.674C386.622 295.961 387.116 295.307 388.148 294.711C389.181 294.114 390.305 293.835 391.52 293.873C392.744 293.905 393.932 294.259 395.083 294.935L397.063 296.097C398.248 296.793 398.855 297.492 398.884 298.195C398.922 298.892 398.424 299.539 397.392 300.136C396.359 300.732 395.239 301.019 394.032 300.996C392.834 300.968 391.642 300.607 390.457 299.911L388.477 298.749ZM395.868 299.241C396.175 299.064 396.385 298.889 396.497 298.716C396.6 298.538 396.627 298.36 396.577 298.182C396.527 298.003 396.405 297.828 396.211 297.654C396.017 297.48 395.771 297.307 395.475 297.133L393.291 295.851C393.012 295.687 392.72 295.55 392.414 295.441C392.109 295.331 391.804 295.261 391.498 295.231C391.192 295.2 390.886 295.214 390.58 295.273C390.265 295.327 389.962 295.437 389.672 295.605C389.382 295.772 389.189 295.948 389.095 296.13C388.991 296.308 388.965 296.486 389.014 296.665C389.064 296.843 389.182 297.021 389.368 297.2C389.553 297.378 389.786 297.55 390.065 297.714L392.249 298.995C392.545 299.169 392.842 299.313 393.138 299.428C393.435 299.542 393.736 299.615 394.042 299.645C394.348 299.676 394.654 299.662 394.96 299.603C395.258 299.539 395.561 299.419 395.868 299.241ZM397.966 294.985L393.039 292.094L399.031 288.635L400.63 289.574L396.329 292.057L398.741 293.473L398.972 293.34C398.761 293.077 398.699 292.783 398.787 292.456C398.874 292.12 399.195 291.792 399.75 291.472C400.168 291.23 400.616 291.056 401.092 290.948C401.569 290.84 402.05 290.794 402.534 290.81C403.018 290.826 403.498 290.904 403.973 291.044C404.457 291.178 404.91 291.37 405.333 291.618L405.409 291.663C405.858 291.926 406.205 292.219 406.449 292.541C406.701 292.859 406.835 293.19 406.85 293.537C406.864 293.873 406.751 294.214 406.511 294.56C406.27 294.906 405.877 295.237 405.331 295.552C404.785 295.867 404.23 296.103 403.668 296.26C403.098 296.412 402.536 296.495 401.984 296.509C401.431 296.512 400.896 296.452 400.378 296.327C399.861 296.192 399.386 295.998 398.955 295.745L398.65 295.566L400.34 294.59L400.492 294.68C400.941 294.943 401.45 295.083 402.019 295.099C402.589 295.105 403.142 294.953 403.68 294.643C404.218 294.332 404.496 294.004 404.516 293.657C404.544 293.306 404.304 292.982 403.796 292.683C403.313 292.4 402.838 292.256 402.371 292.25C401.895 292.239 401.469 292.342 401.094 292.558C400.846 292.701 400.701 292.849 400.657 293.003C400.605 293.151 400.63 293.28 400.731 293.389L397.966 294.985ZM411.286 279.711L413.203 279.137L420.98 288.158L419.05 288.74L411.286 279.711ZM437.755 274.762L439.355 275.701L433.056 279.338L431.304 278.309C430.839 278.036 430.509 277.763 430.315 277.491C430.13 277.213 430.052 276.933 430.079 276.651C430.115 276.365 430.245 276.073 430.468 275.777C430.682 275.475 430.969 275.162 431.329 274.836C431.594 274.594 431.787 274.384 431.907 274.207C432.027 274.019 432.092 273.853 432.102 273.71C432.103 273.561 432.053 273.433 431.951 273.324C431.85 273.205 431.707 273.09 431.52 272.981C431.165 272.772 430.736 272.675 430.235 272.689C429.742 272.697 429.265 272.835 428.804 273.101C428.317 273.382 428.077 273.693 428.083 274.034C428.081 274.371 428.338 274.69 428.854 274.993L429.413 275.321L427.723 276.297L427.012 275.88C426.597 275.636 426.276 275.363 426.049 275.061C425.821 274.749 425.705 274.432 425.699 274.11C425.692 273.779 425.809 273.45 426.05 273.124C426.282 272.793 426.649 272.482 427.153 272.191C427.691 271.881 428.24 271.657 428.802 271.52C429.356 271.378 429.892 271.305 430.41 271.301C430.937 271.293 431.434 271.351 431.901 271.475C432.368 271.59 432.779 271.752 433.134 271.961L433.287 272.05C434.031 272.487 434.436 272.973 434.5 273.508C434.573 274.037 434.241 274.643 433.505 275.324C433.197 275.61 432.962 275.859 432.799 276.072C432.636 276.274 432.541 276.452 432.515 276.605C432.488 276.759 432.517 276.895 432.601 277.014C432.685 277.123 432.816 277.229 432.994 277.334L433.146 277.423L437.755 274.762ZM434.092 268.392L437.293 266.544L442.905 269.838L444.21 269.084L445.81 270.023L444.504 270.777L446.18 271.761L444.49 272.736L442.814 271.753L438.82 274.059L436.509 272.702L434.092 268.392ZM438.451 272.143L438.68 272.277L441.215 270.814L436.441 268.012L436.21 268.145L438.451 272.143Z" fill="white"/>
<path d="M609.636 171.475C602.376 167.214 599.441 161.403 600.815 155.891C595.323 156.557 590.088 158.125 585.808 160.596C574.024 167.399 573.945 178.475 585.632 185.334C597.319 192.193 616.346 192.238 628.13 185.435C632.41 182.964 635.146 179.929 636.335 176.738C626.855 177.492 616.896 175.736 609.636 171.475Z" fill="white"/>
<path d="M602.779 154.546C604.02 151.454 606.721 148.521 610.879 146.121C622.663 139.317 641.69 139.362 653.377 146.222C665.064 153.081 664.986 164.156 653.201 170.96C649.043 173.361 643.984 174.909 638.663 175.605C640.189 170.02 637.276 164.098 629.906 159.772C622.537 155.447 612.387 153.703 602.779 154.546Z" fill="white"/>
</g>
<rect x="2.20737" width="512.19" height="330.052" rx="30.4018" transform="matrix(0.866025 -0.5 0.866025 0.5 0.295731 258.473)" stroke="url(#paint1_linear_1695_4081)" stroke-width="2.54885"/>
</g>
<defs>
<filter id="filter0_b_1695_4081" x="-31.6762" y="77.7961" width="797.17" height="487.022" filterUnits="userSpaceOnUse" color-interpolation-filters="sRGB">
<feFlood flood-opacity="0" result="BackgroundImageFix"/>
<feGaussianBlur in="BackgroundImageFix" stdDeviation="15.8381"/>
<feComposite in2="SourceAlpha" operator="in" result="effect1_backgroundBlur_1695_4081"/>
<feBlend mode="normal" in="SourceGraphic" in2="effect1_backgroundBlur_1695_4081" result="shape"/>
</filter>
<filter id="filter1_b_1695_4081" x="-31.6762" y="-31.6765" width="797.17" height="487.022" filterUnits="userSpaceOnUse" color-interpolation-filters="sRGB">
<feFlood flood-opacity="0" result="BackgroundImageFix"/>
<feGaussianBlur in="BackgroundImageFix" stdDeviation="15.8381"/>
<feComposite in2="SourceAlpha" operator="in" result="effect1_backgroundBlur_1695_4081"/>
<feBlend mode="normal" in="SourceGraphic" in2="effect1_backgroundBlur_1695_4081" result="shape"/>
</filter>
<linearGradient id="paint0_linear_1695_4081" x1="7.68076" y1="6.73782" x2="520.739" y2="331.048" gradientUnits="userSpaceOnUse">
<stop offset="0.0182506" stop-color="white" stop-opacity="0.5"/>
<stop offset="1" stop-color="white" stop-opacity="0.1"/>
</linearGradient>
<linearGradient id="paint1_linear_1695_4081" x1="7.68076" y1="6.73782" x2="520.739" y2="331.048" gradientUnits="userSpaceOnUse">
<stop offset="0.0182506" stop-color="white" stop-opacity="0.5"/>
<stop offset="1" stop-color="white" stop-opacity="0.1"/>
</linearGradient>
<clipPath id="clip0_1695_4081">
<rect width="514.739" height="332.6" rx="31.6762" transform="matrix(0.866025 -0.5 0.866025 0.5 0 366.842)" fill="white"/>
</clipPath>
<clipPath id="clip1_1695_4081">
<rect width="514.739" height="332.6" rx="31.6762" transform="matrix(0.866025 -0.5 0.866025 0.5 0 257.369)" fill="white"/>
</clipPath>
</defs>
</svg>
