<svg width="191" height="220" viewBox="0 0 191 220" fill="none" xmlns="http://www.w3.org/2000/svg">
<g clip-path="url(#clip0_1788_1431)">
<rect x="49.3164" y="0.504883" width="146" height="188" rx="10" transform="rotate(15 49.3164 0.504883)" fill="#161C28"/>
<circle cx="9.41319" cy="164.26" r="79" transform="rotate(15 9.41319 164.26)" fill="#232937"/>
<circle cx="203.58" cy="47.4519" r="79" transform="rotate(15 203.58 47.4519)" fill="#232937"/>
<circle opacity="0.5" cx="84.7559" cy="34.6574" r="14" transform="rotate(15 84.7559 34.6574)" fill="white"/>
<circle opacity="0.5" cx="68.6895" cy="30.3525" r="14" transform="rotate(15 68.6895 30.3525)" fill="white"/>
<path d="M47.1097 78.5945L46.0889 78.3209C46.1072 78.0111 46.0707 77.7249 45.9793 77.4622C45.8907 77.2002 45.7596 76.9651 45.586 76.7568C45.4159 76.5465 45.2121 76.3684 44.9748 76.2224C44.7374 76.0765 44.4788 75.966 44.1989 75.891C43.6885 75.7542 43.1915 75.7593 42.7081 75.9062C42.2273 76.0539 41.7976 76.3461 41.4188 76.7828C41.0428 77.2203 40.7569 77.804 40.5614 78.5339C40.3658 79.2638 40.3214 79.9123 40.4284 80.4791C40.538 81.0467 40.7641 81.5147 41.1066 81.8829C41.4519 82.2519 41.8797 82.5047 42.3901 82.6415C42.67 82.7165 42.9492 82.7501 43.2277 82.7424C43.5063 82.7347 43.7714 82.6837 44.0231 82.5894C44.2784 82.4931 44.5098 82.3536 44.7176 82.1711C44.9288 81.9865 45.1036 81.7568 45.2419 81.4821L46.2627 81.7557C46.0704 82.1659 45.8272 82.514 45.5329 82.7998C45.2387 83.0857 44.9086 83.3075 44.5428 83.4654C44.1777 83.6205 43.7907 83.7094 43.3816 83.7322C42.9754 83.7557 42.5595 83.7104 42.1342 83.5965C41.4153 83.4038 40.8229 83.0569 40.3573 82.5556C39.8916 82.0544 39.585 81.4369 39.4374 80.7033C39.2899 79.9697 39.3352 79.1583 39.5735 78.2692C39.8117 77.3801 40.1781 76.6548 40.6727 76.0932C41.1673 75.5316 41.7415 75.1502 42.3955 74.949C43.0494 74.7477 43.7358 74.7434 44.4548 74.9361C44.8801 75.05 45.2628 75.2187 45.6029 75.4422C45.9458 75.6665 46.2362 75.9384 46.474 76.258C46.7127 76.5749 46.8879 76.9306 46.9998 77.3253C47.1124 77.7173 47.1491 78.1403 47.1097 78.5945ZM47.0746 84.7967L48.7687 78.4743L49.7072 78.7258L49.4513 79.6807L49.5172 79.6984C49.7163 79.4164 49.9928 79.2185 50.3469 79.1045C50.701 78.9906 51.0673 78.9843 51.446 79.0858C51.5174 79.1049 51.6062 79.1302 51.7125 79.1616C51.8187 79.193 51.8986 79.2188 51.952 79.239L51.6873 80.2269C51.6566 80.2098 51.5844 80.1773 51.4708 80.1292C51.3607 80.0791 51.2412 80.0368 51.1122 80.0022C50.8049 79.9199 50.5132 79.9108 50.2372 79.9751C49.9646 80.0373 49.7282 80.1622 49.5279 80.3498C49.3312 80.5353 49.1946 80.7707 49.1181 81.0561L48.0461 85.057L47.0746 84.7967ZM53.8104 86.7427C53.2012 86.5795 52.7118 86.3042 52.342 85.9169C51.9758 85.5276 51.7383 85.0581 51.6297 84.5085C51.5246 83.9568 51.5588 83.3571 51.7324 82.7095C51.9059 82.0619 52.1768 81.5227 52.5452 81.092C52.917 80.6593 53.3527 80.3614 53.8523 80.1982C54.3554 80.033 54.8923 80.0269 55.4631 80.1798C55.7924 80.268 56.1029 80.4101 56.3945 80.6058C56.6862 80.8016 56.9306 81.0583 57.1279 81.3759C57.3259 81.6907 57.449 82.0707 57.4973 82.516C57.5457 82.9613 57.4908 83.479 57.3327 84.0689L57.2224 84.4806L52.3489 83.1747L52.5739 82.335L56.4595 83.3762C56.5551 83.0194 56.5691 82.682 56.5014 82.3639C56.4364 82.0465 56.2953 81.7719 56.078 81.5401C55.8634 81.3091 55.5805 81.1465 55.2293 81.0524C54.8424 80.9488 54.4818 80.9551 54.1477 81.0715C53.8171 81.1858 53.5355 81.375 53.303 81.6392C53.0704 81.9034 52.9075 82.2097 52.8141 82.5582L52.6641 83.118C52.5361 83.5955 52.51 84.0223 52.5857 84.3984C52.6648 84.7726 52.8294 85.0858 53.0795 85.3381C53.3303 85.5876 53.6518 85.765 54.0443 85.8701C54.2995 85.9385 54.5395 85.9646 54.7644 85.9484C54.9929 85.9302 55.202 85.8686 55.3919 85.7636C55.5825 85.6558 55.7484 85.5032 55.8896 85.3058L56.7575 85.8207C56.5734 86.1125 56.3324 86.3479 56.0344 86.5269C55.7372 86.7031 55.3991 86.8125 55.02 86.8551C54.6417 86.8949 54.2385 86.8574 53.8104 86.7427ZM59.7621 88.3551C59.3615 88.2478 59.0181 88.0749 58.732 87.8365C58.4466 87.5953 58.2465 87.3049 58.1316 86.9653C58.0175 86.623 58.0155 86.246 58.1258 85.8344C58.2229 85.4722 58.3729 85.1976 58.5759 85.0109C58.7796 84.8213 59.0181 84.6941 59.2914 84.6291C59.5647 84.5641 59.8539 84.5386 60.1589 84.5527C60.4674 84.5648 60.7737 84.591 61.0776 84.6312C61.475 84.6848 61.7964 84.7312 62.0417 84.7704C62.2906 84.8077 62.4783 84.8095 62.605 84.7758C62.7344 84.7428 62.8201 84.6481 62.862 84.4917L62.8708 84.4588C62.9796 84.0526 62.953 83.7073 62.7911 83.4227C62.6318 83.1389 62.3286 82.937 61.8813 82.8172C61.4175 82.6929 61.0267 82.697 60.7089 82.8295C60.391 82.962 60.1477 83.1291 59.9789 83.331L59.1452 82.7546C59.4127 82.4146 59.7124 82.1743 60.0442 82.0338C60.3794 81.8912 60.7217 81.8212 61.0711 81.8236C61.4239 81.8241 61.7594 81.8669 62.0778 81.9522C62.2808 82.0066 62.5075 82.0938 62.7577 82.2138C63.0113 82.3318 63.2418 82.4979 63.4491 82.7123C63.6591 82.9274 63.8063 83.2065 63.8908 83.5498C63.9753 83.893 63.9503 84.3157 63.8158 84.8179L62.6996 88.9834L61.7282 88.7231L61.9576 87.867L61.9082 87.8537C61.8056 87.9733 61.6565 88.0907 61.4609 88.2059C61.2653 88.3212 61.0252 88.3995 60.7406 88.4408C60.456 88.4822 60.1298 88.4537 59.7621 88.3551ZM60.1441 87.5222C60.5283 87.6252 60.8723 87.6365 61.1762 87.5561C61.4828 87.4765 61.7353 87.3354 61.9338 87.1326C62.1349 86.9307 62.2708 86.698 62.3414 86.4345L62.5796 85.5454C62.5252 85.5838 62.4226 85.6048 62.2716 85.6085C62.1241 85.6101 61.9557 85.6018 61.7665 85.5834C61.5808 85.5631 61.3999 85.5411 61.2239 85.5175C61.0514 85.4918 60.9111 85.4719 60.8032 85.4577C60.5419 85.423 60.2916 85.4132 60.0522 85.4285C59.8163 85.4418 59.6116 85.5031 59.4382 85.6125C59.2682 85.7199 59.1502 85.8971 59.084 86.1441C58.9936 86.4816 59.05 86.7702 59.2534 87.01C59.4603 87.2478 59.7572 87.4185 60.1441 87.5222ZM66.8247 90.2299C66.2978 90.0887 65.8684 89.831 65.5363 89.4567C65.205 89.0797 64.9909 88.6165 64.894 88.067C64.7979 87.5148 64.8395 86.9039 65.0189 86.2343C65.1968 85.5703 65.4651 85.0245 65.8238 84.5971C66.1824 84.1697 66.6005 83.8773 67.0779 83.7199C67.5554 83.5626 68.0603 83.5552 68.5926 83.6979C69.0042 83.8081 69.311 83.9639 69.513 84.1651C69.7185 84.3642 69.8611 84.5672 69.941 84.7739C70.0244 84.9785 70.0871 85.1453 70.129 85.2742L70.2113 85.2963L71.0452 82.1845L72.0166 82.4447L69.7578 90.8746L68.8193 90.6232L69.0796 89.6518L68.9643 89.6209C68.8621 89.717 68.7216 89.8352 68.5428 89.9756C68.3648 90.1132 68.1353 90.2178 67.8543 90.2896C67.574 90.3586 67.2308 90.3387 66.8247 90.2299ZM67.1902 89.3926C67.5799 89.497 67.9364 89.4837 68.2597 89.3527C68.5838 89.2189 68.8643 88.9897 69.1014 88.665C69.3391 88.3375 69.5219 87.935 69.6499 87.4576C69.7763 86.9856 69.8184 86.5542 69.776 86.1634C69.7344 85.7699 69.6056 85.4384 69.3896 85.1687C69.1744 84.8964 68.8692 84.7072 68.474 84.6014C68.0624 84.4911 67.6911 84.5048 67.3601 84.6426C67.0325 84.7783 66.752 85.0076 66.5185 85.3303C66.2884 85.651 66.1138 86.0336 65.9947 86.4782C65.8741 86.9282 65.8332 87.3554 65.8719 87.7599C65.914 88.1624 66.0419 88.5084 66.2555 88.798C66.4725 89.0856 66.7841 89.2837 67.1902 89.3926ZM71.6718 91.3875L73.3659 85.0651L74.3373 85.3254L72.6432 91.6478L71.6718 91.3875ZM74.1422 84.1437C73.9528 84.093 73.8068 83.9847 73.7042 83.819C73.6043 83.654 73.5786 83.4809 73.6271 83.2998C73.6757 83.1187 73.7844 82.9817 73.9534 82.8887C74.1252 82.7965 74.3058 82.7758 74.4951 82.8265C74.6844 82.8773 74.8291 82.9851 74.929 83.1501C75.0316 83.3159 75.0587 83.4893 75.0102 83.6704C74.9616 83.8515 74.8515 83.9882 74.6797 84.0804C74.5107 84.1733 74.3315 84.1944 74.1422 84.1437ZM78.8661 86.5389L78.6455 87.3621L75.3691 86.4842L75.5896 85.6609L78.8661 86.5389ZM76.9505 84.4021L77.9219 84.6624L76.3072 90.6884C76.2337 90.9628 76.2183 91.1793 76.2611 91.3378C76.3074 91.4943 76.3874 91.6128 76.5012 91.6933C76.6184 91.7718 76.7483 91.8301 76.891 91.8684C76.998 91.897 77.0873 91.9151 77.1589 91.9225C77.2311 91.9271 77.289 91.9309 77.3323 91.9337L77.2961 92.8592C77.2236 92.8663 77.1251 92.8664 77.0005 92.8594C76.8751 92.8553 76.7219 92.8289 76.5408 92.7804C76.2664 92.7068 76.0132 92.5758 75.7814 92.3872C75.5524 92.1994 75.3837 91.9615 75.2756 91.6737C75.1701 91.3867 75.1667 91.0593 75.2652 90.6916L76.9505 84.4021ZM90.3613 90.1837L89.3405 89.9102C89.3588 89.6004 89.3223 89.3141 89.2309 89.0514C89.1423 88.7894 89.0112 88.5543 88.8376 88.346C88.6675 88.1357 88.4637 87.9576 88.2264 87.8117C87.989 87.6657 87.7304 87.5552 87.4505 87.4802C86.9401 87.3435 86.4431 87.3485 85.9597 87.4955C85.4789 87.6431 85.0492 87.9353 84.6704 88.372C84.2943 88.8095 84.0085 89.3932 83.8129 90.1231C83.6174 90.8531 83.573 91.5015 83.68 92.0684C83.7896 92.636 84.0157 93.1039 84.3582 93.4721C84.7035 93.8411 85.1313 94.094 85.6417 94.2307C85.9216 94.3057 86.2008 94.3394 86.4793 94.3317C86.7579 94.3239 87.023 94.2729 87.2747 94.1786C87.53 94.0823 87.7614 93.9429 87.9692 93.7603C88.1804 93.5757 88.3552 93.3461 88.4935 93.0714L89.5143 93.3449C89.322 93.7551 89.0787 94.1032 88.7845 94.389C88.4903 94.6749 88.1602 94.8968 87.7944 95.0546C87.4293 95.2097 87.0423 95.2987 86.6332 95.3214C86.227 95.3449 85.8111 95.2997 85.3858 95.1857C84.6668 94.993 84.0745 94.6461 83.6088 94.1449C83.1432 93.6436 82.8366 93.0262 82.689 92.2925C82.5415 91.5589 82.5868 90.7475 82.8251 89.8584C83.0633 88.9694 83.4297 88.244 83.9243 87.6824C84.4189 87.1209 84.9931 86.7394 85.647 86.5382C86.301 86.3369 86.9874 86.3326 87.7064 86.5253C88.1317 86.6393 88.5144 86.808 88.8545 87.0315C89.1974 87.2557 89.4877 87.5276 89.7256 87.8472C89.9642 88.1641 90.1395 88.5199 90.2514 88.9145C90.364 89.3065 90.4007 89.7295 90.3613 90.1837ZM90.3262 96.3859L92.0203 90.0635L92.9588 90.315L92.7029 91.2699L92.7688 91.2876C92.9679 91.0056 93.2444 90.8077 93.5985 90.6937C93.9525 90.5798 94.3189 90.5735 94.6976 90.675C94.769 90.6941 94.8578 90.7194 94.9641 90.7508C95.0703 90.7822 95.1502 90.808 95.2036 90.8282L94.9389 91.8161C94.9082 91.7991 94.836 91.7665 94.7224 91.7184C94.6123 91.6683 94.4928 91.626 94.3638 91.5914C94.0565 91.5091 93.7648 91.5 93.4887 91.5643C93.2162 91.6266 92.9798 91.7515 92.7795 91.939C92.5828 92.1245 92.4462 92.3599 92.3697 92.6453L91.2977 96.6462L90.3262 96.3859ZM96.4597 98.1882C96.0591 98.0809 95.7157 97.908 95.4296 97.6696C95.1443 97.4284 94.9441 97.138 94.8292 96.7984C94.7151 96.4561 94.7132 96.0791 94.8235 95.6675C94.9205 95.3053 95.0705 95.0308 95.2735 94.844C95.4772 94.6544 95.7158 94.5272 95.989 94.4622C96.2623 94.3972 96.5515 94.3717 96.8566 94.3858C97.1651 94.3979 97.4713 94.4241 97.7752 94.4643C98.1726 94.5179 98.494 94.5643 98.7394 94.6035C98.9882 94.6408 99.1759 94.6426 99.3026 94.6089C99.432 94.5759 99.5177 94.4812 99.5596 94.3248L99.5684 94.2919C99.6773 93.8857 99.6507 93.5404 99.4887 93.2558C99.3295 92.972 99.0262 92.7701 98.5789 92.6503C98.1152 92.526 97.7244 92.5301 97.4065 92.6626C97.0887 92.7951 96.8454 92.9622 96.6766 93.1641L95.8428 92.5877C96.1104 92.2477 96.41 92.0074 96.7418 91.8669C97.0771 91.7243 97.4193 91.6543 97.7687 91.6567C98.1215 91.6572 98.4571 91.7 98.7754 91.7853C98.9785 91.8397 99.2051 91.9269 99.4553 92.0469C99.709 92.1649 99.9394 92.331 100.147 92.5454C100.357 92.7605 100.504 93.0396 100.588 93.3829C100.673 93.7261 100.648 94.1488 100.513 94.651L99.3972 98.8165L98.4258 98.5562L98.6552 97.7001L98.6058 97.6868C98.5032 97.8064 98.3541 97.9238 98.1585 98.039C97.9629 98.1543 97.7228 98.2326 97.4382 98.274C97.1536 98.3153 96.8275 98.2868 96.4597 98.1882ZM96.8417 97.3553C97.2259 97.4583 97.5699 97.4696 97.8738 97.3892C98.1804 97.3096 98.433 97.1685 98.6314 96.9657C98.8326 96.7638 98.9685 96.5311 99.039 96.2676L99.2773 95.3785C99.2229 95.4169 99.1202 95.4379 98.9692 95.4416C98.8217 95.4432 98.6534 95.4349 98.4642 95.4165C98.2784 95.3962 98.0976 95.3742 97.9216 95.3506C97.749 95.3249 97.6088 95.305 97.5008 95.2908C97.2395 95.2561 96.9892 95.2463 96.7498 95.2616C96.5139 95.2749 96.3093 95.3362 96.1358 95.4456C95.9659 95.553 95.8478 95.7302 95.7816 95.9772C95.6912 96.3147 95.7477 96.6033 95.9511 96.8431C96.1579 97.0809 96.4548 97.2516 96.8417 97.3553ZM103.522 100.063C102.995 99.9218 102.566 99.6641 102.234 99.2898C101.903 98.9128 101.689 98.4496 101.592 97.9001C101.495 97.3479 101.537 96.737 101.717 96.0674C101.894 95.4034 102.163 94.8576 102.521 94.4302C102.88 94.0028 103.298 93.7104 103.776 93.553C104.253 93.3957 104.758 93.3883 105.29 93.531C105.702 93.6412 106.009 93.797 106.211 93.9982C106.416 94.1973 106.559 94.4003 106.639 94.607C106.722 94.8116 106.785 94.9784 106.827 95.1073L106.909 95.1294L107.743 92.0176L108.714 92.2778L106.455 100.708L105.517 100.456L105.777 99.4849L105.662 99.454C105.56 99.5501 105.419 99.6684 105.24 99.8087C105.062 99.9463 104.833 100.051 104.552 100.123C104.272 100.192 103.928 100.172 103.522 100.063ZM103.888 99.2257C104.278 99.3301 104.634 99.3168 104.957 99.1858C105.281 99.052 105.562 98.8228 105.799 98.4981C106.037 98.1706 106.22 97.7681 106.348 97.2907C106.474 96.8187 106.516 96.3873 106.474 95.9965C106.432 95.603 106.303 95.2715 106.087 95.0018C105.872 94.7295 105.567 94.5403 105.172 94.4345C104.76 94.3242 104.389 94.3379 104.058 94.4757C103.73 94.6114 103.45 94.8407 103.216 95.1634C102.986 95.4841 102.811 95.8667 102.692 96.3113C102.572 96.7613 102.531 97.1885 102.569 97.593C102.612 97.9955 102.74 98.3415 102.953 98.6311C103.17 98.9187 103.482 99.1169 103.888 99.2257Z" fill="#E6E6E6"/>
<circle cx="35.8019" cy="97.3055" r="2" transform="rotate(15 35.8019 97.3055)" fill="#D9D9D9"/>
<circle cx="46.4269" cy="100.152" r="2" transform="rotate(15 46.4269 100.152)" fill="#D9D9D9"/>
<circle cx="57.0519" cy="102.999" r="2" transform="rotate(15 57.0519 102.999)" fill="#D9D9D9"/>
<circle cx="67.6769" cy="105.846" r="2" transform="rotate(15 67.6769 105.846)" fill="#D9D9D9"/>
<path d="M85.2939 105.673L83.0351 114.103L82.0143 113.829L83.9863 106.469L83.9369 106.456L81.5127 107.271L81.7906 106.234L84.2731 105.399L85.2939 105.673ZM85.4595 114.752L85.6581 114.011L89.2568 111.711C89.6789 111.442 90.0309 111.204 90.3128 110.997C90.5954 110.787 90.8187 110.58 90.9828 110.374C91.1503 110.165 91.2686 109.932 91.3377 109.675C91.4171 109.378 91.4145 109.102 91.3299 108.847C91.248 108.593 91.1008 108.374 90.8882 108.191C90.6756 108.007 90.417 107.875 90.1124 107.793C89.7886 107.707 89.4879 107.698 89.2104 107.768C88.9364 107.836 88.7015 107.971 88.5058 108.175C88.3129 108.379 88.1734 108.641 88.0874 108.962L87.116 108.702C87.2483 108.208 87.4784 107.805 87.8061 107.493C88.1339 107.181 88.5219 106.973 88.9702 106.87C89.4212 106.767 89.8924 106.781 90.3835 106.913C90.8775 107.045 91.2872 107.267 91.6128 107.578C91.9383 107.888 92.1621 108.25 92.284 108.662C92.4059 109.074 92.4088 109.497 92.2926 109.93C92.2096 110.24 92.0721 110.529 91.8801 110.795C91.6917 111.059 91.4117 111.336 91.0403 111.624C90.6723 111.911 90.1773 112.249 89.5554 112.638L87.1193 114.156L87.1017 114.222L91.0203 115.272L90.7776 116.177L85.4595 114.752ZM95.2951 117.511C94.7518 117.366 94.2924 117.143 93.9171 116.842C93.5445 116.542 93.2778 116.193 93.1171 115.794C92.9598 115.393 92.9294 114.969 93.0258 114.521L94.0631 114.799C94.0123 115.076 94.0427 115.336 94.1544 115.578C94.2668 115.817 94.4418 116.025 94.6793 116.204C94.9168 116.382 95.1975 116.515 95.5213 116.601C95.8835 116.698 96.2215 116.721 96.5352 116.67C96.8489 116.619 97.1155 116.502 97.335 116.32C97.5544 116.137 97.7038 115.898 97.7832 115.602C97.8663 115.291 97.8627 114.998 97.7722 114.721C97.6825 114.441 97.5075 114.194 97.2472 113.98C96.9868 113.766 96.6426 113.602 96.2145 113.487L95.5395 113.306L95.7821 112.401L96.4572 112.582C96.792 112.671 97.1018 112.69 97.3866 112.636C97.6741 112.584 97.9187 112.467 98.1202 112.286C98.3244 112.105 98.4663 111.867 98.5457 111.571C98.6222 111.285 98.6256 111.02 98.556 110.775C98.4864 110.53 98.3521 110.317 98.1532 110.138C97.9571 109.958 97.704 109.827 97.3939 109.744C97.103 109.666 96.8143 109.646 96.5276 109.684C96.2445 109.72 95.9951 109.817 95.7796 109.974C95.5647 110.128 95.4129 110.343 95.3242 110.619L94.3363 110.354C94.4712 109.917 94.7079 109.566 95.0466 109.301C95.386 109.033 95.7824 108.86 96.2358 108.781C96.6919 108.703 97.1629 108.73 97.6486 108.86C98.17 108.999 98.5889 109.225 98.9055 109.536C99.2228 109.845 99.4357 110.197 99.5441 110.594C99.6525 110.991 99.6534 111.388 99.5468 111.786C99.4196 112.261 99.1863 112.632 98.8469 112.9C98.5102 113.168 98.1119 113.31 97.652 113.325L97.6344 113.391C98.1432 113.622 98.4983 113.959 98.6996 114.404C98.9016 114.847 98.931 115.336 98.7876 115.871C98.6648 116.329 98.4296 116.707 98.0821 117.005C97.7381 117.301 97.3241 117.496 96.8402 117.59C96.3562 117.684 95.8412 117.658 95.2951 117.511ZM100.124 116.829L100.349 115.989L105.624 111.12L106.233 111.283L105.884 112.584L105.473 112.474L101.487 116.153L101.469 116.219L106.458 117.555L106.215 118.461L100.124 116.829ZM103.628 119.621L104.16 117.637L104.265 117.246L105.887 111.191L106.858 111.451L104.6 119.881L103.628 119.621Z" fill="#F0F0EF"/>
<path d="M110.28 181.572C109.66 181.406 109.177 181.096 108.831 180.642C108.486 180.184 108.285 179.602 108.227 178.896C108.17 178.186 108.264 177.373 108.51 176.457C108.754 175.546 109.078 174.799 109.481 174.216C109.888 173.631 110.355 173.226 110.883 173.003C111.413 172.778 111.986 172.747 112.601 172.912C113.216 173.077 113.695 173.389 114.04 173.849C114.387 174.307 114.59 174.891 114.647 175.6C114.707 176.307 114.616 177.116 114.371 178.028C114.126 178.944 113.801 179.695 113.397 180.281C112.994 180.864 112.528 181.267 112.001 181.491C111.474 181.711 110.901 181.739 110.28 181.572ZM110.523 180.667C111.138 180.832 111.695 180.663 112.194 180.162C112.693 179.66 113.089 178.86 113.384 177.763C113.579 177.033 113.667 176.39 113.649 175.835C113.632 175.281 113.515 174.83 113.296 174.484C113.08 174.137 112.769 173.91 112.363 173.801C111.754 173.638 111.197 173.811 110.693 174.32C110.19 174.826 109.791 175.627 109.498 176.722C109.302 177.452 109.213 178.092 109.23 178.644C109.247 179.196 109.364 179.643 109.58 179.986C109.8 180.33 110.114 180.557 110.523 180.667ZM119.78 174.836C120.125 174.931 120.453 175.089 120.764 175.311C121.075 175.533 121.333 175.831 121.539 176.207C121.745 176.58 121.865 177.046 121.901 177.605C121.936 178.165 121.85 178.831 121.643 179.605C121.442 180.354 121.192 181.001 120.894 181.544C120.599 182.086 120.265 182.52 119.892 182.846C119.522 183.174 119.12 183.389 118.686 183.494C118.255 183.599 117.802 183.588 117.327 183.461C116.855 183.334 116.459 183.128 116.139 182.842C115.822 182.554 115.59 182.211 115.444 181.813C115.301 181.413 115.256 180.982 115.309 180.52L116.314 180.789C116.301 181.2 116.395 181.568 116.596 181.893C116.801 182.215 117.125 182.436 117.57 182.555C118.22 182.729 118.81 182.583 119.338 182.116C119.869 181.649 120.273 180.897 120.551 179.86L120.485 179.842C120.27 180.031 120.034 180.182 119.778 180.292C119.522 180.403 119.252 180.469 118.97 180.491C118.688 180.512 118.401 180.484 118.111 180.406C117.628 180.276 117.216 180.038 116.877 179.692C116.541 179.343 116.309 178.926 116.18 178.441C116.054 177.955 116.064 177.44 116.21 176.897C116.348 176.381 116.59 175.94 116.935 175.573C117.284 175.205 117.702 174.949 118.19 174.807C118.681 174.665 119.211 174.674 119.78 174.836ZM119.537 175.741C119.191 175.648 118.857 175.651 118.533 175.75C118.213 175.847 117.933 176.019 117.693 176.266C117.457 176.512 117.292 176.81 117.198 177.161C117.103 177.513 117.095 177.853 117.171 178.182C117.251 178.509 117.403 178.794 117.626 179.036C117.853 179.277 118.139 179.443 118.485 179.536C118.746 179.605 119.002 179.62 119.254 179.579C119.507 179.535 119.741 179.446 119.956 179.312C120.175 179.177 120.363 179.008 120.52 178.806C120.678 178.601 120.79 178.374 120.857 178.124C120.945 177.795 120.949 177.465 120.867 177.134C120.787 176.804 120.633 176.513 120.404 176.26C120.177 176.008 119.888 175.835 119.537 175.741ZM127.401 176.578L121.979 185.942L121.09 185.704L126.511 176.339L127.401 176.578ZM126.171 185.707L126.369 184.966L129.968 182.665C130.39 182.396 130.742 182.158 131.024 181.951C131.307 181.742 131.53 181.534 131.694 181.328C131.862 181.12 131.98 180.887 132.049 180.629C132.128 180.333 132.126 180.057 132.041 179.802C131.959 179.548 131.812 179.329 131.6 179.145C131.387 178.962 131.128 178.829 130.824 178.748C130.5 178.661 130.199 178.652 129.922 178.722C129.648 178.79 129.413 178.926 129.217 179.129C129.024 179.333 128.885 179.596 128.799 179.917L127.827 179.657C127.96 179.163 128.19 178.76 128.517 178.447C128.845 178.135 129.233 177.927 129.682 177.824C130.133 177.721 130.604 177.736 131.095 177.867C131.589 178 131.999 178.221 132.324 178.532C132.65 178.843 132.873 179.204 132.995 179.616C133.117 180.028 133.12 180.451 133.004 180.885C132.921 181.195 132.783 181.483 132.591 181.749C132.403 182.014 132.123 182.29 131.752 182.579C131.384 182.865 130.889 183.203 130.267 183.593L127.831 185.11L127.813 185.176L131.732 186.226L131.489 187.132L126.171 185.707ZM135.792 188.408C135.309 188.279 134.9 188.066 134.565 187.771C134.229 187.475 133.99 187.128 133.846 186.731C133.703 186.334 133.677 185.918 133.77 185.484L134.758 185.749C134.694 186.141 134.783 186.502 135.023 186.835C135.267 187.165 135.604 187.387 136.035 187.503C136.381 187.595 136.71 187.597 137.022 187.507C137.337 187.418 137.609 187.253 137.839 187.011C138.072 186.768 138.236 186.466 138.333 186.107C138.431 185.739 138.438 185.389 138.353 185.058C138.272 184.724 138.114 184.436 137.879 184.194C137.644 183.952 137.347 183.781 136.988 183.682C136.731 183.61 136.456 183.579 136.162 183.588C135.869 183.595 135.618 183.638 135.408 183.717L134.484 183.346L136.106 179.334L140.486 180.507L140.243 181.413L136.72 180.469L135.757 182.876L135.807 182.889C136.016 182.798 136.264 182.742 136.549 182.721C136.834 182.701 137.117 182.728 137.4 182.804C137.916 182.942 138.342 183.189 138.68 183.544C139.02 183.897 139.249 184.317 139.365 184.804C139.485 185.292 139.471 185.809 139.325 186.355C139.181 186.893 138.931 187.341 138.577 187.699C138.225 188.054 137.807 188.298 137.322 188.43C136.837 188.559 136.328 188.552 135.792 188.408Z" fill="#F8F8FA"/>
<rect opacity="0.2" x="21.9648" y="141.22" width="34" height="22" rx="4" transform="rotate(15 21.9648 141.22)" fill="white"/>
</g>
<defs>
<clipPath id="clip0_1788_1431">
<rect x="49.3164" y="0.504883" width="146" height="188" rx="10" transform="rotate(15 49.3164 0.504883)" fill="white"/>
</clipPath>
</defs>
</svg>
