<svg width="321" height="87" viewBox="0 0 321 87" fill="none" xmlns="http://www.w3.org/2000/svg">
<g filter="url(#filter0_d_1813_2187)">
<rect x="9.64648" y="5.35107" width="302" height="68" rx="10" fill="white"/>
</g>
<path d="M75.2317 33.2602H77.1238L81.5726 44.1266H81.726L86.1749 33.2602H88.0669V46.3511H86.584V36.4051H86.4561L82.3652 46.3511H80.9334L76.8425 36.4051H76.7147V46.3511H75.2317V33.2602ZM94.4895 46.5556C93.6031 46.5556 92.8254 46.3447 92.1564 45.9228C91.4916 45.5009 90.9717 44.9107 90.5967 44.1522C90.226 43.3937 90.0406 42.5073 90.0406 41.4931C90.0406 40.4704 90.226 39.5776 90.5967 38.8149C90.9717 38.0521 91.4916 37.4597 92.1564 37.0379C92.8254 36.616 93.6031 36.4051 94.4895 36.4051C95.3758 36.4051 96.1514 36.616 96.8162 37.0379C97.4852 37.4597 98.0051 38.0521 98.3758 38.8149C98.7508 39.5776 98.9383 40.4704 98.9383 41.4931C98.9383 42.5073 98.7508 43.3937 98.3758 44.1522C98.0051 44.9107 97.4852 45.5009 96.8162 45.9228C96.1514 46.3447 95.3758 46.5556 94.4895 46.5556ZM94.4895 45.2005C95.1628 45.2005 95.7167 45.0279 96.1514 44.6828C96.5861 44.3376 96.9078 43.8837 97.1166 43.3212C97.3254 42.7587 97.4298 42.1494 97.4298 41.4931C97.4298 40.8369 97.3254 40.2254 97.1166 39.6586C96.9078 39.0918 96.5861 38.6337 96.1514 38.2843C95.7167 37.9349 95.1628 37.7602 94.4895 37.7602C93.8162 37.7602 93.2622 37.9349 92.8275 38.2843C92.3929 38.6337 92.0712 39.0918 91.8623 39.6586C91.6535 40.2254 91.5491 40.8369 91.5491 41.4931C91.5491 42.1494 91.6535 42.7587 91.8623 43.3212C92.0712 43.8837 92.3929 44.3376 92.8275 44.6828C93.2622 45.0279 93.8162 45.2005 94.4895 45.2005ZM102.21 40.4448V46.3511H100.701V36.5329H102.158V38.067H102.286C102.516 37.5684 102.866 37.1678 103.335 36.8653C103.803 36.5585 104.408 36.4051 105.15 36.4051C105.815 36.4051 106.396 36.5414 106.895 36.8141C107.394 37.0826 107.781 37.4917 108.058 38.0414C108.335 38.5869 108.474 39.2772 108.474 40.1124V46.3511H106.965V40.2147C106.965 39.4434 106.765 38.8426 106.364 38.4122C105.964 37.9775 105.414 37.7602 104.715 37.7602C104.234 37.7602 103.803 37.8646 103.424 38.0734C103.049 38.2822 102.753 38.5869 102.536 38.9874C102.318 39.388 102.21 39.8738 102.21 40.4448ZM114.807 46.5556C113.861 46.5556 113.045 46.3468 112.359 45.9292C111.677 45.5073 111.151 44.9193 110.78 44.165C110.413 43.4065 110.23 42.5244 110.23 41.5187C110.23 40.513 110.413 39.6266 110.78 38.8596C111.151 38.0883 111.666 37.4874 112.327 37.057C112.992 36.6224 113.767 36.4051 114.653 36.4051C115.165 36.4051 115.67 36.4903 116.168 36.6607C116.667 36.8312 117.121 37.1082 117.53 37.4917C117.939 37.871 118.265 38.3738 118.508 39.0002C118.751 39.6266 118.872 40.3979 118.872 41.3141V41.9533H111.304V40.6494H117.338C117.338 40.0954 117.227 39.6011 117.006 39.1664C116.788 38.7318 116.477 38.3887 116.072 38.1373C115.672 37.8859 115.199 37.7602 114.653 37.7602C114.053 37.7602 113.533 37.9093 113.094 38.2076C112.659 38.5016 112.325 38.8852 112.09 39.3582C111.856 39.8312 111.739 40.3383 111.739 40.8795V41.7488C111.739 42.4903 111.867 43.1188 112.122 43.6345C112.382 44.1458 112.742 44.5357 113.202 44.8042C113.663 45.0684 114.197 45.2005 114.807 45.2005C115.203 45.2005 115.561 45.1451 115.881 45.0343C116.205 44.9193 116.484 44.7488 116.718 44.5229C116.952 44.2928 117.134 44.0073 117.261 43.6664L118.719 44.0755C118.565 44.5698 118.308 45.0045 117.945 45.3795C117.583 45.7502 117.136 46.04 116.603 46.2488C116.07 46.4533 115.472 46.5556 114.807 46.5556ZM121.3 50.0329C121.044 50.0329 120.816 50.0116 120.616 49.969C120.415 49.9306 120.277 49.8923 120.2 49.8539L120.584 48.5244C120.95 48.6181 121.274 48.6522 121.555 48.6266C121.837 48.6011 122.086 48.4754 122.303 48.2495C122.525 48.0279 122.727 47.6678 122.91 47.1693L123.192 46.4022L119.561 36.5329H121.197L123.908 44.3568H124.01L126.72 36.5329H128.357L124.189 47.7829C124.001 48.29 123.769 48.7097 123.492 49.0421C123.215 49.3788 122.893 49.6281 122.527 49.79C122.165 49.9519 121.756 50.0329 121.3 50.0329ZM133.819 34.6664V33.2602H143.637V34.6664H139.52V46.3511H137.935V34.6664H133.819ZM144.319 46.3511V36.5329H145.777V38.0158H145.879C146.058 37.5301 146.382 37.1359 146.851 36.8333C147.319 36.5308 147.848 36.3795 148.436 36.3795C148.547 36.3795 148.685 36.3816 148.851 36.3859C149.018 36.3901 149.143 36.3965 149.229 36.4051V37.9391C149.177 37.9264 149.06 37.9072 148.877 37.8816C148.698 37.8518 148.508 37.8369 148.308 37.8369C147.831 37.8369 147.405 37.937 147.03 38.1373C146.659 38.3333 146.365 38.606 146.148 38.9555C145.934 39.3006 145.828 39.6948 145.828 40.138V46.3511H144.319ZM153.366 46.5812C152.744 46.5812 152.179 46.464 151.672 46.2296C151.165 45.991 150.762 45.6479 150.464 45.2005C150.166 44.7488 150.016 44.2033 150.016 43.5641C150.016 43.0016 150.127 42.5457 150.349 42.1962C150.57 41.8426 150.867 41.5656 151.237 41.3653C151.608 41.165 152.017 41.0158 152.465 40.9178C152.916 40.8156 153.37 40.7346 153.826 40.6749C154.423 40.5982 154.906 40.5407 155.277 40.5024C155.652 40.4597 155.925 40.3894 156.095 40.2914C156.27 40.1934 156.357 40.0229 156.357 39.7801V39.7289C156.357 39.0982 156.185 38.6082 155.84 38.2587C155.499 37.9093 154.981 37.7346 154.286 37.7346C153.566 37.7346 153.002 37.8923 152.592 38.2076C152.183 38.5229 151.896 38.8596 151.73 39.2176L150.298 38.7062C150.553 38.1096 150.894 37.6451 151.32 37.3127C151.751 36.9761 152.22 36.7417 152.727 36.6096C153.238 36.4732 153.741 36.4051 154.235 36.4051C154.551 36.4051 154.913 36.4434 155.322 36.5201C155.735 36.5926 156.134 36.7438 156.517 36.9739C156.905 37.2041 157.227 37.5514 157.482 38.0158C157.738 38.4803 157.866 39.1025 157.866 39.8823V46.3511H156.357V45.0215H156.281C156.178 45.2346 156.008 45.4626 155.769 45.7055C155.531 45.9484 155.213 46.1551 154.817 46.3255C154.421 46.496 153.937 46.5812 153.366 46.5812ZM153.596 45.2261C154.193 45.2261 154.695 45.1089 155.105 44.8745C155.518 44.6401 155.829 44.3376 156.038 43.9668C156.251 43.5961 156.357 43.2062 156.357 42.7971V41.4164C156.293 41.4931 156.153 41.5634 155.936 41.6274C155.722 41.687 155.475 41.7403 155.194 41.7872C154.917 41.8298 154.646 41.8681 154.382 41.9022C154.122 41.932 153.911 41.9576 153.749 41.9789C153.357 42.0301 152.991 42.1131 152.65 42.2282C152.313 42.339 152.041 42.5073 151.832 42.7332C151.627 42.9548 151.525 43.2573 151.525 43.6408C151.525 44.165 151.719 44.5613 152.107 44.8298C152.499 45.094 152.995 45.2261 153.596 45.2261ZM161.588 40.4448V46.3511H160.079V36.5329H161.537V38.067H161.665C161.895 37.5684 162.244 37.1678 162.713 36.8653C163.182 36.5585 163.787 36.4051 164.528 36.4051C165.193 36.4051 165.775 36.5414 166.273 36.8141C166.772 37.0826 167.16 37.4917 167.437 38.0414C167.714 38.5869 167.852 39.2772 167.852 40.1124V46.3511H166.343V40.2147C166.343 39.4434 166.143 38.8426 165.743 38.4122C165.342 37.9775 164.792 37.7602 164.093 37.7602C163.612 37.7602 163.182 37.8646 162.802 38.0734C162.427 38.2822 162.131 38.5869 161.914 38.9874C161.696 39.388 161.588 39.8738 161.588 40.4448ZM177.023 38.7318L175.668 39.1153C175.583 38.8894 175.457 38.67 175.291 38.4569C175.129 38.2396 174.907 38.0606 174.626 37.92C174.345 37.7793 173.985 37.709 173.546 37.709C172.945 37.709 172.444 37.8475 172.044 38.1245C171.647 38.3972 171.449 38.7445 171.449 39.1664C171.449 39.5414 171.586 39.8376 171.858 40.0549C172.131 40.2722 172.557 40.4533 173.137 40.5982L174.594 40.9562C175.472 41.1693 176.126 41.4953 176.556 41.9342C176.987 42.3688 177.202 42.9292 177.202 43.6153C177.202 44.1778 177.04 44.6806 176.716 45.1238C176.397 45.567 175.949 45.9164 175.374 46.1721C174.799 46.4278 174.13 46.5556 173.367 46.5556C172.365 46.5556 171.537 46.3383 170.88 45.9036C170.224 45.469 169.809 44.834 169.634 43.9988L171.066 43.6408C171.202 44.1693 171.46 44.5656 171.839 44.8298C172.223 45.094 172.723 45.2261 173.341 45.2261C174.044 45.2261 174.603 45.0769 175.016 44.7786C175.434 44.4761 175.642 44.1139 175.642 43.692C175.642 43.3511 175.523 43.0656 175.284 42.8354C175.046 42.6011 174.679 42.4264 174.185 42.3113L172.549 41.9278C171.65 41.7147 170.989 41.3845 170.567 40.937C170.15 40.4853 169.941 39.9207 169.941 39.2431C169.941 38.6891 170.096 38.1991 170.407 37.7729C170.723 37.3468 171.151 37.0123 171.692 36.7694C172.238 36.5265 172.856 36.4051 173.546 36.4051C174.517 36.4051 175.28 36.6181 175.834 37.0443C176.392 37.4704 176.789 38.0329 177.023 38.7318ZM183.305 36.5329V37.8113H178.012V36.5329H183.305ZM179.598 46.3511V35.1778C179.598 34.6153 179.73 34.1465 179.994 33.7715C180.258 33.3965 180.601 33.1153 181.023 32.9278C181.445 32.7403 181.89 32.6465 182.359 32.6465C182.73 32.6465 183.032 32.6764 183.267 32.736C183.501 32.7957 183.676 32.8511 183.791 32.9022L183.356 34.2062C183.279 34.1806 183.173 34.1487 183.037 34.1103C182.904 34.072 182.73 34.0528 182.512 34.0528C182.014 34.0528 181.654 34.1785 181.432 34.4299C181.215 34.6813 181.106 35.0499 181.106 35.5357V46.3511H179.598ZM188.591 46.5556C187.645 46.5556 186.829 46.3468 186.143 45.9292C185.461 45.5073 184.935 44.9193 184.564 44.165C184.198 43.4065 184.015 42.5244 184.015 41.5187C184.015 40.513 184.198 39.6266 184.564 38.8596C184.935 38.0883 185.451 37.4874 186.111 37.057C186.776 36.6224 187.552 36.4051 188.438 36.4051C188.949 36.4051 189.454 36.4903 189.953 36.6607C190.451 36.8312 190.905 37.1082 191.314 37.4917C191.723 37.871 192.049 38.3738 192.292 39.0002C192.535 39.6266 192.657 40.3979 192.657 41.3141V41.9533H185.089V40.6494H191.123C191.123 40.0954 191.012 39.6011 190.79 39.1664C190.573 38.7318 190.262 38.3887 189.857 38.1373C189.456 37.8859 188.983 37.7602 188.438 37.7602C187.837 37.7602 187.317 37.9093 186.878 38.2076C186.444 38.5016 186.109 38.8852 185.875 39.3582C185.64 39.8312 185.523 40.3383 185.523 40.8795V41.7488C185.523 42.4903 185.651 43.1188 185.907 43.6345C186.167 44.1458 186.527 44.5357 186.987 44.8042C187.447 45.0684 187.982 45.2005 188.591 45.2005C188.988 45.2005 189.346 45.1451 189.665 45.0343C189.989 44.9193 190.268 44.7488 190.503 44.5229C190.737 44.2928 190.918 44.0073 191.046 43.6664L192.503 44.0755C192.35 44.5698 192.092 45.0045 191.73 45.3795C191.368 45.7502 190.92 46.04 190.388 46.2488C189.855 46.4533 189.256 46.5556 188.591 46.5556ZM194.411 46.3511V36.5329H195.869V38.0158H195.971C196.15 37.5301 196.474 37.1359 196.943 36.8333C197.411 36.5308 197.94 36.3795 198.528 36.3795C198.639 36.3795 198.777 36.3816 198.943 36.3859C199.11 36.3901 199.235 36.3965 199.321 36.4051V37.9391C199.269 37.9264 199.152 37.9072 198.969 37.8816C198.79 37.8518 198.6 37.8369 198.4 37.8369C197.923 37.8369 197.497 37.937 197.122 38.1373C196.751 38.3333 196.457 38.606 196.24 38.9555C196.027 39.3006 195.92 39.6948 195.92 40.138V46.3511H194.411ZM212.455 36.5329C212.378 35.8852 212.067 35.3823 211.522 35.0244C210.976 34.6664 210.307 34.4874 209.515 34.4874C208.935 34.4874 208.428 34.5812 207.993 34.7687C207.563 34.9562 207.226 35.214 206.983 35.5421C206.745 35.8702 206.625 36.2431 206.625 36.6607C206.625 37.0102 206.708 37.3106 206.875 37.562C207.045 37.8092 207.262 38.0158 207.527 38.182C207.791 38.344 208.068 38.4782 208.358 38.5847C208.647 38.687 208.914 38.7701 209.157 38.834L210.486 39.192C210.827 39.2815 211.206 39.4051 211.624 39.5627C212.046 39.7204 212.448 39.9356 212.832 40.2083C213.22 40.4768 213.539 40.822 213.791 41.2438C214.042 41.6657 214.168 42.1835 214.168 42.7971C214.168 43.5045 213.983 44.1437 213.612 44.7147C213.245 45.2857 212.708 45.7396 212.001 46.0762C211.298 46.4129 210.443 46.5812 209.438 46.5812C208.5 46.5812 207.689 46.4299 207.002 46.1274C206.321 45.8248 205.784 45.4029 205.392 44.8617C205.004 44.3205 204.784 43.692 204.733 42.9761H206.37C206.412 43.4704 206.578 43.8795 206.868 44.2033C207.162 44.5229 207.533 44.7616 207.98 44.9193C208.432 45.0727 208.918 45.1494 209.438 45.1494C210.043 45.1494 210.586 45.0514 211.068 44.8553C211.549 44.6551 211.931 44.3781 212.212 44.0244C212.493 43.6664 212.634 43.2488 212.634 42.7715C212.634 42.3369 212.512 41.9832 212.269 41.7104C212.027 41.4377 211.707 41.2161 211.311 41.0457C210.914 40.8752 210.486 40.7261 210.026 40.5982L208.415 40.138C207.392 39.844 206.583 39.4242 205.986 38.8788C205.39 38.3333 205.091 37.6195 205.091 36.7374C205.091 36.0045 205.289 35.3653 205.686 34.8198C206.086 34.2701 206.623 33.844 207.296 33.5414C207.974 33.2346 208.73 33.0812 209.566 33.0812C210.409 33.0812 211.159 33.2325 211.816 33.535C212.472 33.8333 212.992 34.2424 213.375 34.7623C213.763 35.2822 213.968 35.8724 213.989 36.5329H212.455ZM222.217 42.3369V36.5329H223.726V46.3511H222.217V44.6891H222.115C221.885 45.1877 221.527 45.6117 221.041 45.9612C220.555 46.3063 219.942 46.4789 219.2 46.4789C218.587 46.4789 218.041 46.3447 217.564 46.0762C217.087 45.8035 216.712 45.3944 216.439 44.8489C216.166 44.2992 216.03 43.6068 216.03 42.7715V36.5329H217.538V42.6693C217.538 43.3852 217.739 43.9562 218.139 44.3823C218.544 44.8085 219.06 45.0215 219.686 45.0215C220.061 45.0215 220.442 44.9256 220.83 44.7339C221.222 44.5421 221.55 44.2481 221.815 43.8518C222.083 43.4555 222.217 42.9505 222.217 42.3369ZM229.937 46.5556C229.017 46.5556 228.224 46.3383 227.56 45.9036C226.895 45.469 226.383 44.8703 226.025 44.1075C225.667 43.3447 225.488 42.4732 225.488 41.4931C225.488 40.496 225.672 39.616 226.038 38.8532C226.409 38.0862 226.925 37.4874 227.585 37.057C228.25 36.6224 229.025 36.4051 229.912 36.4051C230.602 36.4051 231.224 36.5329 231.778 36.7886C232.332 37.0443 232.786 37.4022 233.14 37.8624C233.493 38.3227 233.713 38.8596 233.798 39.4732H232.29C232.175 39.0258 231.919 38.6295 231.523 38.2843C231.131 37.9349 230.602 37.7602 229.937 37.7602C229.349 37.7602 228.834 37.9136 228.39 38.2204C227.952 38.5229 227.609 38.9512 227.361 39.5052C227.118 40.0549 226.997 40.7005 226.997 41.442C226.997 42.2005 227.116 42.861 227.355 43.4235C227.598 43.986 227.939 44.4228 228.378 44.7339C228.821 45.045 229.341 45.2005 229.937 45.2005C230.329 45.2005 230.685 45.1323 231.005 44.996C231.324 44.8596 231.595 44.6636 231.817 44.4079C232.038 44.1522 232.196 43.8454 232.29 43.4874H233.798C233.713 44.067 233.502 44.589 233.165 45.0535C232.833 45.5137 232.392 45.8802 231.842 46.1529C231.297 46.4214 230.662 46.5556 229.937 46.5556ZM239.452 46.5556C238.532 46.5556 237.739 46.3383 237.074 45.9036C236.409 45.469 235.898 44.8703 235.54 44.1075C235.182 43.3447 235.003 42.4732 235.003 41.4931C235.003 40.496 235.186 39.616 235.553 38.8532C235.924 38.0862 236.439 37.4874 237.1 37.057C237.765 36.6224 238.54 36.4051 239.426 36.4051C240.117 36.4051 240.739 36.5329 241.293 36.7886C241.847 37.0443 242.301 37.4022 242.654 37.8624C243.008 38.3227 243.228 38.8596 243.313 39.4732H241.804C241.689 39.0258 241.434 38.6295 241.037 38.2843C240.645 37.9349 240.117 37.7602 239.452 37.7602C238.864 37.7602 238.348 37.9136 237.905 38.2204C237.466 38.5229 237.123 38.9512 236.876 39.5052C236.633 40.0549 236.512 40.7005 236.512 41.442C236.512 42.2005 236.631 42.861 236.87 43.4235C237.113 43.986 237.453 44.4228 237.892 44.7339C238.336 45.045 238.855 45.2005 239.452 45.2005C239.844 45.2005 240.2 45.1323 240.52 44.996C240.839 44.8596 241.11 44.6636 241.331 44.4079C241.553 44.1522 241.711 43.8454 241.804 43.4874H243.313C243.228 44.067 243.017 44.589 242.68 45.0535C242.348 45.5137 241.907 45.8802 241.357 46.1529C240.811 46.4214 240.176 46.5556 239.452 46.5556ZM249.095 46.5556C248.149 46.5556 247.333 46.3468 246.646 45.9292C245.965 45.5073 245.438 44.9193 245.068 44.165C244.701 43.4065 244.518 42.5244 244.518 41.5187C244.518 40.513 244.701 39.6266 245.068 38.8596C245.438 38.0883 245.954 37.4874 246.614 37.057C247.279 36.6224 248.055 36.4051 248.941 36.4051C249.453 36.4051 249.958 36.4903 250.456 36.6607C250.955 36.8312 251.409 37.1082 251.818 37.4917C252.227 37.871 252.553 38.3738 252.796 39.0002C253.038 39.6266 253.16 40.3979 253.16 41.3141V41.9533H245.592V40.6494H251.626C251.626 40.0954 251.515 39.6011 251.293 39.1664C251.076 38.7318 250.765 38.3887 250.36 38.1373C249.96 37.8859 249.487 37.7602 248.941 37.7602C248.34 37.7602 247.82 37.9093 247.382 38.2076C246.947 38.5016 246.612 38.8852 246.378 39.3582C246.144 39.8312 246.026 40.3383 246.026 40.8795V41.7488C246.026 42.4903 246.154 43.1188 246.41 43.6345C246.67 44.1458 247.03 44.5357 247.49 44.8042C247.95 45.0684 248.485 45.2005 249.095 45.2005C249.491 45.2005 249.849 45.1451 250.168 45.0343C250.492 44.9193 250.771 44.7488 251.006 44.5229C251.24 44.2928 251.421 44.0073 251.549 43.6664L253.007 44.0755C252.853 44.5698 252.595 45.0045 252.233 45.3795C251.871 45.7502 251.423 46.04 250.891 46.2488C250.358 46.4533 249.759 46.5556 249.095 46.5556ZM261.869 38.7318L260.514 39.1153C260.429 38.8894 260.303 38.67 260.137 38.4569C259.975 38.2396 259.753 38.0606 259.472 37.92C259.191 37.7793 258.831 37.709 258.392 37.709C257.791 37.709 257.29 37.8475 256.89 38.1245C256.493 38.3972 256.295 38.7445 256.295 39.1664C256.295 39.5414 256.432 39.8376 256.704 40.0549C256.977 40.2722 257.403 40.4533 257.983 40.5982L259.44 40.9562C260.318 41.1693 260.972 41.4953 261.403 41.9342C261.833 42.3688 262.048 42.9292 262.048 43.6153C262.048 44.1778 261.886 44.6806 261.562 45.1238C261.243 45.567 260.795 45.9164 260.22 46.1721C259.645 46.4278 258.976 46.5556 258.213 46.5556C257.212 46.5556 256.383 46.3383 255.726 45.9036C255.07 45.469 254.655 44.834 254.48 43.9988L255.912 43.6408C256.048 44.1693 256.306 44.5656 256.685 44.8298C257.069 45.094 257.569 45.2261 258.187 45.2261C258.891 45.2261 259.449 45.0769 259.862 44.7786C260.28 44.4761 260.489 44.1139 260.489 43.692C260.489 43.3511 260.369 43.0656 260.131 42.8354C259.892 42.6011 259.525 42.4264 259.031 42.3113L257.395 41.9278C256.496 41.7147 255.835 41.3845 255.413 40.937C254.996 40.4853 254.787 39.9207 254.787 39.2431C254.787 38.6891 254.942 38.1991 255.253 37.7729C255.569 37.3468 255.997 37.0123 256.538 36.7694C257.084 36.5265 257.702 36.4051 258.392 36.4051C259.364 36.4051 260.126 36.6181 260.68 37.0443C261.239 37.4704 261.635 38.0329 261.869 38.7318ZM268.151 36.5329V37.8113H262.859V36.5329H268.151ZM264.444 46.3511V35.1778C264.444 34.6153 264.576 34.1465 264.84 33.7715C265.104 33.3965 265.447 33.1153 265.869 32.9278C266.291 32.7403 266.736 32.6465 267.205 32.6465C267.576 32.6465 267.878 32.6764 268.113 32.736C268.347 32.7957 268.522 32.8511 268.637 32.9022L268.202 34.2062C268.126 34.1806 268.019 34.1487 267.883 34.1103C267.751 34.072 267.576 34.0528 267.359 34.0528C266.86 34.0528 266.5 34.1785 266.278 34.4299C266.061 34.6813 265.952 35.0499 265.952 35.5357V46.3511H264.444ZM275.913 42.3369V36.5329H277.421V46.3511H275.913V44.6891H275.811C275.58 45.1877 275.222 45.6117 274.737 45.9612C274.251 46.3063 273.637 46.4789 272.896 46.4789C272.282 46.4789 271.737 46.3447 271.259 46.0762C270.782 45.8035 270.407 45.3944 270.134 44.8489C269.862 44.2992 269.725 43.6068 269.725 42.7715V36.5329H271.234V42.6693C271.234 43.3852 271.434 43.9562 271.835 44.3823C272.239 44.8085 272.755 45.0215 273.382 45.0215C273.757 45.0215 274.138 44.9256 274.526 44.7339C274.918 44.5421 275.246 44.2481 275.51 43.8518C275.779 43.4555 275.913 42.9505 275.913 42.3369ZM281.153 33.2602V46.3511H279.644V33.2602H281.153ZM284.884 33.2602V46.3511H283.376V33.2602H284.884Z" fill="#191A15"/>
<g clip-path="url(#clip0_1813_2187)">
<path fill-rule="evenodd" clip-rule="evenodd" d="M37.4801 38.3509C37.4801 33.2883 41.5842 29.1842 46.6468 29.1842C51.7094 29.1842 55.8135 33.2883 55.8135 38.3509C55.8135 43.4135 51.7094 47.5176 46.6468 47.5176C41.5842 47.5176 37.4801 43.4135 37.4801 38.3509ZM46.6468 27.5176C40.6637 27.5176 35.8135 32.3678 35.8135 38.3509C35.8135 44.334 40.6637 49.1842 46.6468 49.1842C52.6299 49.1842 57.4801 44.334 57.4801 38.3509C57.4801 32.3678 52.6299 27.5176 46.6468 27.5176ZM46.577 42.0453L52.3664 36.0453L50.9272 34.6565L45.7616 40.01L42.2605 37.2886L41.0331 38.8677L45.2436 42.1405L45.9531 42.6919L46.577 42.0453Z" fill="#2B9B5B"/>
</g>
<defs>
<filter id="filter0_d_1813_2187" x="0.646484" y="0.351074" width="320" height="86" filterUnits="userSpaceOnUse" color-interpolation-filters="sRGB">
<feFlood flood-opacity="0" result="BackgroundImageFix"/>
<feColorMatrix in="SourceAlpha" type="matrix" values="0 0 0 0 0 0 0 0 0 0 0 0 0 0 0 0 0 0 127 0" result="hardAlpha"/>
<feOffset dy="4"/>
<feGaussianBlur stdDeviation="4.5"/>
<feComposite in2="hardAlpha" operator="out"/>
<feColorMatrix type="matrix" values="0 0 0 0 0 0 0 0 0 0 0 0 0 0 0 0 0 0 0.05 0"/>
<feBlend mode="normal" in2="BackgroundImageFix" result="effect1_dropShadow_1813_2187"/>
<feBlend mode="normal" in="SourceGraphic" in2="effect1_dropShadow_1813_2187" result="shape"/>
</filter>
<clipPath id="clip0_1813_2187">
<rect width="24" height="24" fill="white" transform="translate(34.6465 27.3511)"/>
</clipPath>
</defs>
</svg>
