<svg width="139" height="71" viewBox="0 0 139 71" fill="none" xmlns="http://www.w3.org/2000/svg">
<rect x="0.658203" y="0.504883" width="138" height="70" rx="10" fill="white"/>
<path d="M18.3684 53.9594V39.414H19.3002V53.9594H18.3684ZM21.2832 43.9253C21.2226 43.3875 20.9726 42.9708 20.5332 42.6753C20.0938 42.3761 19.5408 42.2265 18.8741 42.2265C18.3968 42.2265 17.984 42.3022 17.6355 42.4537C17.287 42.6015 17.0162 42.806 16.823 43.0674C16.6336 43.325 16.5389 43.6185 16.5389 43.9481C16.5389 44.2246 16.6033 44.4632 16.7321 44.664C16.8646 44.8647 17.037 45.0333 17.2491 45.1697C17.465 45.3022 17.6961 45.414 17.9423 45.5049C18.1885 45.592 18.4252 45.664 18.6525 45.7208L19.7889 46.0162C20.1601 46.1072 20.5408 46.2303 20.9309 46.3856C21.3211 46.5409 21.6828 46.7454 22.0162 46.9992C22.3495 47.253 22.6184 47.5674 22.823 47.9424C23.0313 48.3174 23.1355 48.7662 23.1355 49.289C23.1355 49.9481 22.965 50.5333 22.6241 51.0447C22.287 51.556 21.7965 51.9594 21.1525 52.2549C20.5124 52.5503 19.7377 52.6981 18.8287 52.6981C17.9574 52.6981 17.2037 52.5598 16.5673 52.2833C15.9309 52.0068 15.4328 51.6147 15.073 51.1072C14.7131 50.5958 14.5143 49.9897 14.4764 49.289H16.2377C16.2718 49.7094 16.4082 50.0598 16.6468 50.3401C16.8893 50.6166 17.198 50.8231 17.573 50.9594C17.9518 51.092 18.3665 51.1583 18.8173 51.1583C19.3135 51.1583 19.7548 51.0806 20.1412 50.9253C20.5313 50.7662 20.8381 50.5465 21.0616 50.2662C21.2851 49.9822 21.3968 49.6507 21.3968 49.2719C21.3968 48.9272 21.2984 48.645 21.1014 48.4253C20.9082 48.2056 20.6449 48.0238 20.3116 47.8799C19.9821 47.7359 19.609 47.609 19.1923 47.4992L17.8173 47.1242C16.8855 46.8704 16.1468 46.4973 15.6014 46.0049C15.0597 45.5125 14.7889 44.8609 14.7889 44.0503C14.7889 43.3799 14.9707 42.7947 15.3343 42.2947C15.698 41.7947 16.1904 41.4064 16.8116 41.1299C17.4328 40.8496 18.1336 40.7094 18.9139 40.7094C19.7018 40.7094 20.3968 40.8477 20.9991 41.1242C21.6052 41.4007 22.0824 41.7814 22.4309 42.2662C22.7794 42.7473 22.9612 43.3003 22.9764 43.9253H21.2832ZM25.0744 52.5049V51.2322L29.0119 47.1526C29.4324 46.7094 29.7789 46.3212 30.0517 45.9878C30.3282 45.6507 30.5346 45.3306 30.671 45.0276C30.8074 44.7246 30.8755 44.4026 30.8755 44.0617C30.8755 43.6753 30.7846 43.342 30.6028 43.0617C30.421 42.7776 30.1729 42.5598 29.8585 42.4083C29.5441 42.253 29.1899 42.1753 28.796 42.1753C28.3793 42.1753 28.0157 42.2606 27.7051 42.431C27.3945 42.6015 27.1558 42.842 26.9892 43.1526C26.8225 43.4632 26.7392 43.8269 26.7392 44.2435H25.063C25.063 43.5352 25.2259 42.9159 25.5517 42.3856C25.8774 41.8553 26.3244 41.4443 26.8926 41.1526C27.4608 40.8572 28.1066 40.7094 28.8301 40.7094C29.5611 40.7094 30.2051 40.8553 30.7619 41.1469C31.3225 41.4348 31.76 41.8287 32.0744 42.3287C32.3888 42.825 32.546 43.3856 32.546 44.0106C32.546 44.4424 32.4645 44.8647 32.3017 45.2776C32.1426 45.6905 31.8642 46.1507 31.4664 46.6583C31.0687 47.1621 30.5157 47.7738 29.8074 48.4935L27.4949 50.914V50.9992H32.7335V52.5049H25.0744ZM34.3926 50.2322V48.8117L39.421 40.8685H40.5403V42.9594H39.8301L36.2335 48.6526V48.7435H43.1255V50.2322H34.3926ZM39.9096 52.5049V49.8003L39.921 49.1526V40.8685H41.5858V52.5049H39.9096ZM48.9466 52.664C48.2344 52.664 47.5943 52.5276 47.0261 52.2549C46.4617 51.9784 46.0109 51.5996 45.6738 51.1185C45.3367 50.6375 45.1568 50.0882 45.1341 49.4708H46.8386C46.8803 49.9708 47.1019 50.3818 47.5034 50.7037C47.9049 51.0257 48.3859 51.1867 48.9466 51.1867C49.3935 51.1867 49.7894 51.0844 50.1341 50.8799C50.4825 50.6715 50.7553 50.3856 50.9522 50.0219C51.153 49.6583 51.2534 49.2435 51.2534 48.7776C51.2534 48.3041 51.1511 47.8818 50.9466 47.5106C50.742 47.1394 50.4598 46.8477 50.1 46.6356C49.7439 46.4234 49.3348 46.3155 48.8727 46.3117C48.5204 46.3117 48.1663 46.3723 47.8102 46.4935C47.4541 46.6147 47.1663 46.7738 46.9466 46.9708L45.3386 46.7322L45.992 40.8685H52.3897V42.3742H47.4522L47.0829 45.6299H47.1511C47.3784 45.4102 47.6795 45.2265 48.0545 45.0787C48.4333 44.931 48.8386 44.8572 49.2704 44.8572C49.9788 44.8572 50.6094 45.0257 51.1625 45.3628C51.7193 45.7 52.1568 46.1602 52.475 46.7435C52.7969 47.3231 52.956 47.9897 52.9522 48.7435C52.956 49.4973 52.7856 50.1697 52.4409 50.7606C52.1 51.3515 51.6265 51.8174 51.0204 52.1583C50.4181 52.4954 49.7269 52.664 48.9466 52.664ZM55.7477 52.6128C55.4371 52.6128 55.17 52.503 54.9466 52.2833C54.7231 52.0598 54.6113 51.7909 54.6113 51.4765C54.6113 51.1659 54.7231 50.9007 54.9466 50.681C55.17 50.4575 55.4371 50.3458 55.7477 50.3458C56.0583 50.3458 56.3253 50.4575 56.5488 50.681C56.7723 50.9007 56.8841 51.1659 56.8841 51.4765C56.8841 51.6848 56.831 51.8761 56.725 52.0503C56.6227 52.2208 56.4863 52.3572 56.3159 52.4594C56.1454 52.5617 55.956 52.6128 55.7477 52.6128ZM62.7662 52.6981C61.8684 52.6943 61.1014 52.4575 60.465 51.9878C59.8287 51.5181 59.3419 50.8344 59.0048 49.9367C58.6677 49.039 58.4991 47.9575 58.4991 46.6924C58.4991 45.431 58.6677 44.3534 59.0048 43.4594C59.3457 42.5655 59.8343 41.8837 60.4707 41.414C61.1109 40.9443 61.876 40.7094 62.7662 40.7094C63.6563 40.7094 64.4196 40.9462 65.0559 41.4197C65.6923 41.8894 66.179 42.5712 66.5162 43.4651C66.8571 44.3553 67.0275 45.431 67.0275 46.6924C67.0275 47.9613 66.859 49.0447 66.5218 49.9424C66.1847 50.8363 65.698 51.52 65.0616 51.9935C64.4252 52.4632 63.6601 52.6981 62.7662 52.6981ZM62.7662 51.181C63.554 51.181 64.1696 50.7965 64.6127 50.0276C65.0597 49.2587 65.2832 48.1469 65.2832 46.6924C65.2832 45.7265 65.1809 44.9102 64.9764 44.2435C64.7756 43.5731 64.4859 43.0655 64.1071 42.7208C63.7321 42.3723 63.2851 42.1981 62.7662 42.1981C61.9821 42.1981 61.3665 42.5844 60.9196 43.3572C60.4726 44.1299 60.2472 45.2416 60.2434 46.6924C60.2434 47.6621 60.3438 48.4822 60.5446 49.1526C60.7491 49.8193 61.0389 50.325 61.4139 50.6697C61.7889 51.0106 62.2396 51.181 62.7662 51.181ZM73.0943 52.6981C72.1966 52.6943 71.4295 52.4575 70.7931 51.9878C70.1568 51.5181 69.67 50.8344 69.3329 49.9367C68.9958 49.039 68.8272 47.9575 68.8272 46.6924C68.8272 45.431 68.9958 44.3534 69.3329 43.4594C69.6738 42.5655 70.1625 41.8837 70.7988 41.414C71.439 40.9443 72.2041 40.7094 73.0943 40.7094C73.9844 40.7094 74.7477 40.9462 75.3841 41.4197C76.0204 41.8894 76.5072 42.5712 76.8443 43.4651C77.1852 44.3553 77.3556 45.431 77.3556 46.6924C77.3556 47.9613 77.1871 49.0447 76.85 49.9424C76.5128 50.8363 76.0261 51.52 75.3897 51.9935C74.7534 52.4632 73.9882 52.6981 73.0943 52.6981ZM73.0943 51.181C73.8822 51.181 74.4977 50.7965 74.9409 50.0276C75.3878 49.2587 75.6113 48.1469 75.6113 46.6924C75.6113 45.7265 75.5091 44.9102 75.3045 44.2435C75.1038 43.5731 74.814 43.0655 74.4352 42.7208C74.0602 42.3723 73.6132 42.1981 73.0943 42.1981C72.3102 42.1981 71.6947 42.5844 71.2477 43.3572C70.8007 44.1299 70.5753 45.2416 70.5716 46.6924C70.5716 47.6621 70.6719 48.4822 70.8727 49.1526C71.0772 49.8193 71.367 50.325 71.742 50.6697C72.117 51.0106 72.5678 51.181 73.0943 51.181Z" fill="black"/>
<path d="M13.2377 17.7151V16.7776H19.7832V17.7151H17.0389V25.5049H15.9821V17.7151H13.2377ZM22.9877 25.6412C22.3968 25.6412 21.8784 25.5006 21.4324 25.2194C20.9892 24.9381 20.6426 24.5447 20.3926 24.039C20.1454 23.5333 20.0218 22.9424 20.0218 22.2662C20.0218 21.5844 20.1454 20.9893 20.3926 20.4807C20.6426 19.9722 20.9892 19.5773 21.4324 19.2961C21.8784 19.0148 22.3968 18.8742 22.9877 18.8742C23.5787 18.8742 24.0957 19.0148 24.5389 19.2961C24.9849 19.5773 25.3315 19.9722 25.5787 20.4807C25.8287 20.9893 25.9537 21.5844 25.9537 22.2662C25.9537 22.9424 25.8287 23.5333 25.5787 24.039C25.3315 24.5447 24.9849 24.9381 24.5389 25.2194C24.0957 25.5006 23.5787 25.6412 22.9877 25.6412ZM22.9877 24.7378C23.4366 24.7378 23.8059 24.6228 24.0957 24.3927C24.3855 24.1626 24.6 23.86 24.7392 23.485C24.8784 23.11 24.948 22.7037 24.948 22.2662C24.948 21.8287 24.8784 21.4211 24.7392 21.0432C24.6 20.6654 24.3855 20.36 24.0957 20.127C23.8059 19.8941 23.4366 19.7776 22.9877 19.7776C22.5389 19.7776 22.1696 19.8941 21.8798 20.127C21.59 20.36 21.3755 20.6654 21.2363 21.0432C21.0971 21.4211 21.0275 21.8287 21.0275 22.2662C21.0275 22.7037 21.0971 23.11 21.2363 23.485C21.3755 23.86 21.59 24.1626 21.8798 24.3927C22.1696 24.6228 22.5389 24.7378 22.9877 24.7378ZM30.3354 18.9594V19.8117H26.9434V18.9594H30.3354ZM27.932 17.3912H28.9377V23.6299C28.9377 23.914 28.9789 24.127 29.0613 24.2691C29.1465 24.4083 29.2544 24.502 29.3851 24.5503C29.5186 24.5958 29.6593 24.6185 29.807 24.6185C29.9178 24.6185 30.0087 24.6128 30.0797 24.6015C30.1507 24.5873 30.2076 24.5759 30.2502 24.5674L30.4547 25.4708C30.3865 25.4964 30.2914 25.5219 30.1692 25.5475C30.0471 25.5759 29.8922 25.5901 29.7047 25.5901C29.4206 25.5901 29.1422 25.529 28.8695 25.4069C28.5996 25.2847 28.3752 25.0986 28.1962 24.8486C28.0201 24.5986 27.932 24.2833 27.932 23.9026V17.3912ZM33.7743 25.6583C33.3596 25.6583 32.9831 25.5802 32.6451 25.4239C32.307 25.2648 32.0385 25.0361 31.8397 24.7378C31.6408 24.4367 31.5414 24.0731 31.5414 23.6469C31.5414 23.2719 31.6152 22.968 31.763 22.735C31.9107 22.4992 32.1081 22.3145 32.3553 22.181C32.6025 22.0475 32.8752 21.9481 33.1735 21.8827C33.4746 21.8145 33.7772 21.7606 34.0811 21.7208C34.4789 21.6697 34.8013 21.6313 35.0485 21.6057C35.2985 21.5773 35.4803 21.5305 35.5939 21.4651C35.7104 21.3998 35.7686 21.2861 35.7686 21.1242V21.0901C35.7686 20.6697 35.6536 20.343 35.4235 20.11C35.1962 19.877 34.851 19.7606 34.388 19.7606C33.9078 19.7606 33.5314 19.8657 33.2587 20.0759C32.986 20.2861 32.7942 20.5106 32.6834 20.7492L31.7289 20.4083C31.8993 20.0106 32.1266 19.7009 32.4107 19.4793C32.6976 19.2549 33.0101 19.0986 33.3482 19.0106C33.6891 18.9197 34.0243 18.8742 34.3539 18.8742C34.5641 18.8742 34.8056 18.8998 35.0783 18.9509C35.3539 18.9992 35.6195 19.1001 35.8752 19.2535C36.1337 19.4069 36.3482 19.6384 36.5186 19.9481C36.6891 20.2577 36.7743 20.6725 36.7743 21.1924V25.5049H35.7686V24.6185H35.7175C35.6493 24.7606 35.5357 24.9126 35.3766 25.0745C35.2175 25.2364 35.0059 25.3742 34.7417 25.4878C34.4775 25.6015 34.155 25.6583 33.7743 25.6583ZM33.9277 24.7549C34.3255 24.7549 34.6607 24.6768 34.9334 24.5205C35.209 24.3643 35.4164 24.1626 35.5556 23.9154C35.6976 23.6682 35.7686 23.4083 35.7686 23.1356V22.2151C35.726 22.2662 35.6323 22.3131 35.4874 22.3557C35.3453 22.3955 35.1806 22.431 34.9931 22.4623C34.8084 22.4907 34.628 22.5162 34.4519 22.539C34.2786 22.5589 34.138 22.5759 34.03 22.5901C33.7686 22.6242 33.5243 22.6796 33.2971 22.7563C33.0726 22.8302 32.8908 22.9424 32.7516 23.093C32.6152 23.2407 32.5471 23.4424 32.5471 23.6981C32.5471 24.0475 32.6763 24.3117 32.9348 24.4907C33.1962 24.6668 33.5272 24.7549 33.9277 24.7549ZM39.6156 16.7776V25.5049H38.6099V16.7776H39.6156ZM46.0257 16.7776V25.5049H44.9689V16.7776H46.0257ZM49.014 21.5674V25.5049H48.0083V18.9594H48.9799V19.9822H49.0652C49.2186 19.6498 49.4515 19.3827 49.764 19.181C50.0765 18.9765 50.4799 18.8742 50.9743 18.8742C51.4174 18.8742 51.8052 18.9651 52.1376 19.1469C52.47 19.3259 52.7285 19.5986 52.9132 19.9651C53.0978 20.3287 53.1902 20.789 53.1902 21.3458V25.5049H52.1845V21.414C52.1845 20.8998 52.051 20.4992 51.7839 20.2123C51.5169 19.9225 51.1504 19.7776 50.6845 19.7776C50.3635 19.7776 50.0765 19.8472 49.8237 19.9864C49.5737 20.1256 49.3762 20.3287 49.2314 20.5958C49.0865 20.8628 49.014 21.1867 49.014 21.5674ZM57.687 25.6412C57.0733 25.6412 56.5449 25.4964 56.1017 25.2066C55.6586 24.9168 55.3176 24.5177 55.079 24.0091C54.8404 23.5006 54.7211 22.9197 54.7211 22.2662C54.7211 21.6015 54.8432 21.0148 55.0875 20.5063C55.3347 19.9949 55.6784 19.5958 56.1188 19.3089C56.562 19.0191 57.079 18.8742 57.6699 18.8742C58.1301 18.8742 58.5449 18.9594 58.9142 19.1299C59.2836 19.3003 59.5861 19.539 59.8219 19.8458C60.0577 20.1526 60.204 20.5106 60.2608 20.9197H59.2551C59.1784 20.6214 59.008 20.3572 58.7438 20.127C58.4824 19.8941 58.1301 19.7776 57.687 19.7776C57.2949 19.7776 56.9512 19.8799 56.6557 20.0844C56.3631 20.2861 56.1344 20.5716 55.9696 20.941C55.8077 21.3074 55.7267 21.7378 55.7267 22.2322C55.7267 22.7378 55.8063 23.1782 55.9654 23.5532C56.1273 23.9282 56.3546 24.2194 56.6472 24.4268C56.9426 24.6341 57.2892 24.7378 57.687 24.7378C57.9483 24.7378 58.1855 24.6924 58.3986 24.6015C58.6117 24.5106 58.7921 24.3799 58.9398 24.2094C59.0875 24.039 59.1926 23.8344 59.2551 23.5958H60.2608C60.204 23.9822 60.0634 24.3302 59.839 24.6398C59.6174 24.9466 59.3233 25.191 58.9569 25.3728C58.5932 25.5518 58.1699 25.6412 57.687 25.6412ZM64.3901 25.6412C63.7992 25.6412 63.2807 25.5006 62.8347 25.2194C62.3915 24.9381 62.0449 24.5447 61.7949 24.039C61.5478 23.5333 61.4242 22.9424 61.4242 22.2662C61.4242 21.5844 61.5478 20.9893 61.7949 20.4807C62.0449 19.9722 62.3915 19.5773 62.8347 19.2961C63.2807 19.0148 63.7992 18.8742 64.3901 18.8742C64.981 18.8742 65.498 19.0148 65.9412 19.2961C66.3873 19.5773 66.7338 19.9722 66.981 20.4807C67.231 20.9893 67.356 21.5844 67.356 22.2662C67.356 22.9424 67.231 23.5333 66.981 24.039C66.7338 24.5447 66.3873 24.9381 65.9412 25.2194C65.498 25.5006 64.981 25.6412 64.3901 25.6412ZM64.3901 24.7378C64.839 24.7378 65.2083 24.6228 65.498 24.3927C65.7878 24.1626 66.0023 23.86 66.1415 23.485C66.2807 23.11 66.3503 22.7037 66.3503 22.2662C66.3503 21.8287 66.2807 21.4211 66.1415 21.0432C66.0023 20.6654 65.7878 20.36 65.498 20.127C65.2083 19.8941 64.839 19.7776 64.3901 19.7776C63.9412 19.7776 63.5719 19.8941 63.2821 20.127C62.9924 20.36 62.7779 20.6654 62.6387 21.0432C62.4995 21.4211 62.4299 21.8287 62.4299 22.2662C62.4299 22.7037 62.4995 23.11 62.6387 23.485C62.7779 23.86 62.9924 24.1626 63.2821 24.3927C63.5719 24.6228 63.9412 24.7378 64.3901 24.7378ZM68.8912 25.5049V18.9594H69.8627V19.9822H69.948C70.0843 19.6327 70.3045 19.3614 70.6085 19.1682C70.9125 18.9722 71.2775 18.8742 71.7037 18.8742C72.1355 18.8742 72.4949 18.9722 72.7818 19.1682C73.0716 19.3614 73.2974 19.6327 73.4593 19.9822H73.5275C73.6951 19.6441 73.9466 19.3756 74.2818 19.1768C74.617 18.9751 75.019 18.8742 75.4877 18.8742C76.073 18.8742 76.5517 19.0574 76.9238 19.4239C77.296 19.7876 77.4821 20.3543 77.4821 21.1242V25.5049H76.4764V21.1242C76.4764 20.6412 76.3443 20.2961 76.0801 20.0887C75.8159 19.8813 75.5048 19.7776 75.1468 19.7776C74.6866 19.7776 74.3301 19.9168 74.0772 20.1952C73.8244 20.4708 73.698 20.8202 73.698 21.2435V25.5049H72.6752V21.0219C72.6752 20.6498 72.5545 20.3501 72.313 20.1228C72.0716 19.8927 71.7605 19.7776 71.3798 19.7776C71.1184 19.7776 70.8741 19.8472 70.6468 19.9864C70.4224 20.1256 70.2406 20.3188 70.1014 20.566C69.965 20.8103 69.8968 21.093 69.8968 21.414V25.5049H68.8912ZM82.0652 25.6412C81.4345 25.6412 80.8904 25.502 80.4331 25.2236C79.9785 24.9424 79.6277 24.5503 79.3805 24.0475C79.1362 23.5418 79.014 22.9537 79.014 22.2833C79.014 21.6128 79.1362 21.0219 79.3805 20.5106C79.6277 19.9964 79.9714 19.5958 80.4118 19.3089C80.8549 19.0191 81.372 18.8742 81.9629 18.8742C82.3038 18.8742 82.6404 18.931 82.9728 19.0447C83.3052 19.1583 83.6078 19.343 83.8805 19.5986C84.1532 19.8515 84.3706 20.1867 84.5325 20.6043C84.6944 21.0219 84.7754 21.5361 84.7754 22.1469V22.5731H79.7299V21.7037H83.7527C83.7527 21.3344 83.6788 21.0049 83.5311 20.7151C83.3862 20.4253 83.1788 20.1966 82.9089 20.029C82.6419 19.8614 82.3265 19.7776 81.9629 19.7776C81.5623 19.7776 81.2157 19.877 80.9231 20.0759C80.6333 20.2719 80.4103 20.5276 80.2541 20.843C80.0978 21.1583 80.0197 21.4964 80.0197 21.8572V22.4367C80.0197 22.931 80.1049 23.3501 80.2754 23.6938C80.4487 24.0347 80.6887 24.2947 80.9956 24.4736C81.3024 24.6498 81.6589 24.7378 82.0652 24.7378C82.3294 24.7378 82.568 24.7009 82.7811 24.627C82.997 24.5503 83.1831 24.4367 83.3393 24.2861C83.4956 24.1327 83.6163 23.9424 83.7015 23.7151L84.6731 23.9878C84.5708 24.3174 84.399 24.6072 84.1575 24.8572C83.916 25.1043 83.6177 25.2975 83.2626 25.4367C82.9075 25.5731 82.5083 25.6412 82.0652 25.6412Z" fill="#A9A7B6"/>
<path d="M121.658 53.1715V44.8381" stroke="#52BD94" stroke-width="1.66667" stroke-linecap="round" stroke-linejoin="round"/>
<path d="M116.658 53.1715V39.8381" stroke="#52BD94" stroke-width="1.66667" stroke-linecap="round" stroke-linejoin="round"/>
<path d="M111.658 53.1716V48.1716" stroke="#52BD94" stroke-width="1.66667" stroke-linecap="round" stroke-linejoin="round"/>
</svg>
